<svg width="919" height="918" viewBox="0 0 919 918" fill="none" xmlns="http://www.w3.org/2000/svg">
<g opacity="0.8">
<path d="M283.813 689.502L283.823 689.503L283.833 689.504C290.417 689.848 296.837 693.492 300.414 698.624C304.032 703.815 306.462 710.024 306.122 716.613C304.315 729.782 292.719 740.19 279.016 738.927C271.896 738.001 266.563 734.416 262.367 729.756C258.223 725.154 256.354 718.448 256.698 711.816C258.505 698.644 270.105 688.234 283.813 689.502Z" stroke="#E0E0E0"/>
<path d="M195.017 418.891L438.988 337.906L438.989 337.907L438.992 337.911L438.995 337.914L438.998 337.917L439.001 337.921L439.004 337.924L439.007 337.928L439.01 337.931L439.013 337.934L439.016 337.938L439.019 337.941L439.022 337.945L439.025 337.948L439.028 337.951L439.031 337.955L439.034 337.958L439.037 337.961L439.04 337.965L439.043 337.968L439.046 337.971L439.049 337.975L439.052 337.978L439.056 337.981L439.059 337.985L439.062 337.988L439.065 337.992L439.068 337.995L439.071 337.998L439.074 338.002L439.077 338.005L439.08 338.008L439.083 338.012L439.086 338.015L439.089 338.018L439.092 338.021L439.095 338.025L439.097 338.028L439.1 338.031L439.103 338.035L439.106 338.038L439.109 338.041L439.112 338.045L439.115 338.048L439.118 338.051L439.121 338.055L439.124 338.058L439.127 338.061L439.13 338.064L439.133 338.068L439.136 338.071L439.139 338.074L439.142 338.077L439.145 338.081L439.148 338.084L439.151 338.087L439.154 338.09L439.157 338.094L439.16 338.097L439.162 338.1L439.165 338.103L439.168 338.107L439.171 338.11L439.174 338.113L439.177 338.116L439.18 338.12L439.183 338.123L439.186 338.126L439.189 338.129L439.191 338.132L439.194 338.136L439.197 338.139L439.2 338.142L439.203 338.145L439.206 338.148L439.209 338.152L439.212 338.155L439.214 338.158L439.217 338.161L439.22 338.164L439.223 338.168L439.226 338.171L439.229 338.174L439.232 338.177L439.234 338.18L439.237 338.183L439.24 338.186L439.243 338.19L439.246 338.193L439.249 338.196L439.251 338.199L439.254 338.202L439.257 338.205L439.26 338.208L439.263 338.211L439.265 338.215L439.268 338.218L439.271 338.221L439.274 338.224L439.277 338.227L439.279 338.23L439.282 338.233L439.285 338.236L439.288 338.239L439.29 338.242L439.293 338.245L439.296 338.248L439.299 338.251L439.301 338.255L439.304 338.258L439.307 338.261L439.31 338.264L439.312 338.267L439.315 338.27L439.318 338.273L439.32 338.276L439.323 338.279L439.326 338.282L439.329 338.285L439.331 338.288L439.334 338.291L439.337 338.294L439.339 338.297L439.342 338.3L439.345 338.303L439.347 338.306L439.35 338.309L439.353 338.311L439.355 338.314L439.358 338.317L439.361 338.32L439.363 338.323L439.366 338.326L439.368 338.329L439.371 338.332L439.374 338.335L439.376 338.338L439.379 338.341L439.382 338.344L439.384 338.346L439.387 338.349L439.389 338.352L439.392 338.355L439.395 338.358L439.397 338.361L439.4 338.364L439.402 338.367L439.405 338.369L439.407 338.372L439.41 338.375L439.412 338.378L439.415 338.381L439.418 338.384L439.42 338.386L439.423 338.389L439.425 338.392L439.428 338.395L439.43 338.398L439.433 338.4L439.435 338.403L439.438 338.406L439.44 338.409L439.443 338.411L439.445 338.414L439.447 338.417L439.45 338.42L439.452 338.422L439.455 338.425L439.457 338.428L439.46 338.43L439.462 338.433L439.465 338.436L439.467 338.439L439.469 338.441L439.472 338.444L439.474 338.447L439.477 338.449L439.479 338.452L439.481 338.455L439.484 338.457L439.486 338.46L439.489 338.462L439.491 338.465L439.493 338.468L439.496 338.47L439.498 338.473L439.5 338.476L439.503 338.478L439.505 338.481L439.507 338.483L439.51 338.486L439.512 338.488L439.514 338.491L439.517 338.494L439.519 338.496L439.521 338.499L439.523 338.501L439.526 338.504L439.528 338.506L439.53 338.509L439.532 338.511L439.535 338.514L439.537 338.516L439.539 338.519L439.541 338.521L439.544 338.524L439.546 338.526L439.548 338.529L439.55 338.531L439.552 338.533L439.555 338.536L439.557 338.538L439.559 338.541L439.561 338.543L439.563 338.546L439.566 338.548L439.568 338.55L439.57 338.553L439.572 338.555L439.574 338.557L439.576 338.56L439.578 338.562L439.58 338.564L439.583 338.567L439.585 338.569L439.587 338.571L439.589 338.574L439.591 338.576L439.593 338.578L439.595 338.581L439.597 338.583L439.599 338.585L439.601 338.587L439.603 338.59L439.605 338.592L439.607 338.594L439.609 338.596L439.611 338.599L439.613 338.601L439.615 338.603L439.617 338.605L439.619 338.607L439.621 338.61L439.623 338.612L439.625 338.614L439.627 338.616L439.629 338.618L439.631 338.62L439.633 338.623L439.635 338.625L439.636 338.627L439.638 338.629L439.64 338.631L439.642 338.633L439.644 338.635L439.646 338.637L439.648 338.639L439.65 338.641L439.651 338.643L439.653 338.645L439.655 338.647L439.657 338.649L439.659 338.651L439.661 338.653L439.662 338.655L439.664 338.657L439.666 338.659L439.668 338.661L439.669 338.663L439.671 338.665L439.673 338.667L439.675 338.669L439.676 338.671L439.678 338.673L439.68 338.675L439.682 338.677L439.683 338.679L439.685 338.681L439.687 338.682L439.688 338.684L439.69 338.686L439.692 338.688L439.693 338.69L439.695 338.692L439.697 338.693L439.698 338.695L439.7 338.697L439.701 338.699L439.703 338.701L439.705 338.702L439.706 338.704L439.708 338.706L439.709 338.708L439.711 338.709L439.712 338.711L439.714 338.713L439.715 338.714L439.717 338.716L439.718 338.718L439.72 338.719L439.721 338.721L439.723 338.723L439.724 338.724L439.726 338.726L439.727 338.728L439.729 338.729L439.73 338.731L439.732 338.732L439.733 338.734L439.735 338.736L439.736 338.737L439.737 338.739L439.739 338.74L439.74 338.742L439.741 338.743L439.743 338.745L439.744 338.746L439.746 338.748L439.747 338.749L439.748 338.751L439.749 338.752L439.751 338.754L439.752 338.755L439.753 338.757L439.755 338.758L439.756 338.759L439.757 338.761L439.758 338.762L439.76 338.764L439.761 338.765L439.762 338.766L439.763 338.768L439.765 338.769L439.766 338.77L439.767 338.772L439.768 338.773L439.769 338.774L439.77 338.775L439.772 338.777L439.773 338.778L439.774 338.779L439.775 338.78L439.776 338.782L439.777 338.783L439.778 338.784L439.779 338.785L439.78 338.786L439.781 338.788L439.782 338.789L439.783 338.79L439.784 338.791L439.785 338.792L439.786 338.793L439.787 338.794L439.788 338.796L439.789 338.797L439.79 338.798L439.791 338.799L439.792 338.8L439.793 338.801L439.794 338.802L439.795 338.803L439.796 338.804L439.797 338.805L439.798 338.806L439.799 338.807L439.799 338.808L439.8 338.809L439.801 338.81L439.802 338.811L439.803 338.811L439.804 338.812L439.804 338.813L439.805 338.814L439.806 338.815L439.807 338.816L439.808 338.817L439.808 338.818L439.809 338.818L439.81 338.819L439.81 338.82L439.811 338.821L439.812 338.821L439.813 338.822L439.813 338.823L439.814 338.824L439.815 338.824L439.815 338.825L439.816 338.826L439.816 338.827L439.817 338.827L439.818 338.828L439.818 338.829L439.819 338.829L439.819 338.83L439.82 338.83L439.82 338.831L439.821 338.832L439.821 338.832L439.822 338.833L439.822 338.833L439.823 338.834L439.823 338.834L439.824 338.835L439.824 338.835L439.825 338.836L439.825 338.836L439.826 338.837L439.826 338.837L439.826 338.838L439.827 338.838L439.827 338.839L439.828 338.839L439.828 338.839L439.828 338.84L439.829 338.84L439.829 338.84L439.829 338.841L439.829 338.841L439.83 338.841L439.83 338.842L439.83 338.842L439.831 338.842L439.831 338.842L439.831 338.843L439.831 338.843L439.831 338.843L439.832 338.843L439.832 338.844L439.832 338.844L439.832 338.844L439.832 338.844L439.832 338.844L439.832 338.844L439.833 338.844L439.833 338.845L439.833 338.845L439.833 338.845L439.833 338.845C443.518 342.938 447.791 346.529 453.212 349.095L443.803 453.547L434.396 557.968C427.228 559.299 421.548 562.295 416.884 566.417L193.24 442.445C194.492 439.176 195.761 434.866 195.42 430.958C195.648 426.624 195.822 423.281 195.017 418.891Z" stroke="#8B00FF"/>
<path d="M329.166 715.673C329.961 708.593 328.131 701.914 325.261 695.245L420.759 624.145C426.146 627.731 431.653 630.235 438.392 630.588C445.095 630.939 451.323 629.614 457.012 627.704L522.411 696.783L522.413 696.785L550.453 726.748C550.237 727.289 550.004 727.852 549.765 728.428C549.322 729.496 548.861 730.608 548.46 731.705C547.862 733.337 547.366 735.01 547.207 736.613L329.166 715.673Z" stroke="#E0E0E0"/>
<path opacity="0.5" d="M178.254 463.745L178.308 463.716L178.354 463.675L178.357 463.672L178.361 463.669L178.364 463.666L178.367 463.662L178.371 463.659L178.374 463.656L178.378 463.653L178.381 463.65L178.385 463.647L178.388 463.644L178.392 463.641L178.395 463.637L178.399 463.634L178.402 463.631L178.406 463.628L178.409 463.625L178.412 463.622L178.416 463.619L178.419 463.616L178.423 463.613L178.426 463.609L178.43 463.606L178.433 463.603L178.437 463.6L178.44 463.597L178.444 463.594L178.447 463.591L178.451 463.588L178.454 463.584L178.458 463.581L178.461 463.578L178.464 463.575L178.468 463.572L178.471 463.569L178.475 463.566L178.478 463.563L178.482 463.56L178.485 463.556L178.489 463.553L178.492 463.55L178.496 463.547L178.499 463.544L178.503 463.541L178.506 463.538L178.509 463.535L178.513 463.531L178.516 463.528L178.52 463.525L178.523 463.522L178.527 463.519L178.53 463.516L178.534 463.513L178.537 463.51L178.541 463.507L178.544 463.503L178.548 463.5L178.551 463.497L178.554 463.494L178.558 463.491L178.561 463.488L178.565 463.485L178.568 463.482L178.572 463.478L178.575 463.475L178.579 463.472L178.582 463.469L178.586 463.466L178.589 463.463L178.593 463.46L178.596 463.457L178.599 463.454L178.603 463.45L178.606 463.447L178.61 463.444L178.613 463.441L178.617 463.438L178.62 463.435L178.624 463.432L178.627 463.429L178.631 463.425L178.634 463.422L178.638 463.419L178.641 463.416L178.645 463.413L178.648 463.41L178.651 463.407L178.655 463.404L178.658 463.401L178.662 463.397L178.665 463.394L178.669 463.391L178.672 463.388L178.676 463.385L178.679 463.382L178.683 463.379L178.686 463.376L178.69 463.372L178.693 463.369L178.696 463.366L178.7 463.363L178.703 463.36L178.707 463.357L178.71 463.354L178.714 463.351L178.717 463.347L178.721 463.344L178.724 463.341L178.728 463.338L178.731 463.335L178.735 463.332L178.738 463.329L178.741 463.326L178.745 463.323L178.748 463.319L178.752 463.316L178.755 463.313L178.759 463.31L178.762 463.307L178.766 463.304L178.769 463.301L178.773 463.298L178.776 463.294L178.78 463.291L178.783 463.288L178.786 463.285L178.79 463.282L178.793 463.279L178.797 463.276L178.8 463.273L178.804 463.27L178.807 463.266L178.811 463.263L178.814 463.26L178.818 463.257L178.821 463.254L178.825 463.251L178.828 463.248L178.831 463.245L178.835 463.241L178.838 463.238L178.842 463.235L178.845 463.232L178.849 463.229L178.852 463.226L178.856 463.223L178.859 463.22L178.863 463.217L178.866 463.213L178.87 463.21L178.873 463.207L178.877 463.204L178.88 463.201L178.883 463.198L178.887 463.195L178.89 463.192L178.894 463.188L178.897 463.185L178.901 463.182L178.904 463.179L178.908 463.176L178.911 463.173L178.915 463.17L178.918 463.167L178.922 463.164L178.925 463.16L178.928 463.157L178.932 463.154L178.935 463.151L178.939 463.148L178.942 463.145L178.946 463.142L178.949 463.139L178.953 463.135L178.956 463.132L178.96 463.129L178.963 463.126L178.967 463.123L178.97 463.12L178.973 463.117L178.977 463.114L178.98 463.111L178.984 463.107L178.987 463.104L178.991 463.101L178.994 463.098L178.998 463.095L179.001 463.092L179.005 463.089L179.008 463.086L179.012 463.082L179.015 463.079L179.018 463.076L179.022 463.073L179.025 463.07L179.029 463.067L179.032 463.064L179.036 463.061L179.039 463.058L179.043 463.054L179.046 463.051L179.05 463.048L179.053 463.045L179.057 463.042L179.06 463.039L179.064 463.036L179.067 463.033L179.07 463.029L179.074 463.026L179.077 463.023L179.081 463.02L179.084 463.017L179.088 463.014L179.091 463.011L179.095 463.008L179.098 463.005L179.102 463.001L179.105 462.998L179.109 462.995L179.112 462.992L179.115 462.989L179.119 462.986L179.122 462.983L179.126 462.98L179.129 462.976L179.133 462.973L179.136 462.97L179.14 462.967L179.143 462.964L179.147 462.961L179.15 462.958L179.154 462.955L179.157 462.952L179.16 462.948L179.164 462.945L179.167 462.942L179.171 462.939L179.174 462.936L179.178 462.933L179.181 462.93L179.185 462.927L179.188 462.923L179.192 462.92L179.195 462.917L179.199 462.914L179.202 462.911L179.205 462.908L179.209 462.905L179.212 462.902L179.216 462.899L179.219 462.895L179.223 462.892L179.226 462.889L179.23 462.886L179.233 462.883L179.237 462.88L179.24 462.877L179.244 462.874L179.247 462.87L179.251 462.867L179.254 462.864L179.257 462.861L179.261 462.858L179.264 462.855L179.268 462.852L179.271 462.849L179.275 462.846L179.278 462.842L179.282 462.839L179.285 462.836L179.289 462.833L179.292 462.83L179.296 462.827L179.299 462.824L179.302 462.821L179.306 462.817L179.309 462.814L179.313 462.811L179.316 462.808L179.32 462.805L179.323 462.802L179.327 462.799L179.33 462.796L179.334 462.792L179.337 462.789L179.341 462.786L179.344 462.783L179.347 462.78L179.351 462.777L179.354 462.774L179.358 462.771L179.361 462.768L179.365 462.764L179.368 462.761L179.372 462.758L179.375 462.755L179.379 462.752L179.382 462.749L179.386 462.746L179.389 462.743L179.392 462.739L179.396 462.736L179.399 462.733L179.403 462.73L179.406 462.727L179.41 462.724L179.413 462.721L179.417 462.718L179.42 462.715L179.424 462.711L179.427 462.708L179.431 462.705L179.434 462.702L179.438 462.699L179.441 462.696L179.444 462.693L179.448 462.69L179.451 462.686L179.455 462.683L179.458 462.68L179.462 462.677L179.465 462.674L179.469 462.671L179.472 462.668L179.476 462.665L179.479 462.662L179.483 462.658L179.486 462.655L179.489 462.652L179.493 462.649L179.496 462.646L179.5 462.643L179.503 462.64L179.507 462.637L179.51 462.633L179.514 462.63L179.517 462.627L179.521 462.624L179.524 462.621L179.528 462.618L179.531 462.615L179.534 462.612L179.538 462.609L179.541 462.605L179.545 462.602L179.548 462.599L179.552 462.596L179.555 462.593L179.559 462.59L179.562 462.587L179.566 462.584L179.569 462.58L179.573 462.577L179.576 462.574L179.579 462.571L179.583 462.568L179.586 462.565L179.59 462.562L179.593 462.559L179.597 462.556L179.6 462.552L179.604 462.549L179.607 462.546L179.611 462.543L179.614 462.54L179.618 462.537L179.621 462.534L179.624 462.531L179.628 462.527L179.631 462.524L179.635 462.521L179.638 462.518L179.642 462.515L179.645 462.512L179.649 462.509L179.652 462.506L179.656 462.503L179.659 462.499L179.663 462.496L179.666 462.493L179.67 462.49L179.673 462.487L179.676 462.484L179.68 462.481L179.683 462.478L179.687 462.474L179.69 462.471L179.694 462.468L179.697 462.465L179.701 462.462L179.704 462.459L179.708 462.456L179.711 462.453L179.715 462.45L179.718 462.446L179.721 462.443L179.725 462.44L179.728 462.437L179.732 462.434L179.735 462.431L179.739 462.428L179.742 462.425L179.746 462.421L179.749 462.418L179.753 462.415L179.756 462.412L179.76 462.409L179.763 462.406L179.766 462.403L179.77 462.4L179.773 462.397L179.777 462.393L179.78 462.39L179.784 462.387L179.787 462.384L179.791 462.381L179.794 462.378L179.798 462.375L179.801 462.372L179.805 462.368L179.808 462.365L179.811 462.362L179.815 462.359L179.818 462.356L179.822 462.353L179.825 462.35L179.829 462.347L179.832 462.344L179.836 462.34L179.839 462.337L179.843 462.334L179.846 462.331L179.85 462.328L179.853 462.325L179.857 462.322L179.86 462.319L179.862 462.317L405.799 587.59L405.799 587.594L405.798 587.607L405.798 587.613L405.798 587.62L405.796 587.646L405.795 587.672L405.794 587.699L405.792 587.725L405.792 587.738L405.791 587.751C405.789 587.791 405.792 587.725 405.79 587.765L405.789 587.778L405.788 587.804L405.787 587.83L405.785 587.857L405.783 587.909L405.777 588.015L405.772 588.12L405.766 588.225L405.76 588.331L405.749 588.541L405.738 588.752L405.737 588.778L405.736 588.791L405.736 588.804L405.735 588.817L405.734 588.831L405.733 588.857L405.731 588.883L405.73 588.91L405.729 588.923L405.729 588.936L405.727 588.962L405.726 588.989L405.725 589.015L405.722 589.068L405.721 589.074L405.721 589.081L405.72 589.094L405.72 589.107L405.719 589.12L405.718 589.133L405.718 589.147L405.717 589.153L405.717 589.16L405.717 589.166L405.716 589.173L405.705 589.383L405.694 589.594L405.689 589.699L405.683 589.805L405.678 589.91L405.675 589.962L405.674 589.969L405.674 589.976L405.673 589.989L405.673 590.002L405.672 590.009L405.672 590.015L405.669 590.068L405.668 590.094L405.667 590.107L405.667 590.12L405.665 590.147L405.664 590.173L405.663 590.18L405.663 590.186L405.662 590.199L405.661 590.226L405.661 590.232L405.66 590.239L405.66 590.245L405.66 590.252L405.659 590.265L405.659 590.272L405.658 590.278L405.658 590.285L405.658 590.291L405.657 590.298L405.657 590.305L405.657 590.311L405.656 590.318L405.655 590.331L405.65 590.436L405.644 590.542L405.642 590.594L405.641 590.607L405.64 590.619C404.934 594.955 405.86 599.38 406.691 603.353C406.821 603.973 406.948 604.582 407.067 605.178L311.528 676.308C303.965 670.372 295.694 667.162 286.215 666.105L286.201 666.103L286.186 666.103C277.309 665.638 268.863 666.834 260.811 670.777L170.508 468.725C171.822 467.992 173.03 467.149 174.216 466.323L174.227 466.315C175.546 465.396 176.836 464.497 178.254 463.745Z" stroke="#E0E0E0"/>
<path d="M724.939 491.067L471.471 572.097C467.846 566.999 463.089 562.903 456.673 560.306L476.608 351.499C482.71 350.107 488.352 347.113 493.001 343.003L727.222 469.227C726.001 472.487 725.258 476.262 724.526 479.984L724.52 480.012C723.77 483.827 724.07 487.687 724.939 491.067Z" stroke="#E0E0E0"/>
<path d="M327.47 222.184L327.473 222.185C338.079 223.301 347.768 221.045 356.52 215.415L358.895 218.053L358.902 218.06L434.434 298.391C433.104 302.73 431.775 307.113 430.959 312.07L430.954 312.097L430.953 312.125L430.865 313.809L430.794 315.155L347.424 343.323L347.422 343.324L185.55 397.232L185.548 397.229L185.545 397.226L185.542 397.223L185.538 397.219L185.535 397.216L185.532 397.212L185.529 397.209L185.526 397.205L185.523 397.202L185.52 397.198L185.517 397.195L185.513 397.191L185.51 397.188L185.507 397.184L185.504 397.181L185.501 397.178L185.498 397.174L185.495 397.171L185.492 397.167L185.489 397.164L185.485 397.16L185.482 397.157L185.479 397.153L185.476 397.15L185.473 397.146L185.47 397.143L185.467 397.139L185.464 397.136L185.46 397.133L185.457 397.129L185.454 397.126L185.451 397.122L185.448 397.119L185.445 397.115L185.442 397.112L185.439 397.108L185.436 397.105L185.432 397.101L185.429 397.098L185.426 397.094L185.423 397.091L185.42 397.088L185.417 397.084L185.414 397.081L185.411 397.077L185.407 397.074L185.404 397.07L185.401 397.067L185.398 397.063L185.395 397.06L185.392 397.056L185.389 397.053L185.386 397.049L185.383 397.046L185.379 397.043L185.376 397.039L185.373 397.036L185.37 397.032L185.367 397.029L185.364 397.025L185.361 397.022L185.358 397.018L185.354 397.015L185.351 397.011L185.348 397.008L185.345 397.004L185.342 397.001L185.339 396.998L185.336 396.994L185.333 396.991L185.33 396.987L185.326 396.984L185.323 396.98L185.32 396.977L185.317 396.973L185.314 396.97L185.311 396.966L185.308 396.963L185.305 396.959L185.301 396.956L185.298 396.953L185.295 396.949L185.292 396.946L185.289 396.942L185.286 396.939L185.283 396.935L185.28 396.932L185.277 396.928L185.273 396.925L185.27 396.921L185.267 396.918L185.264 396.914L185.261 396.911L185.258 396.907L185.255 396.904L185.252 396.901L185.248 396.897L185.245 396.894L185.242 396.89L185.239 396.887L185.236 396.883L185.233 396.88L185.23 396.876L185.227 396.873L185.224 396.869L185.22 396.866L185.217 396.862L185.214 396.859L185.211 396.856L185.208 396.852L185.205 396.849L185.202 396.845L185.199 396.842L185.195 396.838L185.192 396.835L185.189 396.831L185.186 396.828L185.183 396.824L185.18 396.821L185.177 396.817L185.174 396.814L185.171 396.811L185.167 396.807L185.164 396.804L185.161 396.8L185.158 396.797L185.155 396.793L185.152 396.79L185.149 396.786L185.146 396.783L185.142 396.779L185.139 396.776L185.136 396.772L185.133 396.769L185.13 396.766L185.127 396.762L185.124 396.759L185.121 396.755L185.118 396.752L185.114 396.748L185.111 396.745L185.108 396.741L185.105 396.738L185.102 396.734L185.099 396.731L185.096 396.727L185.093 396.724L185.089 396.721L185.086 396.717L185.083 396.714L185.08 396.71L185.077 396.707L185.074 396.703L185.071 396.7L185.068 396.696L185.065 396.693L185.061 396.689L185.058 396.686L185.055 396.682L185.052 396.679L185.049 396.676L185.046 396.672L185.043 396.669L185.04 396.665L185.036 396.662L185.033 396.658L185.03 396.655L185.027 396.651L185.024 396.648L185.021 396.644L185.018 396.641L185.015 396.637L185.012 396.634L185.008 396.63L185.005 396.627L185.002 396.624L184.999 396.62L184.996 396.617L184.993 396.613L184.99 396.61L184.987 396.606L184.983 396.603L184.98 396.599L184.977 396.596L184.974 396.592L184.971 396.589L184.968 396.585L184.965 396.582L184.962 396.579L184.959 396.575L184.955 396.572L184.952 396.568L184.949 396.565L184.946 396.561L184.943 396.558L184.94 396.554L184.937 396.551L184.934 396.547L184.93 396.544L184.927 396.54L184.924 396.537L184.921 396.534L184.918 396.53L184.915 396.527L184.912 396.523L184.909 396.52L184.906 396.516L184.902 396.513L184.899 396.509L184.896 396.506L184.893 396.502L184.89 396.499L184.887 396.495L184.884 396.492L184.881 396.489L184.877 396.485L184.874 396.482L184.871 396.478L184.868 396.475L184.865 396.471L184.862 396.468L184.859 396.464L184.856 396.461L184.853 396.457L184.849 396.454L184.846 396.45L184.843 396.447L184.84 396.444L184.837 396.44L184.834 396.437L184.831 396.433L184.828 396.43L184.824 396.426L184.821 396.423L184.818 396.419L184.815 396.416L184.812 396.412L184.809 396.409L184.806 396.405L184.803 396.402L184.8 396.399L184.796 396.395L184.793 396.392L184.79 396.388L184.787 396.385L184.784 396.381L184.781 396.378L184.778 396.374L184.775 396.371L184.771 396.367L184.768 396.364L184.765 396.36L184.762 396.357L184.759 396.354L184.756 396.35L184.753 396.347L184.75 396.343L184.747 396.34L184.743 396.336L184.74 396.333L184.737 396.329L184.734 396.326L184.731 396.322L184.728 396.319L184.725 396.315L184.722 396.312L184.718 396.308L184.715 396.305L184.712 396.302L184.709 396.298L184.706 396.295L184.703 396.291L184.7 396.288L184.697 396.284L184.694 396.281L184.69 396.277L184.687 396.274L184.684 396.27L184.681 396.267L184.678 396.263L184.675 396.26L184.672 396.257L184.669 396.253L184.665 396.25L184.662 396.246L184.659 396.243L184.656 396.239L184.653 396.236L184.65 396.232L184.647 396.229L184.644 396.225L184.641 396.222L184.637 396.218L184.634 396.215L184.631 396.212L184.628 396.208L184.625 396.205L184.622 396.201L184.619 396.198L184.616 396.194L184.612 396.191L184.609 396.187L184.606 396.184L184.603 396.18L184.6 396.177L184.597 396.173L184.594 396.17L184.591 396.167L184.588 396.163L184.584 396.16L184.581 396.156L184.578 396.153L184.575 396.149L184.572 396.146L184.569 396.142L184.566 396.139L184.563 396.135L184.559 396.132L184.556 396.128L184.553 396.125L184.55 396.122L184.547 396.118L184.544 396.115L184.541 396.111L184.538 396.108L184.535 396.104L184.531 396.101L184.528 396.097L184.525 396.094L184.522 396.09L184.519 396.087L184.516 396.083L184.513 396.08L184.51 396.077L184.506 396.073L184.503 396.07L184.5 396.066L184.497 396.063L184.494 396.059L184.491 396.056L184.488 396.052L184.485 396.049L184.482 396.045L184.478 396.042L184.475 396.038L184.472 396.035L184.469 396.031L184.466 396.028L184.463 396.025L184.46 396.021L184.457 396.018L184.453 396.014L184.45 396.011L184.447 396.007L184.444 396.004L184.441 396L184.438 395.997L184.435 395.993L184.432 395.99L184.429 395.986L184.425 395.983L184.422 395.98L184.419 395.976L184.416 395.973L184.413 395.969L184.41 395.966L184.407 395.962L184.404 395.959L184.4 395.955L184.397 395.952L184.394 395.948L184.391 395.945L184.388 395.941L184.385 395.938L184.382 395.935L184.379 395.931L184.376 395.928L184.372 395.924L184.369 395.921L184.366 395.917L184.363 395.914L184.36 395.91L184.357 395.907L184.354 395.903L184.351 395.9L184.347 395.896L184.344 395.893L184.341 395.89L184.338 395.886L184.335 395.883L184.332 395.879L184.329 395.876L184.326 395.872L184.323 395.869L184.319 395.865L184.316 395.862L184.313 395.858L184.31 395.855L184.307 395.851L184.304 395.848L184.301 395.845L184.298 395.841L184.294 395.838L184.291 395.834L184.288 395.831L184.285 395.827L184.282 395.824L184.279 395.82L184.276 395.817L184.273 395.813L184.27 395.81L184.266 395.806L184.263 395.803L184.26 395.8L184.257 395.796L184.254 395.793L184.251 395.789L184.248 395.786L184.245 395.782L184.241 395.779L184.238 395.775L184.235 395.772L184.232 395.768L184.229 395.765L184.226 395.761L184.223 395.758L184.22 395.754L184.217 395.751L184.213 395.748L184.21 395.744L184.207 395.741L184.204 395.737L184.201 395.734L184.198 395.73L184.195 395.727L184.192 395.723L184.188 395.72L184.185 395.716L184.182 395.713L184.179 395.709L184.176 395.706L184.173 395.703L184.154 395.682C182.146 393.452 180.096 391.174 177.524 389.353L301.71 212.562C309.287 217.371 318.025 221.131 327.47 222.184Z" stroke="#E0E0E0"/>
<path opacity="0.5" d="M380.32 179.361L588.333 198.655C587.57 204.568 588.369 210.054 590.2 215.564L489.664 285.875C484.274 282.277 478.246 279.189 471.49 278.835C464.786 278.484 458.557 279.81 452.869 281.72L374.644 199.582L373.816 198.663C376.825 192.816 379.333 186.398 380.32 179.361Z" stroke="#E0E0E0"/>
<path d="M504.61 319.712L504.763 319.574L504.774 319.367C505.004 314.98 504.734 309.988 503.335 305.938L602.603 236.75C610.139 244.934 621.118 249.943 632.83 251.118C641.156 252.111 650.154 250.404 657.644 246.963L749.279 443.311C746.54 443.867 743.816 445.383 741.576 447.4L741.573 447.403L741.569 447.406L741.566 447.41L741.562 447.413L741.559 447.416L741.555 447.419L741.552 447.422L741.548 447.425L741.545 447.428L741.542 447.431L741.538 447.435L741.535 447.438L741.531 447.441L741.528 447.444L741.524 447.447L741.521 447.45L741.517 447.453L741.514 447.456L741.51 447.459L741.507 447.463L741.503 447.466L741.5 447.469L741.496 447.472L741.493 447.475L741.49 447.478L741.486 447.481L741.483 447.484L741.479 447.488L741.476 447.491L741.472 447.494L741.469 447.497L741.465 447.5L741.462 447.503L741.458 447.506L741.455 447.51L741.451 447.513L741.448 447.516L741.444 447.519L741.441 447.522L741.437 447.525L741.434 447.528L741.43 447.531L741.427 447.535L741.423 447.538L741.42 447.541L741.416 447.544L741.413 447.547L741.409 447.55L741.406 447.553L741.402 447.557L741.399 447.56L741.395 447.563L741.392 447.566L741.388 447.569L741.385 447.572L741.381 447.576L741.378 447.579L741.374 447.582L741.371 447.585L741.367 447.588L741.364 447.591L741.36 447.594L741.357 447.598L741.353 447.601L741.35 447.604L741.346 447.607L741.343 447.61L741.339 447.613L741.336 447.617L741.332 447.62L741.329 447.623L741.325 447.626L741.322 447.629L741.318 447.633L741.315 447.636L741.311 447.639L741.308 447.642L741.304 447.645L741.3 447.648L741.297 447.652L741.293 447.655L741.29 447.658L741.286 447.661L741.283 447.664L741.279 447.668L741.276 447.671L741.272 447.674L741.268 447.677L741.265 447.68L741.261 447.684L741.258 447.687L741.254 447.69L741.251 447.693L741.247 447.697L741.243 447.7L741.24 447.703L741.236 447.706L741.233 447.709L741.229 447.713L741.225 447.716L741.222 447.719L741.218 447.722L741.215 447.726L741.211 447.729L741.207 447.732L741.204 447.735L741.2 447.739L741.197 447.742L741.193 447.745L741.189 447.748L741.186 447.752L741.182 447.755L741.179 447.758L741.175 447.762L741.171 447.765L741.168 447.768L741.164 447.771L741.16 447.775L741.157 447.778L741.153 447.781L741.149 447.785L741.146 447.788L741.142 447.791L741.138 447.794L741.135 447.798L741.131 447.801L741.127 447.804L741.124 447.808L741.12 447.811L741.116 447.814L741.113 447.818L741.109 447.821L741.105 447.824L741.102 447.828L741.098 447.831L741.094 447.834L741.09 447.838L741.087 447.841L741.083 447.844L741.079 447.848L741.076 447.851L741.072 447.854L741.068 447.858L741.064 447.861L741.061 447.864L741.057 447.868L741.053 447.871L741.049 447.875L741.046 447.878L741.042 447.881L741.038 447.885L741.034 447.888L741.031 447.891L741.027 447.895L741.023 447.898L741.019 447.902L741.015 447.905L741.012 447.908L741.008 447.912L741.004 447.915L741 447.919L740.996 447.922L740.993 447.926L740.989 447.929L740.985 447.932L740.981 447.936L740.977 447.939L740.974 447.943L740.97 447.946L740.966 447.95L740.962 447.953L740.958 447.957L740.954 447.96L740.95 447.964L740.947 447.967L740.943 447.971L740.939 447.974L740.935 447.978L740.931 447.981L740.927 447.985L740.923 447.988L740.919 447.992L740.915 447.995L740.912 447.999L740.908 448.002L740.904 448.006L740.9 448.009L740.896 448.013L740.892 448.016L740.888 448.02L740.884 448.023L740.88 448.027L740.876 448.03L740.872 448.034L740.868 448.038L740.864 448.041L740.86 448.045L740.856 448.048L740.852 448.052L740.848 448.056L740.844 448.059L740.84 448.063L740.836 448.066L740.832 448.07L740.828 448.074L740.824 448.077L740.82 448.081L740.816 448.084L740.812 448.088L740.808 448.092L740.804 448.095L740.8 448.099L740.796 448.103L740.792 448.106L740.788 448.11L740.784 448.114L740.78 448.117L740.776 448.121L740.772 448.125L740.767 448.128L740.763 448.132L740.759 448.136L740.755 448.139L740.751 448.143L740.747 448.147L740.743 448.151L740.739 448.154L740.734 448.158L740.73 448.162L740.726 448.166L740.722 448.169L740.718 448.173L740.714 448.177L740.709 448.181L740.705 448.184L740.701 448.188L740.697 448.192L740.693 448.196L740.688 448.2L740.684 448.203L740.68 448.207L740.676 448.211L740.672 448.215L740.667 448.219L740.663 448.222L740.659 448.226L740.654 448.23L740.65 448.234L740.646 448.238L740.642 448.242L740.637 448.246L740.633 448.249L740.629 448.253L740.624 448.257L740.62 448.261L740.616 448.265L740.611 448.269L740.607 448.273L740.603 448.277L740.598 448.281L740.594 448.284L740.59 448.288L740.585 448.292L740.581 448.296L740.577 448.3L740.572 448.304L740.568 448.308L740.563 448.312L740.559 448.316L740.555 448.32L740.55 448.324L740.546 448.328L740.541 448.332L740.537 448.336L740.532 448.34L740.528 448.344L740.523 448.348L740.519 448.352L740.514 448.356L740.51 448.36L740.505 448.364L740.501 448.368L740.496 448.372L740.492 448.377L740.487 448.381L740.483 448.385L740.478 448.389L740.474 448.393L740.469 448.397L740.465 448.401L740.46 448.405L740.455 448.409L740.451 448.414L740.446 448.418L740.442 448.422L740.437 448.426L740.432 448.43L740.428 448.434L740.423 448.438L740.418 448.443L740.414 448.447L740.409 448.451L740.404 448.455L740.4 448.459L740.395 448.464L740.39 448.468L740.386 448.472L740.381 448.476L740.376 448.481L740.371 448.485L740.367 448.489L740.362 448.493L740.357 448.498L740.353 448.502L740.348 448.506L740.343 448.511L740.338 448.515L740.333 448.519L740.329 448.524L740.324 448.528L740.319 448.532L740.314 448.537L740.309 448.541L740.304 448.545L740.3 448.55L740.295 448.554L740.29 448.558L740.285 448.563L740.28 448.567L740.275 448.572L740.27 448.576L740.265 448.58L740.26 448.585L740.255 448.589L740.251 448.594L740.246 448.598L740.241 448.603L740.236 448.607L740.231 448.612L740.226 448.616L740.221 448.621L740.216 448.625L740.211 448.63L740.206 448.634L740.201 448.639L740.196 448.643L740.191 448.648L740.186 448.652L740.18 448.657L740.175 448.661L740.17 448.666L740.165 448.671L740.16 448.675L740.155 448.68L740.15 448.684L740.145 448.689L740.14 448.694L740.134 448.698L740.129 448.703L740.124 448.708L740.119 448.712L740.114 448.717L740.109 448.722L740.103 448.726L740.098 448.731L740.093 448.736L740.088 448.74L740.082 448.745L740.077 448.75L740.072 448.755L740.067 448.759L740.061 448.764L740.056 448.769L740.051 448.774L740.045 448.779L740.04 448.783L740.035 448.788L740.029 448.793L740.024 448.798L740.019 448.803L740.013 448.807L740.008 448.812L740.002 448.817L739.997 448.822L739.992 448.827L739.986 448.832L739.981 448.837L739.975 448.842L739.97 448.846L739.964 448.851L739.959 448.856L739.953 448.861L739.948 448.866L739.942 448.871L739.937 448.876L739.931 448.881L739.926 448.886L739.92 448.891L739.915 448.896L739.909 448.901L739.904 448.906L739.898 448.911L739.892 448.916L739.887 448.921L739.881 448.926L739.876 448.931L739.87 448.937L739.864 448.942L739.859 448.947L739.853 448.952L739.847 448.957L739.842 448.962L739.836 448.967L739.83 448.972L739.824 448.978L739.819 448.983L739.813 448.988L739.807 448.993L739.801 448.998L739.796 449.004L739.79 449.009L739.784 449.014L739.778 449.019L739.772 449.024L739.766 449.03L739.761 449.035L739.755 449.04L739.749 449.046L739.743 449.051L739.737 449.056L739.731 449.062L739.725 449.067L739.719 449.072L739.713 449.078L739.707 449.083L739.701 449.088L739.695 449.094L739.689 449.099L739.683 449.104L739.677 449.11L739.671 449.115L739.665 449.121L739.659 449.126L739.653 449.132L739.647 449.137L739.641 449.143L739.635 449.148L739.629 449.154L739.623 449.159L739.617 449.165L739.61 449.17L739.604 449.176L739.598 449.181L739.592 449.187L739.586 449.192L739.58 449.198L739.573 449.204L739.567 449.209L739.561 449.215L739.555 449.22L739.548 449.226L739.542 449.232L739.536 449.237L739.53 449.243L739.523 449.249L739.517 449.254L739.511 449.26L739.504 449.266L739.498 449.272L739.491 449.277L739.485 449.283L739.479 449.289L739.474 449.293L504.082 321.83C504.108 321.381 504.14 320.967 504.212 320.605C504.301 320.152 504.435 319.869 504.61 319.712Z" stroke="#E0E0E0"/>
<path opacity="0.5" d="M589.995 703.966L589.983 703.964C581.603 702.964 574.165 705.328 567.796 708.865L475.5 611.088C477.903 606.755 479.232 602.357 480.045 597.412L480.05 597.385L480.051 597.357L480.057 597.252L480.057 597.239L480.058 597.232L480.058 597.226L480.059 597.219L480.059 597.212L480.059 597.206L480.06 597.199L480.06 597.186L480.061 597.179L480.061 597.173L480.062 597.147L480.063 597.133L480.064 597.12L480.064 597.107L480.065 597.1L480.065 597.094L480.068 597.041L480.071 596.989L480.071 596.975L480.072 596.962L480.073 596.949L480.073 596.936L480.076 596.883L480.079 596.831L480.082 596.778L480.082 596.771L480.082 596.765L480.083 596.758L480.083 596.752L480.083 596.745L480.084 596.739L480.084 596.725L480.09 596.62L480.093 596.567L480.093 596.554L480.094 596.541L480.095 596.528L480.095 596.521L480.095 596.515L480.097 596.489L480.098 596.475L480.098 596.469L480.098 596.462L480.1 596.436L480.1 596.423L480.101 596.416L480.101 596.41L480.101 596.403L480.102 596.396L480.102 596.383L480.103 596.377L480.103 596.37L480.104 596.357L480.104 596.35L480.104 596.344L480.105 596.337L480.105 596.331L480.106 596.317L480.107 596.304L480.108 596.278L480.108 596.271L480.109 596.265L480.109 596.258L480.109 596.252L480.11 596.245L480.11 596.238L480.111 596.225L480.111 596.219L480.111 596.212L480.112 596.206L480.112 596.199L480.112 596.192L480.113 596.186L480.113 596.173L480.114 596.159L480.114 596.153L480.115 596.146L480.116 596.133L480.116 596.127L480.116 596.12L480.117 596.107L480.118 596.094L480.123 595.988L480.123 595.982L480.124 595.975L480.124 595.962L480.125 595.949L480.126 595.942L480.126 595.936L480.126 595.929L480.127 595.923L480.127 595.909L480.128 595.903L480.128 595.896L480.128 595.89L480.129 595.883L480.14 595.673L480.142 595.62L480.144 595.594L480.145 595.567L480.151 595.462L480.151 595.449L480.152 595.436L480.152 595.429L480.153 595.422L480.153 595.416L480.153 595.409L480.154 595.403L480.154 595.396L480.155 595.39L480.155 595.383L480.156 595.357L480.159 595.304L480.162 595.251L480.167 595.146L480.168 595.133L480.169 595.12L480.169 595.107L480.17 595.1L480.17 595.093L480.17 595.087L480.171 595.08L480.171 595.067L480.172 595.061L480.172 595.054L480.173 595.041L480.184 594.83L480.185 594.804L480.186 594.791L480.186 594.784L480.187 594.778L480.187 594.771L480.187 594.764L480.188 594.758L480.188 594.751L480.189 594.738L480.189 594.732L480.189 594.725L480.195 594.62L480.206 594.409L480.209 594.356L480.209 594.343L480.21 594.337L480.21 594.333L735.559 512.776L735.562 512.779L735.566 512.783L735.569 512.786L735.572 512.79L735.575 512.793L735.578 512.797L735.581 512.801L735.585 512.804L735.588 512.808L735.591 512.811L735.594 512.815L735.597 512.818L735.601 512.822L735.604 512.825L735.607 512.829L735.61 512.832L735.613 512.836L735.617 512.84L735.62 512.843L735.623 512.847L735.626 512.85L735.629 512.854L735.633 512.857L735.636 512.861L735.639 512.865L735.642 512.868L735.646 512.872L735.649 512.875L735.652 512.879L735.655 512.883L735.658 512.886L735.662 512.89L735.665 512.893L735.668 512.897L735.671 512.901L735.675 512.904L735.678 512.908L735.681 512.911L735.684 512.915L735.688 512.919L735.691 512.922L735.694 512.926L735.698 512.929L735.701 512.933L735.704 512.937L735.707 512.94L735.711 512.944L735.714 512.948L735.717 512.951L735.72 512.955L735.724 512.959L735.727 512.962L735.73 512.966L735.734 512.97L735.737 512.973L735.74 512.977L735.744 512.981L735.747 512.984L735.75 512.988L735.753 512.992L735.757 512.995L735.76 512.999L735.763 513.003L735.767 513.006L735.77 513.01L735.773 513.014L735.777 513.017L735.78 513.021L735.783 513.025L735.787 513.029L735.79 513.032L735.793 513.036L735.797 513.04L735.8 513.043L735.804 513.047L735.807 513.051L735.81 513.055L735.814 513.058L735.817 513.062L735.82 513.066L735.824 513.07L735.827 513.073L735.831 513.077L735.834 513.081L735.837 513.085L735.841 513.089L735.844 513.092L735.848 513.096L735.851 513.1L735.854 513.104L735.858 513.107L735.861 513.111L735.865 513.115L735.868 513.119L735.872 513.123L735.875 513.127L735.878 513.13L735.882 513.134L735.885 513.138L735.889 513.142L735.892 513.146L735.896 513.15L735.899 513.153L735.903 513.157L735.906 513.161L735.91 513.165L735.913 513.169L735.917 513.173L735.92 513.177L735.924 513.18L735.927 513.184L735.931 513.188L735.934 513.192L735.938 513.196L735.941 513.2L735.945 513.204L735.948 513.208L735.952 513.212L735.955 513.216L735.959 513.22L735.962 513.224L735.966 513.227L735.969 513.231L735.973 513.235L735.977 513.239L735.98 513.243L735.984 513.247L735.987 513.251L735.991 513.255L735.994 513.259L735.998 513.263L736.002 513.267L736.005 513.271L736.009 513.275L736.012 513.279L736.016 513.283L736.02 513.287L736.023 513.291L736.027 513.295L736.031 513.299L736.034 513.303L736.038 513.307L736.041 513.311L736.045 513.316L736.049 513.32L736.052 513.324L736.056 513.328L736.06 513.332L736.063 513.336L736.067 513.34L736.071 513.344L736.075 513.348L736.078 513.352L736.082 513.356L736.086 513.361L736.089 513.365L736.093 513.369L736.097 513.373L736.101 513.377L736.104 513.381L736.108 513.385L736.112 513.39L736.116 513.394L736.119 513.398L736.123 513.402L736.127 513.406L736.131 513.41L736.134 513.415L736.138 513.419L736.142 513.423L736.146 513.427L736.15 513.432L736.153 513.436L736.157 513.44L736.161 513.444L736.165 513.449L736.169 513.453L736.173 513.457L736.176 513.461L736.18 513.466L736.184 513.47L736.188 513.474L736.192 513.478L736.196 513.483L736.2 513.487L736.203 513.491L736.207 513.496L736.211 513.5L736.215 513.504L736.219 513.509L736.223 513.513L736.227 513.517L736.231 513.522L736.235 513.526L736.239 513.531L736.243 513.535L736.247 513.539L736.251 513.544L736.255 513.548L736.259 513.553L736.263 513.557L736.267 513.561L736.271 513.566L736.275 513.57L736.279 513.575L736.283 513.579L736.287 513.584L736.291 513.588L736.295 513.593L736.299 513.597L736.303 513.602L736.307 513.606L736.311 513.611L736.315 513.615L736.319 513.62L736.323 513.624L736.327 513.629L736.331 513.633L736.335 513.638L736.339 513.642L736.344 513.647L736.348 513.652L736.352 513.656L736.356 513.661L736.36 513.665L736.364 513.67L736.368 513.675L736.373 513.679L736.377 513.684L736.381 513.688L736.385 513.693L736.389 513.698L736.393 513.702L736.398 513.707L736.402 513.712L736.406 513.716L736.41 513.721L736.415 513.726L736.419 513.731L736.423 513.735L736.427 513.74L736.432 513.745L736.436 513.749L736.44 513.754L736.444 513.759L736.449 513.764L736.453 513.769L736.457 513.773L736.462 513.778L736.466 513.783L736.47 513.788L736.475 513.793L736.479 513.797L736.483 513.802L736.488 513.807L736.492 513.812L736.496 513.817L736.501 513.822L736.505 513.827L736.51 513.831L736.514 513.836L736.518 513.841L736.523 513.846L736.527 513.851L736.532 513.856L736.536 513.861L736.541 513.866L736.545 513.871L736.55 513.876L736.554 513.881L736.559 513.886L736.563 513.891L736.568 513.896L736.572 513.901L736.577 513.906L736.581 513.911L736.586 513.916L736.59 513.921L736.595 513.926L736.599 513.931L736.604 513.936L736.608 513.941L736.613 513.946L736.618 513.951L736.622 513.956L736.627 513.962L736.631 513.967L736.636 513.972L736.641 513.977L736.645 513.982L736.65 513.987L736.655 513.993L736.659 513.998L736.664 514.003L736.669 514.008L736.673 514.013L736.678 514.019L736.683 514.024L736.688 514.029L736.692 514.034L736.697 514.04L736.702 514.045L736.707 514.05L736.711 514.055L736.716 514.061L736.721 514.066L736.726 514.071L736.731 514.077L736.735 514.082L736.74 514.087L736.745 514.093L736.75 514.098L736.755 514.104L736.76 514.109L736.764 514.114L736.769 514.12L736.774 514.125L736.779 514.131L736.784 514.136L736.789 514.142L736.794 514.147L736.799 514.152L736.804 514.158L736.809 514.163L736.814 514.169L736.819 514.174L736.824 514.18L736.828 514.186L736.833 514.191L736.839 514.197L736.844 514.202L736.849 514.208L736.854 514.213L736.859 514.219L736.864 514.225L736.869 514.23L736.874 514.236L736.879 514.241L736.884 514.247L736.889 514.253L736.894 514.258L736.899 514.264L736.904 514.27L736.91 514.276L736.915 514.281L736.92 514.287L736.925 514.293L736.93 514.299L736.935 514.304L736.941 514.31L736.946 514.316L736.951 514.322L736.956 514.327L736.962 514.333L736.967 514.339L736.972 514.345L736.977 514.351L736.983 514.357L736.988 514.363L736.993 514.368L736.999 514.374L737.004 514.38L737.009 514.386L737.015 514.392L737.02 514.398L737.025 514.404L737.031 514.41L737.036 514.416L737.041 514.422L737.047 514.428L737.052 514.434L737.058 514.44L737.063 514.446L737.069 514.452L737.074 514.458L737.079 514.464L737.085 514.47L737.09 514.476L737.096 514.483L737.101 514.489L737.107 514.495L737.112 514.501L737.118 514.507L737.124 514.513L737.129 514.519L737.135 514.526L737.14 514.532L737.146 514.538L737.151 514.544L737.157 514.55L737.163 514.557L737.168 514.563L737.174 514.569L737.18 514.576L737.185 514.582L737.191 514.588L737.197 514.594L737.202 514.601L737.208 514.607L737.214 514.614L737.22 514.62L737.225 514.626L737.231 514.633L737.237 514.639L737.243 514.646L737.248 514.652L737.254 514.658L737.26 514.665L737.266 514.671L737.272 514.678L737.278 514.684L737.283 514.691L737.289 514.697L737.295 514.704L737.301 514.71L737.307 514.717L737.313 514.724L737.319 514.73L737.325 514.737L737.331 514.743L737.337 514.75L737.343 514.757L737.349 514.763L737.355 514.77L737.361 514.777L737.367 514.783L737.373 514.79L737.379 514.797L737.385 514.804L737.391 514.81L737.397 514.817L737.403 514.824L737.409 514.831L737.415 514.837L737.422 514.844L737.428 514.851L737.434 514.858L737.44 514.865L737.446 514.872L737.452 514.878L737.459 514.885L737.465 514.892L737.471 514.899L737.489 514.919C739.497 517.149 741.546 519.425 744.116 521.246L609.713 709.417C602.141 706.821 596.102 704.845 589.995 703.966L589.995 703.966Z" stroke="#E0E0E0"/>
<path opacity="0.5" d="M166.311 410.632L166.329 410.658L166.35 410.681C170.495 415.285 172.364 421.996 172.018 428.632C170.74 442.366 158.635 452.192 145.516 450.405L145.495 450.402L145.475 450.401C138.89 450.056 132.47 446.413 128.893 441.28L128.875 441.255L128.854 441.232C124.709 436.628 122.84 429.917 123.186 423.282C124.403 410.696 136.489 400.829 149.71 401.511C156.87 402.444 162.748 405.52 166.311 410.632Z" stroke="#E0E0E0"/>
<path d="M356.399 176.988L356.398 176.997L356.397 177.007C355.124 190.746 343.017 200.578 329.895 198.79L329.874 198.787L329.853 198.786C323.269 198.441 316.849 194.798 313.272 189.665L313.254 189.64L313.233 189.616C309.088 185.012 307.219 178.301 307.565 171.665C308.843 157.931 320.948 148.105 334.067 149.892L334.087 149.895L334.108 149.896C340.693 150.241 347.113 153.884 350.69 159.017L350.707 159.043L350.728 159.066C354.898 163.697 357.323 169.878 356.399 176.988Z" stroke="#E0E0E0"/>
<path opacity="0.5" d="M634.701 227.13L634.691 227.129L634.68 227.128C628.095 226.783 621.675 223.14 618.098 218.007L618.08 217.982L618.06 217.959C613.914 213.355 612.045 206.644 612.391 200.008C613.669 186.273 625.774 176.447 638.893 178.235L638.914 178.238L638.934 178.239C645.519 178.583 651.939 182.227 655.516 187.359L655.534 187.385L655.555 187.408C659.698 192.01 661.567 198.716 661.223 205.348C659.418 218.505 647.298 228.34 634.701 227.13Z" stroke="#E0E0E0"/>
<path d="M774.414 460.67L774.435 460.673L774.455 460.674C781.04 461.019 787.46 464.662 791.037 469.795L791.055 469.82L791.076 469.844C795.221 474.448 797.09 481.158 796.744 487.794C795.466 501.529 783.361 511.355 770.242 509.568L770.239 509.567C763.115 508.643 757.778 505.057 753.58 500.394C749.435 495.79 747.566 489.079 747.912 482.443C749.19 468.709 761.295 458.883 774.414 460.67Z" stroke="#E0E0E0"/>
<path opacity="0.5" d="M561.522 740.175L561.523 740.166L561.524 740.157C562.797 726.417 574.904 716.586 588.026 718.374L588.047 718.377L588.068 718.378C594.653 718.723 601.072 722.366 604.649 727.499L604.667 727.524L604.688 727.547C608.834 732.152 610.702 738.862 610.356 745.498C609.078 759.233 596.973 769.059 583.854 767.271L583.834 767.269L583.813 767.267C577.228 766.923 570.809 763.279 567.231 758.147L567.214 758.121L567.193 758.098C563.023 753.467 560.598 747.285 561.522 740.175Z" stroke="#E0E0E0"/>
</g>
</svg>
