<svg width="837" height="852" viewBox="0 0 837 852" fill="none" xmlns="http://www.w3.org/2000/svg">
<g opacity="0.8">
<path d="M57.5526 498L57.5594 498.008L57.5665 498.015C63.7762 504.224 66.8825 513.547 65.8486 521.817C64.8059 530.158 61.6838 538.46 55.475 544.676C41.969 556.088 21.2307 556.065 8.79835 542.606C2.58057 535.349 0.5 527.053 0.5 518.72C0.5 510.466 4.62958 502.169 10.8697 495.924C24.378 484.509 45.121 484.535 57.5526 498Z" stroke="#E0E0E0"/>
<path d="M209.766 152.927L521.833 289.504V289.509V289.515V289.521V289.527V289.533V289.539V289.545V289.552V289.558V289.564V289.57V289.576V289.582V289.588V289.594V289.6V289.606V289.612V289.618V289.624V289.63V289.636V289.642V289.648V289.655V289.661V289.667V289.673V289.679V289.685V289.691V289.697V289.703V289.709V289.715V289.721V289.727V289.733V289.738V289.744V289.75V289.756V289.762V289.768V289.774V289.78V289.786V289.792V289.798V289.804V289.81V289.816V289.822V289.828V289.833V289.839V289.845V289.851V289.857V289.863V289.869V289.875V289.88V289.886V289.892V289.898V289.904V289.91V289.915V289.921V289.927V289.933V289.939V289.944V289.95V289.956V289.962V289.968V289.973V289.979V289.985V289.991V289.996V290.002V290.008V290.014V290.019V290.025V290.031V290.036V290.042V290.048V290.053V290.059V290.065V290.07V290.076V290.082V290.087V290.093V290.098V290.104V290.11V290.115V290.121V290.126V290.132V290.138V290.143V290.149V290.154V290.16V290.165V290.171V290.176V290.182V290.187V290.193V290.198V290.204V290.209V290.215V290.22V290.226V290.231V290.236V290.242V290.247V290.253V290.258V290.263V290.269V290.274V290.279V290.285V290.29V290.295V290.301V290.306V290.311V290.317V290.322V290.327V290.332V290.338V290.343V290.348V290.353V290.359V290.364V290.369V290.374V290.379V290.385V290.39V290.395V290.4V290.405V290.41V290.415V290.42V290.426V290.431V290.436V290.441V290.446V290.451V290.456V290.461V290.466V290.471V290.476V290.481V290.486V290.491V290.496V290.501V290.505V290.51V290.515V290.52V290.525V290.53V290.535V290.54V290.544V290.549V290.554V290.559V290.564V290.568V290.573V290.578V290.583V290.587V290.592V290.597V290.602V290.606V290.611V290.616V290.62V290.625V290.629V290.634V290.639V290.643V290.648V290.652V290.657V290.661V290.666V290.67V290.675V290.679V290.684V290.688V290.693V290.697V290.702V290.706V290.71V290.715V290.719V290.724V290.728V290.732V290.737V290.741V290.745V290.749V290.754V290.758V290.762V290.766V290.771V290.775V290.779V290.783V290.787V290.792V290.796V290.8V290.804V290.808V290.812V290.816V290.82V290.824V290.828V290.832V290.836V290.84V290.844V290.848V290.852V290.856V290.86V290.864V290.868V290.871V290.875V290.879V290.883V290.887V290.89V290.894V290.898V290.902V290.905V290.909V290.913V290.917V290.92V290.924V290.927V290.931V290.935V290.938V290.942V290.945V290.949V290.952V290.956V290.959V290.963V290.966V290.97V290.973V290.977V290.98V290.983V290.987V290.99V290.993V290.997V291V291.003V291.007V291.01V291.013V291.016V291.019V291.023V291.026V291.029V291.032V291.035V291.038V291.041V291.044V291.047V291.05V291.053V291.056V291.059V291.062V291.065V291.068V291.071V291.074V291.077V291.08V291.083V291.085V291.088V291.091V291.094V291.096V291.099V291.102V291.105V291.107V291.11V291.113V291.115V291.118V291.12V291.123V291.125V291.128V291.131V291.133V291.135V291.138V291.14V291.143V291.145V291.148V291.15V291.152V291.155V291.157V291.159V291.161V291.164V291.166V291.168V291.17V291.172V291.175V291.177V291.179V291.181V291.183V291.185V291.187V291.189V291.191V291.193V291.195V291.197V291.199V291.201V291.203V291.204V291.206V291.208V291.21V291.212V291.213V291.215V291.217V291.218V291.22V291.222V291.223V291.225V291.227V291.228V291.23V291.231V291.233V291.234V291.236V291.237V291.238V291.24V291.241V291.243V291.244V291.245V291.247V291.248V291.249V291.25V291.251V291.253V291.254V291.255V291.256V291.257V291.258V291.259V291.26V291.261V291.262V291.263V291.264V291.265V291.266V291.267V291.268V291.268V291.269V291.27V291.271V291.272V291.272V291.273V291.274V291.274V291.275V291.275V291.276V291.277V291.277V291.278V291.278V291.279V291.279V291.279V291.28V291.28V291.281V291.281V291.281V291.281V291.282V291.282V291.282V291.283C521.833 298.595 522.863 305.928 525.948 313.267L424.056 407.794L322.185 502.3C313.905 497.205 305.616 495.115 297.329 495.056L187.012 174.656C191.161 172.549 196.277 169.422 199.413 165.258C203.512 161.159 206.653 158.016 209.766 152.927Z" stroke="#8B00FF"/>
<path d="M78.6444 564.038C85.7767 557.76 89.9179 549.51 93.0202 540.314L250.237 554.986C252.356 563.318 255.548 570.668 261.866 576.986C268.16 583.279 275.48 587.493 282.79 590.653L285.941 716.684L285.941 716.687L286.988 771.121C286.264 771.48 285.501 771.843 284.722 772.215C283.343 772.872 281.911 773.554 280.547 774.277C278.464 775.379 276.46 776.612 274.879 778.083L78.6444 564.038Z" stroke="#E0E0E0"/>
<path opacity="0.5" d="M153.63 182.261L153.69 182.276H153.751H153.758H153.764H153.77H153.776H153.782H153.788H153.795H153.801H153.807H153.813H153.819H153.825H153.832H153.838H153.844H153.85H153.856H153.862H153.869H153.875H153.881H153.887H153.893H153.899H153.906H153.912H153.918H153.924H153.93H153.937H153.943H153.949H153.955H153.961H153.967H153.974H153.98H153.986H153.992H153.998H154.004H154.011H154.017H154.023H154.029H154.035H154.041H154.048H154.054H154.06H154.066H154.072H154.078H154.085H154.091H154.097H154.103H154.109H154.115H154.122H154.128H154.134H154.14H154.146H154.152H154.159H154.165H154.171H154.177H154.183H154.189H154.196H154.202H154.208H154.214H154.22H154.227H154.233H154.239H154.245H154.251H154.257H154.264H154.27H154.276H154.282H154.288H154.294H154.301H154.307H154.313H154.319H154.325H154.331H154.338H154.344H154.35H154.356H154.362H154.368H154.375H154.381H154.387H154.393H154.399H154.405H154.412H154.418H154.424H154.43H154.436H154.442H154.449H154.455H154.461H154.467H154.473H154.48H154.486H154.492H154.498H154.504H154.51H154.517H154.523H154.529H154.535H154.541H154.547H154.554H154.56H154.566H154.572H154.578H154.584H154.591H154.597H154.603H154.609H154.615H154.621H154.628H154.634H154.64H154.646H154.652H154.658H154.665H154.671H154.677H154.683H154.689H154.695H154.702H154.708H154.714H154.72H154.726H154.732H154.739H154.745H154.751H154.757H154.763H154.77H154.776H154.782H154.788H154.794H154.8H154.807H154.813H154.819H154.825H154.831H154.837H154.844H154.85H154.856H154.862H154.868H154.874H154.881H154.887H154.893H154.899H154.905H154.911H154.918H154.924H154.93H154.936H154.942H154.948H154.955H154.961H154.967H154.973H154.979H154.985H154.992H154.998H155.004H155.01H155.016H155.023H155.029H155.035H155.041H155.047H155.053H155.06H155.066H155.072H155.078H155.084H155.09H155.097H155.103H155.109H155.115H155.121H155.127H155.134H155.14H155.146H155.152H155.158H155.164H155.171H155.177H155.183H155.189H155.195H155.201H155.208H155.214H155.22H155.226H155.232H155.238H155.245H155.251H155.257H155.263H155.269H155.275H155.282H155.288H155.294H155.3H155.306H155.313H155.319H155.325H155.331H155.337H155.343H155.35H155.356H155.362H155.368H155.374H155.38H155.387H155.393H155.399H155.405H155.411H155.417H155.424H155.43H155.436H155.442H155.448H155.454H155.461H155.467H155.473H155.479H155.485H155.491H155.498H155.504H155.51H155.516H155.522H155.528H155.535H155.541H155.547H155.553H155.559H155.565H155.572H155.578H155.584H155.59H155.596H155.603H155.609H155.615H155.621H155.627H155.633H155.64H155.646H155.652H155.658H155.664H155.67H155.677H155.683H155.689H155.695H155.701H155.707H155.714H155.72H155.726H155.732H155.738H155.744H155.751H155.757H155.763H155.769H155.775H155.781H155.788H155.794H155.8H155.806H155.812H155.818H155.825H155.831H155.837H155.843H155.849H155.856H155.862H155.868H155.874H155.88H155.886H155.893H155.899H155.905H155.911H155.917H155.923H155.93H155.936H155.942H155.948H155.954H155.96H155.967H155.973H155.979H155.985H155.991H155.997H156.004H156.01H156.016H156.022H156.028H156.034H156.041H156.047H156.053H156.059H156.065H156.071H156.078H156.084H156.09H156.096H156.102H156.108H156.115H156.121H156.127H156.133H156.139H156.146H156.152H156.158H156.164H156.17H156.176H156.183H156.189H156.195H156.201H156.207H156.213H156.22H156.226H156.232H156.238H156.244H156.25H156.257H156.263H156.269H156.275H156.281H156.287H156.294H156.3H156.306H156.312H156.318H156.324H156.331H156.337H156.343H156.349H156.355H156.361H156.368H156.374H156.38H156.386H156.392H156.399H156.405H156.411H156.417H156.423H156.429H156.436H156.442H156.448H156.454H156.46H156.466H156.473H156.479H156.485H156.491H156.497H156.503H156.51H156.516H156.522H156.528H156.534H156.54H156.547H156.553H156.554L267.964 505.952L267.963 505.953L267.957 505.959L267.95 505.966L267.944 505.972L267.938 505.978L267.932 505.984L267.926 505.99L267.919 505.997L267.913 506.003L267.907 506.009L267.901 506.015L267.895 506.021L267.889 506.027L267.882 506.034L267.876 506.04L267.87 506.046L267.864 506.052L267.858 506.058L267.852 506.064L267.845 506.071L267.839 506.077L267.833 506.083L267.827 506.089L267.821 506.095L267.815 506.101L267.808 506.108L267.802 506.114L267.796 506.12L267.79 506.126L267.784 506.132L267.778 506.138L267.771 506.145L267.765 506.151L267.759 506.157L267.753 506.163L267.747 506.169L267.741 506.175L267.734 506.182L267.728 506.188L267.722 506.194L267.716 506.2L267.71 506.206L267.704 506.212L267.697 506.219L267.691 506.225L267.685 506.231L267.679 506.237L267.673 506.243L267.667 506.249L267.66 506.256L267.654 506.262L267.648 506.268L267.642 506.274L267.636 506.28L267.629 506.286L267.623 506.293L267.617 506.299L267.611 506.305L267.605 506.311L267.599 506.317L267.592 506.324L267.586 506.33L267.58 506.336L267.574 506.342L267.568 506.348L267.562 506.354L267.555 506.361L267.549 506.367L267.543 506.373L267.537 506.379L267.531 506.385L267.525 506.391L267.518 506.398L267.512 506.404L267.506 506.41L267.5 506.416L267.494 506.422L267.488 506.428L267.481 506.435L267.475 506.441L267.469 506.447L267.463 506.453L267.457 506.459L267.451 506.465L267.444 506.472L267.438 506.478L267.432 506.484L267.426 506.49L267.42 506.496L267.414 506.502L267.407 506.509L267.401 506.515L267.395 506.521L267.389 506.527L267.383 506.533L267.377 506.539L267.37 506.546L267.364 506.552L267.358 506.558L267.352 506.564L267.346 506.57L267.339 506.576L267.333 506.583L267.327 506.589L267.321 506.595L267.315 506.601L267.309 506.607L267.302 506.613L267.296 506.62L267.29 506.626L267.284 506.632L267.278 506.638L267.272 506.644L267.265 506.65L267.259 506.657L267.253 506.663L267.247 506.669L267.241 506.675L267.235 506.681L267.228 506.688L267.222 506.694L267.216 506.7L267.21 506.706L267.204 506.712L267.198 506.718L267.191 506.725L267.185 506.731L267.179 506.737L267.173 506.743L267.167 506.749L267.161 506.755L267.154 506.762L267.148 506.768L267.142 506.774L267.136 506.78L267.13 506.786L267.124 506.792L267.117 506.799L267.111 506.805L267.105 506.811L267.099 506.817L267.093 506.823L267.087 506.829L267.08 506.836L267.074 506.842L267.068 506.848L267.062 506.854L267.056 506.86L267.049 506.866L267.043 506.873L267.037 506.879L267.031 506.885L267.025 506.891L267.019 506.897L267.012 506.903L267.006 506.91L267 506.916L266.994 506.922L266.988 506.928L266.982 506.934L266.975 506.94L266.969 506.947L266.963 506.953L266.957 506.959L266.951 506.965L266.945 506.971L266.938 506.977L266.932 506.984L266.926 506.99L266.92 506.996L266.914 507.002L266.908 507.008L266.901 507.015L266.895 507.021L266.889 507.027L266.883 507.033L266.877 507.039L266.871 507.045L266.864 507.052L266.858 507.058L266.852 507.064L266.846 507.07L266.84 507.076L266.834 507.082L266.827 507.089L266.821 507.095L266.815 507.101L266.809 507.107L266.803 507.113L266.796 507.119L266.79 507.126L266.784 507.132L266.778 507.138L266.772 507.144L266.766 507.15L266.759 507.156L266.753 507.163L266.747 507.169L266.741 507.175L266.735 507.181L266.729 507.187L266.722 507.193L266.716 507.2L266.71 507.206L266.704 507.212L266.698 507.218L266.692 507.224L266.685 507.23L266.679 507.237L266.673 507.243L266.667 507.249L266.661 507.255L266.655 507.261L266.648 507.267L266.642 507.274L266.636 507.28L266.63 507.286L266.624 507.292L266.618 507.298L266.611 507.304L266.605 507.311L266.599 507.317L266.593 507.323L266.587 507.329L266.581 507.335L266.574 507.341L266.568 507.348L266.562 507.354L266.556 507.36L266.55 507.366L266.544 507.372L266.537 507.378L266.531 507.385L266.525 507.391L266.519 507.397L266.513 507.403L266.506 507.409L266.5 507.416L266.494 507.422L266.488 507.428L266.482 507.434L266.476 507.44L266.469 507.446L266.463 507.453L266.457 507.459L266.451 507.465L266.445 507.471L266.439 507.477L266.432 507.483L266.426 507.49L266.42 507.496L266.414 507.502L266.408 507.508L266.402 507.514L266.395 507.52L266.389 507.527L266.383 507.533L266.377 507.539L266.371 507.545L266.365 507.551L266.358 507.557L266.352 507.564L266.346 507.57L266.34 507.576L266.334 507.582L266.328 507.588L266.321 507.594L266.315 507.601L266.309 507.607L266.303 507.613L266.297 507.619L266.291 507.625L266.284 507.631L266.278 507.638L266.272 507.644L266.266 507.65L266.26 507.656L266.253 507.662L266.247 507.668L266.241 507.675L266.235 507.681L266.229 507.687L266.223 507.693L266.216 507.699L266.21 507.705L266.204 507.712L266.198 507.718L266.192 507.724L266.186 507.73L266.179 507.736L266.173 507.743L266.167 507.749L266.161 507.755L266.155 507.761L266.149 507.767L266.142 507.773L266.136 507.78L266.13 507.786L266.124 507.792L266.118 507.798L266.112 507.804L266.105 507.81L266.099 507.817L266.093 507.823L266.087 507.829L266.081 507.835L266.075 507.841L266.068 507.847L266.062 507.854L266.056 507.86L266.05 507.866L266.044 507.872L266.038 507.878L266.031 507.884L266.025 507.891L266.019 507.897L266.013 507.903L266.007 507.909L266.001 507.915L265.994 507.921L265.988 507.928L265.982 507.934L265.976 507.94L265.97 507.946L265.963 507.952L265.957 507.958L265.951 507.965L265.945 507.971L265.939 507.977L265.933 507.983L265.926 507.989L265.92 507.995L265.914 508.002L265.908 508.008L265.902 508.014L265.896 508.02L265.889 508.026L265.883 508.032L265.877 508.039L265.871 508.045L265.865 508.051L265.859 508.057L265.852 508.063L265.846 508.07L265.84 508.076L265.834 508.082L265.828 508.088L265.822 508.094L265.815 508.1L265.809 508.107L265.803 508.113L265.797 508.119L265.791 508.125L265.785 508.131L265.778 508.137L265.772 508.144L265.766 508.15L265.76 508.156L265.754 508.162L265.748 508.168L265.741 508.174L265.735 508.181L265.729 508.187L265.723 508.193L265.717 508.199L265.71 508.205L265.704 508.211L265.698 508.218L265.692 508.224L265.686 508.23L265.68 508.236L265.673 508.242L265.667 508.248L265.661 508.255L265.655 508.261L265.649 508.267L265.643 508.273L265.636 508.279L265.63 508.285L265.624 508.292L265.618 508.298L265.612 508.304L265.606 508.31L265.599 508.316L265.593 508.322L265.587 508.329L265.581 508.335L265.575 508.341L265.569 508.347L265.562 508.353L265.556 508.359L265.55 508.366L265.544 508.372L265.538 508.378L265.532 508.384L265.525 508.39L265.519 508.396L265.513 508.403L265.507 508.409L265.501 508.415L265.495 508.421L265.488 508.427L265.482 508.434L265.476 508.44L265.47 508.446L265.464 508.452L265.458 508.458L265.451 508.464L265.445 508.471L265.439 508.477L265.433 508.483L265.427 508.489L265.42 508.495L265.414 508.501L265.408 508.508L265.402 508.514L265.396 508.52L265.39 508.526L265.383 508.532L265.377 508.538L265.371 508.545L265.365 508.551L265.359 508.557L265.353 508.563L265.346 508.569L265.34 508.575L265.334 508.582L265.328 508.588L265.322 508.594L265.316 508.6L265.309 508.606L265.303 508.612L265.297 508.619L265.291 508.625L265.285 508.631L265.279 508.637L265.272 508.643L265.266 508.649L265.26 508.656L265.254 508.662L265.248 508.668L265.242 508.674L265.235 508.68L265.229 508.686L265.223 508.693L265.217 508.699L265.211 508.705L265.205 508.711L265.198 508.717L265.192 508.723L265.186 508.73L265.18 508.736L265.174 508.742L265.167 508.748L265.161 508.754L265.155 508.761L265.149 508.767L265.143 508.773L265.137 508.779L265.13 508.785L265.124 508.791L265.118 508.798L265.112 508.804L265.106 508.81L265.1 508.816L265.093 508.822L265.087 508.828L265.081 508.835L265.075 508.841L265.069 508.847L265.063 508.853L265.056 508.859L265.05 508.865L265.045 508.871C260.53 512.491 257.536 517.637 254.832 522.287C254.391 523.044 253.958 523.788 253.528 524.511L96.2602 509.834C94.0959 497.269 88.8078 486.771 80.4087 477.323L80.3989 477.312L80.3885 477.302C72.0401 468.954 62.6424 462.644 51.1846 459.413L141.447 180.265C143.431 180.727 145.409 180.974 147.357 181.218L147.371 181.219C149.482 181.483 151.558 181.743 153.63 182.261Z" stroke="#E0E0E0"/>
<path d="M667.431 693.911L345.955 548.951C346.93 540.674 345.878 532.385 341.816 524.099L546.625 336.121C553.896 340.2 562.155 342.266 570.423 342.323L689.156 674.31C685.036 676.433 680.927 679.514 676.862 682.563L676.838 682.58C672.696 685.686 669.563 689.786 667.431 693.911Z" stroke="#E0E0E0"/>
<path d="M514.588 76.8133L514.59 76.8156C524.045 87.3199 535.591 93.6733 549.214 95.8617L549.214 100.699L549.214 100.71L552.367 246.78C547.186 249.888 541.976 253.029 536.764 257.198L536.743 257.215L536.723 257.235L535.143 258.814L533.804 260.154L426.702 213.959L426.7 213.958L219.543 123.537V123.531V123.525V123.518V123.512V123.506V123.5V123.494V123.487V123.481V123.475V123.469V123.463V123.457V123.45V123.444V123.438V123.432V123.426V123.42V123.413V123.407V123.401V123.395V123.389V123.383V123.376V123.37V123.364V123.358V123.352V123.346V123.339V123.333V123.327V123.321V123.315V123.309V123.302V123.296V123.29V123.284V123.278V123.272V123.265V123.259V123.253V123.247V123.241V123.235V123.228V123.222V123.216V123.21V123.204V123.198V123.191V123.185V123.179V123.173V123.167V123.161V123.154V123.148V123.142V123.136V123.13V123.123V123.117V123.111V123.105V123.099V123.093V123.086V123.08V123.074V123.068V123.062V123.056V123.049V123.043V123.037V123.031V123.025V123.019V123.012V123.006V123V122.994V122.988V122.982V122.975V122.969V122.963V122.957V122.951V122.945V122.938V122.932V122.926V122.92V122.914V122.908V122.901V122.895V122.889V122.883V122.877V122.871V122.864V122.858V122.852V122.846V122.84V122.834V122.827V122.821V122.815V122.809V122.803V122.796V122.79V122.784V122.778V122.772V122.766V122.759V122.753V122.747V122.741V122.735V122.729V122.722V122.716V122.71V122.704V122.698V122.692V122.685V122.679V122.673V122.667V122.661V122.655V122.648V122.642V122.636V122.63V122.624V122.618V122.611V122.605V122.599V122.593V122.587V122.581V122.574V122.568V122.562V122.556V122.55V122.544V122.537V122.531V122.525V122.519V122.513V122.507V122.5V122.494V122.488V122.482V122.476V122.47V122.463V122.457V122.451V122.445V122.439V122.432V122.426V122.42V122.414V122.408V122.402V122.395V122.389V122.383V122.377V122.371V122.365V122.358V122.352V122.346V122.34V122.334V122.328V122.321V122.315V122.309V122.303V122.297V122.291V122.284V122.278V122.272V122.266V122.26V122.254V122.247V122.241V122.235V122.229V122.223V122.217V122.21V122.204V122.198V122.192V122.186V122.18V122.173V122.167V122.161V122.155V122.149V122.143V122.136V122.13V122.124V122.118V122.112V122.105V122.099V122.093V122.087V122.081V122.075V122.068V122.062V122.056V122.05V122.044V122.038V122.031V122.025V122.019V122.013V122.007V122.001V121.994V121.988V121.982V121.976V121.97V121.964V121.957V121.951V121.945V121.939V121.933V121.927V121.92V121.914V121.908V121.902V121.896V121.89V121.883V121.877V121.871V121.865V121.859V121.853V121.846V121.84V121.834V121.828V121.822V121.816V121.809V121.803V121.797V121.791V121.785V121.779V121.772V121.766V121.76V121.754V121.748V121.741V121.735V121.729V121.723V121.717V121.711V121.704V121.698V121.692V121.686V121.68V121.674V121.667V121.661V121.655V121.649V121.643V121.637V121.63V121.624V121.618V121.612V121.606V121.6V121.593V121.587V121.581V121.575V121.569V121.563V121.556V121.55V121.544V121.538V121.532V121.526V121.519V121.513V121.507V121.501V121.495V121.489V121.482V121.476V121.47V121.464V121.458V121.452V121.445V121.439V121.433V121.427V121.421V121.414V121.408V121.402V121.396V121.39V121.384V121.377V121.371V121.365V121.359V121.353V121.347V121.34V121.334V121.328V121.322V121.316V121.31V121.303V121.297V121.291V121.285V121.279V121.273V121.266V121.26V121.254V121.248V121.242V121.236V121.229V121.223V121.217V121.211V121.205V121.199V121.192V121.186V121.18V121.174V121.168V121.162V121.155V121.149V121.143V121.137V121.131V121.125V121.118V121.112V121.106V121.1V121.094V121.088V121.081V121.075V121.069V121.063V121.057V121.05V121.044V121.038V121.032V121.026V121.02V121.013V121.007V121.001V120.995V120.989V120.983V120.976V120.97V120.964V120.958V120.952V120.946V120.939V120.933V120.927V120.921V120.915V120.909V120.902V120.896V120.89V120.884V120.878V120.872V120.865V120.859V120.853V120.847V120.841V120.835V120.828V120.822V120.816V120.81V120.804V120.798V120.791V120.785V120.779V120.773V120.767V120.761V120.754V120.748V120.742V120.736V120.73V120.724V120.717V120.711V120.705V120.677C219.543 116.646 219.543 112.55 218.594 108.444L497.757 44.434C500.944 55.9137 506.211 67.3902 514.588 76.8133Z" stroke="#E0E0E0"/>
<path opacity="0.5" d="M604.433 81.3848L792.256 284.92C786.185 290.093 782.076 296.252 778.977 303.376L617.513 283.458C615.399 275.116 612.212 266.724 605.881 260.394C599.587 254.101 592.267 249.886 584.957 246.726L580.753 96.4872V96.4802V94.7272C588.964 91.6222 597.185 87.4996 604.433 81.3848Z" stroke="#E0E0E0"/>
<path d="M602.368 329.689H602.575L602.722 329.543C606.86 325.406 611.03 320.226 613.217 314.991L772.471 334.896C772.596 349.629 778.95 364.307 789.445 375.852C796.773 384.224 807.18 390.523 817.628 393.752L733.718 668.518C730.534 666.585 726.464 665.633 722.421 665.633H722.414H722.408H722.402H722.396H722.39H722.384H722.377H722.371H722.365H722.359H722.353H722.347H722.34H722.334H722.328H722.322H722.316H722.31H722.303H722.297H722.291H722.285H722.279H722.272H722.266H722.26H722.254H722.248H722.242H722.235H722.229H722.223H722.217H722.211H722.204H722.198H722.192H722.186H722.18H722.173H722.167H722.161H722.155H722.148H722.142H722.136H722.13H722.124H722.117H722.111H722.105H722.099H722.092H722.086H722.08H722.074H722.067H722.061H722.055H722.049H722.042H722.036H722.03H722.024H722.017H722.011H722.005H721.999H721.992H721.986H721.98H721.973H721.967H721.961H721.955H721.948H721.942H721.936H721.929H721.923H721.917H721.91H721.904H721.898H721.891H721.885H721.879H721.872H721.866H721.86H721.853H721.847H721.84H721.834H721.828H721.821H721.815H721.809H721.802H721.796H721.789H721.783H721.777H721.77H721.764H721.757H721.751H721.744H721.738H721.731H721.725H721.719H721.712H721.706H721.699H721.693H721.686H721.68H721.673H721.667H721.66H721.654H721.647H721.641H721.634H721.627H721.621H721.614H721.608H721.601H721.595H721.588H721.582H721.575H721.568H721.562H721.555H721.548H721.542H721.535H721.529H721.522H721.515H721.509H721.502H721.495H721.489H721.482H721.475H721.469H721.462H721.455H721.448H721.442H721.435H721.428H721.422H721.415H721.408H721.401H721.394H721.388H721.381H721.374H721.367H721.36H721.354H721.347H721.34H721.333H721.326H721.319H721.313H721.306H721.299H721.292H721.285H721.278H721.271H721.264H721.257H721.25H721.243H721.236H721.229H721.222H721.215H721.208H721.201H721.194H721.187H721.18H721.173H721.166H721.159H721.152H721.145H721.138H721.131H721.124H721.117H721.11H721.102H721.095H721.088H721.081H721.074H721.067H721.059H721.052H721.045H721.038H721.031H721.023H721.016H721.009H721.001H720.994H720.987H720.98H720.972H720.965H720.958H720.95H720.943H720.936H720.928H720.921H720.913H720.906H720.899H720.891H720.884H720.876H720.869H720.861H720.854H720.846H720.839H720.831H720.824H720.816H720.809H720.801H720.793H720.786H720.778H720.771H720.763H720.755H720.748H720.74H720.732H720.725H720.717H720.709H720.702H720.694H720.686H720.678H720.671H720.663H720.655H720.647H720.639H720.632H720.624H720.616H720.608H720.6H720.592H720.584H720.576H720.569H720.561H720.553H720.545H720.537H720.529H720.521H720.513H720.505H720.497H720.488H720.48H720.472H720.464H720.456H720.448H720.44H720.432H720.424H720.415H720.407H720.399H720.391H720.382H720.374H720.366H720.358H720.349H720.341H720.333H720.324H720.316H720.308H720.299H720.291H720.282H720.274H720.266H720.257H720.249H720.24H720.232H720.223H720.215H720.206H720.198H720.189H720.18H720.172H720.163H720.155H720.146H720.137H720.129H720.12H720.111H720.102H720.094H720.085H720.076H720.067H720.059H720.05H720.041H720.032H720.023H720.014H720.005H719.996H719.988H719.979H719.97H719.961H719.952H719.943H719.934H719.925H719.915H719.906H719.897H719.888H719.879H719.87H719.861H719.852H719.842H719.833H719.824H719.815H719.805H719.796H719.787H719.778H719.768H719.759H719.75H719.74H719.731H719.721H719.712H719.702H719.693H719.683H719.674H719.664H719.655H719.645H719.636H719.626H719.617H719.607H719.597H719.588H719.578H719.568H719.558H719.549H719.539H719.529H719.519H719.51H719.5H719.49H719.48H719.47H719.46H719.45H719.44H719.43H719.42H719.41H719.4H719.39H719.38H719.37H719.36H719.35H719.34H719.33H719.32H719.309H719.299H719.289H719.279H719.268H719.258H719.248H719.237H719.227H719.217H719.206H719.196H719.185H719.175H719.165H719.154H719.144H719.133H719.122H719.112H719.101H719.091H719.08H719.069H719.059H719.048H719.037H719.027H719.016H719.005H718.994H718.983H718.973H718.962H718.951H718.94H718.929H718.918H718.907H718.896H718.885H718.874H718.863H718.852H718.841H718.83H718.819H718.807H718.796H718.785H718.774H718.762H718.751H718.74H718.729H718.717H718.706H718.695H718.683H718.672H718.66H718.649H718.637H718.626H718.614H718.603H718.591H718.579H718.568H718.561L599.786 331.426C600.236 330.978 600.665 330.565 601.089 330.247C601.586 329.874 602.005 329.689 602.368 329.689Z" stroke="#E0E0E0"/>
<path opacity="0.5" d="M345.798 783.743L345.79 783.734C338.427 775.321 328.997 771.07 319.577 768.92L315.383 590.677C321.615 588.549 326.833 585.396 332.036 581.235L332.058 581.217L332.077 581.198L333.657 579.618L334.992 578.283L658.735 724.368V724.374V724.38V724.386V724.392V724.399V724.405V724.411V724.417V724.424V724.43V724.436V724.442V724.449V724.455V724.461V724.467V724.474V724.48V724.486V724.493V724.499V724.505V724.512V724.518V724.524V724.53V724.537V724.543V724.549V724.556V724.562V724.568V724.575V724.581V724.587V724.594V724.6V724.606V724.613V724.619V724.626V724.632V724.638V724.645V724.651V724.657V724.664V724.67V724.677V724.683V724.69V724.696V724.702V724.709V724.715V724.722V724.728V724.735V724.741V724.747V724.754V724.76V724.767V724.773V724.78V724.786V724.793V724.799V724.806V724.812V724.819V724.825V724.832V724.839V724.845V724.852V724.858V724.865V724.871V724.878V724.884V724.891V724.898V724.904V724.911V724.917V724.924V724.931V724.937V724.944V724.951V724.957V724.964V724.971V724.977V724.984V724.991V724.997V725.004V725.011V725.018V725.024V725.031V725.038V725.044V725.051V725.058V725.065V725.072V725.078V725.085V725.092V725.099V725.106V725.112V725.119V725.126V725.133V725.14V725.147V725.153V725.16V725.167V725.174V725.181V725.188V725.195V725.202V725.209V725.216V725.223V725.23V725.237V725.243V725.25V725.257V725.264V725.272V725.279V725.286V725.293V725.3V725.307V725.314V725.321V725.328V725.335V725.342V725.349V725.356V725.364V725.371V725.378V725.385V725.392V725.399V725.407V725.414V725.421V725.428V725.435V725.443V725.45V725.457V725.464V725.472V725.479V725.486V725.494V725.501V725.508V725.516V725.523V725.53V725.538V725.545V725.553V725.56V725.567V725.575V725.582V725.59V725.597V725.605V725.612V725.62V725.627V725.635V725.642V725.65V725.657V725.665V725.672V725.68V725.688V725.695V725.703V725.71V725.718V725.726V725.733V725.741V725.749V725.757V725.764V725.772V725.78V725.787V725.795V725.803V725.811V725.819V725.826V725.834V725.842V725.85V725.858V725.866V725.874V725.881V725.889V725.897V725.905V725.913V725.921V725.929V725.937V725.945V725.953V725.961V725.969V725.977V725.985V725.994V726.002V726.01V726.018V726.026V726.034V726.042V726.051V726.059V726.067V726.075V726.083V726.092V726.1V726.108V726.116V726.125V726.133V726.141V726.15V726.158V726.167V726.175V726.183V726.192V726.2V726.209V726.217V726.226V726.234V726.243V726.251V726.26V726.268V726.277V726.285V726.294V726.303V726.311V726.32V726.329V726.337V726.346V726.355V726.363V726.372V726.381V726.39V726.398V726.407V726.416V726.425V726.434V726.443V726.451V726.46V726.469V726.478V726.487V726.496V726.505V726.514V726.523V726.532V726.541V726.55V726.559V726.568V726.578V726.587V726.596V726.605V726.614V726.623V726.633V726.642V726.651V726.66V726.67V726.679V726.688V726.698V726.707V726.716V726.726V726.735V726.744V726.754V726.763V726.773V726.782V726.792V726.801V726.811V726.82V726.83V726.84V726.849V726.859V726.868V726.878V726.888V726.898V726.907V726.917V726.927V726.937V726.946V726.956V726.966V726.976V726.986V726.996V727.005V727.015V727.025V727.035V727.045V727.055V727.065V727.075V727.085V727.096V727.106V727.116V727.126V727.136V727.146V727.156V727.167V727.177V727.187V727.197V727.208V727.218V727.228V727.239V727.249V727.259V727.27V727.28V727.291V727.301V727.312V727.322V727.333V727.343V727.354V727.364V727.375V727.386V727.396V727.407V727.418V727.428V727.439V727.45V727.461V727.471V727.482V727.493V727.504V727.515V727.526V727.537V727.548V727.559V727.57V727.581V727.592V727.603V727.614V727.625V727.636V727.647V727.658V727.669V727.681V727.692V727.703V727.714V727.726V727.737V727.748V727.76V727.771V727.782V727.794V727.805V727.817V727.828V727.84V727.851V727.863V727.875V727.886V727.898V727.909V727.921V727.933V727.944V727.956V727.968V727.98V727.992V728.003V728.015V728.027V728.039V728.051V728.063V728.075V728.087V728.099V728.111V728.123V728.135V728.147V728.159V728.171V728.184V728.196V728.208V728.22V728.233V728.245V728.257V728.284C658.735 732.315 658.735 736.41 659.683 740.514L360.413 806.66C355.235 797.344 351.037 790.03 345.798 783.744L345.798 783.743Z" stroke="#E0E0E0"/>
<path opacity="0.5" d="M189.06 119.59L189.056 119.621V119.652C189.056 127.91 184.923 136.21 178.679 142.456C165.187 154.901 144.46 153.846 133.071 140.388L133.058 140.372L133.043 140.358C126.833 134.149 123.727 124.825 124.761 116.555L124.765 116.524V116.493C124.765 108.236 128.897 99.9363 135.142 93.6896C147.561 82.3154 168.301 83.327 180.765 95.7743C187.008 103.063 190.091 111.345 189.06 119.59Z" stroke="#E0E0E0"/>
<path d="M583.087 58.2013L583.08 58.2073L583.073 58.2135C569.582 70.6656 548.849 69.6124 537.458 56.1521L537.445 56.1362L537.43 56.1215C531.22 49.9126 528.114 40.5893 529.148 32.3192L529.152 32.2883V32.2572C529.152 23.9994 533.285 15.6997 539.529 9.45295C553.021 -2.99197 573.748 -1.93671 585.137 11.5212L585.15 11.5371L585.165 11.5518C591.375 17.7607 594.481 27.084 593.447 35.354L593.443 35.3849V35.4161C593.443 43.7103 590.336 51.9889 583.087 58.2013Z" stroke="#E0E0E0"/>
<path opacity="0.5" d="M812.302 354.122L812.295 354.114L812.287 354.106C806.077 347.897 802.971 338.574 804.005 330.304L804.009 330.273V330.242C804.009 321.984 808.142 313.685 814.386 307.438C827.878 294.993 848.605 296.048 859.994 309.506L860.007 309.522L860.022 309.537C866.232 315.746 869.338 325.069 868.304 333.339L868.3 333.37V333.401C868.3 341.655 864.171 349.952 857.931 356.198C844.433 367.602 823.69 366.544 812.302 354.122Z" stroke="#E0E0E0"/>
<path d="M743.101 707.521L743.114 707.537L743.129 707.552C749.339 713.761 752.445 723.084 751.411 731.354L751.407 731.385V731.416C751.407 739.674 747.274 747.974 741.03 754.22C727.538 766.665 706.811 765.61 695.422 752.152L695.42 752.15C689.198 744.891 687.116 736.593 687.116 728.257C687.116 719.999 691.249 711.7 697.493 705.453C710.985 693.008 731.712 694.063 743.101 707.521Z" stroke="#E0E0E0"/>
<path opacity="0.5" d="M285.713 793.92L285.72 793.914L285.727 793.908C299.218 781.455 319.951 782.509 331.342 795.969L331.356 795.985L331.37 796C337.58 802.208 340.686 811.532 339.652 819.802L339.649 819.833V819.864C339.649 828.122 335.516 836.421 329.271 842.668C315.779 855.113 295.052 854.058 283.663 840.6L283.65 840.584L283.635 840.569C277.425 834.36 274.319 825.037 275.353 816.767L275.357 816.736V816.705C275.357 808.411 278.464 800.132 285.713 793.92Z" stroke="#E0E0E0"/>
</g>
</svg>
