<svg width="388" height="381" viewBox="0 0 388 381" fill="none" xmlns="http://www.w3.org/2000/svg">
<path d="M25.4825 222.34L25.4893 222.348L25.4963 222.355C28.2075 225.066 29.5645 229.142 29.1137 232.748C28.654 236.424 27.2813 240.062 24.571 242.78C18.6453 247.78 9.56883 247.756 4.13359 241.876C1.41438 238.7 0.5 235.069 0.5 231.4C0.5 227.809 2.29726 224.177 5.03879 221.43C10.9668 216.428 20.0479 216.454 25.4825 222.34Z" stroke="#E0E0E0" stroke-opacity="0.5"/>
<path d="M93.7281 68.4953L232.619 129.281V129.284V129.286V129.289V129.291V129.294V129.297V129.299V129.302V129.304V129.307V129.309V129.312V129.315V129.317V129.32V129.322V129.325V129.327V129.33V129.333V129.335V129.338V129.34V129.343V129.345V129.348V129.35V129.353V129.355V129.358V129.36V129.363V129.365V129.368V129.37V129.373V129.375V129.378V129.38V129.383V129.385V129.388V129.39V129.393V129.395V129.398V129.4V129.403V129.405V129.407V129.41V129.412V129.415V129.417V129.42V129.422V129.424V129.427V129.429V129.432V129.434V129.437V129.439V129.441V129.444V129.446V129.448V129.451V129.453V129.456V129.458V129.46V129.463V129.465V129.467V129.47V129.472V129.474V129.477V129.479V129.481V129.484V129.486V129.488V129.491V129.493V129.495V129.498V129.5V129.502V129.504V129.507V129.509V129.511V129.514V129.516V129.518V129.52V129.523V129.525V129.527V129.529V129.532V129.534V129.536V129.538V129.54V129.543V129.545V129.547V129.549V129.551V129.554V129.556V129.558V129.56V129.562V129.564V129.567V129.569V129.571V129.573V129.575V129.577V129.579V129.581V129.584V129.586V129.588V129.59V129.592V129.594V129.596V129.598V129.6V129.602V129.604V129.606V129.608V129.61V129.613V129.615V129.617V129.619V129.621V129.623V129.625V129.627V129.629V129.631V129.633V129.635V129.637V129.638V129.64V129.642V129.644V129.646V129.648V129.65V129.652V129.654V129.656V129.658V129.66V129.662V129.663V129.665V129.667V129.669V129.671V129.673V129.675V129.676V129.678V129.68V129.682V129.684V129.686V129.687V129.689V129.691V129.693V129.695V129.696V129.698V129.7V129.702V129.703V129.705V129.707V129.709V129.71V129.712V129.714V129.715V129.717V129.719V129.72V129.722V129.724V129.725V129.727V129.729V129.73V129.732V129.734V129.735V129.737V129.739V129.74V129.742V129.743V129.745V129.746V129.748V129.75V129.751V129.753V129.754V129.756V129.757V129.759V129.76V129.762V129.763V129.765V129.766V129.768V129.769V129.771V129.772V129.774V129.775V129.776V129.778V129.779V129.781V129.782V129.783V129.785V129.786V129.788V129.789V129.79V129.792V129.793V129.794V129.796V129.797V129.798V129.799V129.801V129.802V129.803V129.805V129.806V129.807V129.808V129.81V129.811V129.812V129.813V129.814V129.816V129.817V129.818V129.819V129.82V129.821V129.823V129.824V129.825V129.826V129.827V129.828V129.829V129.83V129.831V129.832V129.834V129.835V129.836V129.837V129.838V129.839V129.84V129.841V129.842V129.843V129.844V129.845V129.846V129.847V129.847V129.848V129.849V129.85V129.851V129.852V129.853V129.854V129.855V129.856V129.856V129.857V129.858V129.859V129.86V129.861V129.861V129.862V129.863V129.864V129.864V129.865V129.866V129.867V129.867V129.868V129.869V129.869V129.87V129.871V129.872V129.872V129.873V129.873V129.874V129.875V129.875V129.876V129.877V129.877V129.878V129.878V129.879V129.879V129.88V129.88V129.881V129.881V129.882V129.882V129.883V129.883V129.884V129.884V129.885V129.885V129.886V129.886V129.886V129.887V129.887V129.888V129.888V129.888V129.889V129.889V129.889V129.89V129.89V129.89V129.89V129.891V129.891V129.891V129.891V129.892V129.892V129.892V129.892V129.892V129.893V129.893V129.893V129.893V129.893V129.893V129.894V129.894V129.894V129.894C232.619 133.125 233.066 136.376 234.402 139.634L189.069 181.69L143.757 223.726C140.142 221.544 136.519 220.621 132.897 220.564L83.8039 77.9797C85.6208 77.0389 87.8227 75.661 89.2078 73.8307C90.9758 72.0629 92.3644 70.6727 93.7281 68.4953Z" fill="#8B00FF" stroke="#8B00FF"/>
<path d="M35.4927 251.645C38.5457 248.87 40.3535 245.286 41.7069 241.333L111.462 247.843C112.415 251.512 113.857 254.781 116.676 257.6C119.47 260.394 122.709 262.276 125.937 263.687L127.339 319.757L127.339 319.76L127.803 343.876C127.535 344.008 127.253 344.142 126.964 344.28C126.343 344.576 125.691 344.887 125.079 345.211C124.229 345.661 123.393 346.166 122.698 346.766L35.4927 251.645Z" stroke="#E0E0E0" stroke-opacity="0.5"/>
<path d="M68.4984 81.5059L68.5581 81.5208H68.6197H68.6224H68.6252H68.628H68.6307H68.6335H68.6362H68.639H68.6417H68.6445H68.6472H68.65H68.6527H68.6555H68.6582H68.661H68.6638H68.6665H68.6693H68.672H68.6748H68.6775H68.6803H68.683H68.6858H68.6885H68.6913H68.694H68.6968H68.6996H68.7023H68.7051H68.7078H68.7106H68.7133H68.7161H68.7188H68.7216H68.7243H68.7271H68.7299H68.7326H68.7354H68.7381H68.7409H68.7436H68.7464H68.7491H68.7519H68.7546H68.7574H68.7601H68.7629H68.7657H68.7684H68.7712H68.7739H68.7767H68.7794H68.7822H68.7849H68.7877H68.7904H68.7932H68.7959H68.7987H68.8014H68.8042H68.807H68.8097H68.8125H68.8152H68.818H68.8207H68.8235H68.8262H68.829H68.8317H68.8345H68.8372H68.84H68.8428H68.8455H68.8483H68.851H68.8538H68.8565H68.8593H68.862H68.8648H68.8675H68.8703H68.8731H68.8758H68.8786H68.8813H68.8841H68.8868H68.8896H68.8923H68.8951H68.8978H68.9006H68.9033H68.9061H68.9089H68.9116H68.9144H68.9171H68.9199H68.9226H68.9254H68.9281H68.9309H68.9336H68.9364H68.9391H68.9419H68.9447H68.9474H68.9502H68.9529H68.9557H68.9584H68.9612H68.9639H68.9667H68.9694H68.9722H68.9749H68.9777H68.9805H68.9832H68.986H68.9887H68.9915H68.9942H68.997H68.9997H69.0025H69.0052H69.008H69.0107H69.0135H69.0163H69.019H69.0218H69.0245H69.0273H69.03H69.0328H69.0355H69.0383H69.041H69.0438H69.0465H69.0493H69.0521H69.0548H69.0576H69.0603H69.0631H69.0658H69.0686H69.0713H69.0741H69.0768H69.0796H69.0823H69.0851H69.0879H69.0906H69.0934H69.0961H69.0989H69.1016H69.1044H69.1071H69.1099H69.1126H69.1154H69.1181H69.1209H69.1237H69.1264H69.1292H69.1319H69.1347H69.1374H69.1402H69.1429H69.1457H69.1484H69.1512H69.1539H69.1567H69.1595H69.1622H69.165H69.1677H69.1705H69.1732H69.176H69.1787H69.1815H69.1842H69.187H69.1897H69.1925H69.1953H69.198H69.2008H69.2035H69.2063H69.209H69.2118H69.2145H69.2173H69.22H69.2228H69.2255H69.2283H69.2311H69.2338H69.2366H69.2393H69.2421H69.2448H69.2476H69.2503H69.2531H69.2558H69.2586H69.2613H69.2641H69.2669H69.2696H69.2724H69.2751H69.2779H69.2806H69.2834H69.2861H69.2889H69.2916H69.2944H69.2971H69.2999H69.3027H69.3054H69.3082H69.3109H69.3137H69.3164H69.3192H69.3219H69.3247H69.3274H69.3302H69.333H69.3357H69.3385H69.3412H69.344H69.3467H69.3495H69.3522H69.355H69.3577H69.3605H69.3632H69.366H69.3688H69.3715H69.3743H69.377H69.3798H69.3825H69.3853H69.388H69.3908H69.3935H69.3963H69.399H69.4018H69.4045H69.4073H69.4101H69.4128H69.4156H69.4183H69.4211H69.4238H69.4266H69.4293H69.4321H69.4348H69.4376H69.4403H69.4431H69.4459H69.4486H69.4514H69.4541H69.4569H69.4596H69.4624H69.4651H69.4679H69.4706H69.4734H69.4762H69.4789H69.4817H69.4844H69.4872H69.4899H69.4927H69.4954H69.4982H69.5009H69.5037H69.5064H69.5092H69.512H69.5147H69.5175H69.5202H69.523H69.5257H69.5285H69.5312H69.534H69.5367H69.5395H69.5422H69.545H69.5478H69.5505H69.5533H69.556H69.5588H69.5615H69.5643H69.567H69.5698H69.5725H69.5753H69.578H69.5808H69.5836H69.5863H69.5891H69.5918H69.5946H69.5973H69.6001H69.6028H69.6056H69.6083H69.6111H69.6138H69.6166H69.6194H69.6221H69.6249H69.6276H69.6304H69.6331H69.6359H69.6386H69.6414H69.6441H69.6469H69.6496H69.6524H69.6552H69.6579H69.6607H69.6634H69.6662H69.6689H69.6717H69.673L119.275 225.628L118.791 226.112L118.105 226.797C116.053 228.448 114.69 230.793 113.487 232.863C113.322 233.145 113.161 233.422 113.001 233.692L43.1973 227.178C42.1998 221.609 39.8278 216.941 36.0935 212.74L36.0838 212.729L36.0734 212.719C32.3895 209.035 28.2396 206.224 23.1953 204.744L63.3142 80.6715C64.1298 80.8461 64.939 80.9472 65.7242 81.0453L65.7377 81.047C66.6822 81.1651 67.5924 81.2794 68.4984 81.5059Z" stroke="#E0E0E0" stroke-opacity="0.5"/>
<path d="M154.159 245.028C154.629 241.268 154.159 237.509 152.279 233.749L243.929 149.631C247.219 151.511 250.979 152.451 254.739 152.451L307.848 300.95C305.968 301.89 304.088 303.3 302.208 304.71C300.328 306.119 298.918 307.999 297.978 309.879L154.159 245.028Z" fill="#8B00FF"/>
<path d="M297.753 309.229L154.698 244.723C155.092 241.11 154.624 237.486 152.892 233.865L244 150.244C247.188 151.993 250.782 152.893 254.385 152.948L307.23 300.707C305.443 301.659 303.667 302.991 301.931 304.292L301.908 304.31C300.099 305.666 298.716 307.436 297.753 309.229Z" stroke="#E0E0E0" stroke-opacity="0.5"/>
<path d="M229.455 34.3595L229.457 34.3618C233.664 39.0358 238.796 41.8904 244.839 42.9119L244.839 44.8358L244.839 44.8466L246.243 109.877C243.976 111.237 241.682 112.629 239.386 114.466L239.365 114.483L239.345 114.502L238.64 115.207L238.175 115.672L190.549 95.1305L190.547 95.1296L98.2594 54.8471V54.8467V54.8439V54.8412V54.8384V54.8357V54.8329V54.8302V54.8274V54.8247V54.8219V54.8192V54.8164V54.8137V54.8109V54.8082V54.8054V54.8026V54.7999V54.7971V54.7944V54.7916V54.7889V54.7861V54.7834V54.7806V54.7779V54.7751V54.7724V54.7696V54.7668V54.7641V54.7613V54.7586V54.7558V54.7531V54.7503V54.7476V54.7448V54.7421V54.7393V54.7366V54.7338V54.7311V54.7283V54.7255V54.7228V54.72V54.7173V54.7145V54.7118V54.709V54.7063V54.7035V54.7008V54.698V54.6953V54.6925V54.6898V54.687V54.6842V54.6815V54.6787V54.676V54.6732V54.6705V54.6677V54.665V54.6622V54.6595V54.6567V54.654V54.6512V54.6484V54.6457V54.6429V54.6402V54.6374V54.6347V54.6319V54.6292V54.6264V54.6237V54.6209V54.6182V54.6154V54.6127V54.6099V54.6071V54.6044V54.6016V54.5989V54.5961V54.5934V54.5906V54.5879V54.5851V54.5824V54.5796V54.5769V54.5741V54.5713V54.5686V54.5658V54.5631V54.5603V54.5576V54.5548V54.5521V54.5493V54.5466V54.5438V54.5411V54.5383V54.5356V54.5328V54.53V54.5273V54.5245V54.5218V54.519V54.5163V54.5135V54.5108V54.508V54.5053V54.5025V54.4998V54.497V54.4942V54.4915V54.4887V54.486V54.4832V54.4805V54.4777V54.475V54.4722V54.4695V54.4667V54.464V54.4612V54.4585V54.4557V54.4529V54.4502V54.4474V54.4447V54.4419V54.4392V54.4364V54.4337V54.4309V54.4282V54.4254V54.4227V54.4199V54.4171V54.4144V54.4116V54.4089V54.4061V54.4034V54.4006V54.3979V54.3951V54.3924V54.3896V54.3869V54.3841V54.3814V54.3786V54.3758V54.3731V54.3703V54.3676V54.3648V54.3621V54.3593V54.3566V54.3538V54.3511V54.3483V54.3456V54.3428V54.34V54.3373V54.3345V54.3318V54.329V54.3263V54.3235V54.3208V54.318V54.3153V54.3125V54.3098V54.307V54.3043V54.3015V54.2987V54.296V54.2932V54.2905V54.2877V54.285V54.2822V54.2795V54.2767V54.274V54.2712V54.2685V54.2657V54.263V54.2602V54.2574V54.2547V54.2519V54.2492V54.2464V54.2437V54.2409V54.2382V54.2354V54.2327V54.2299V54.2272V54.2244V54.2216V54.2189V54.2161V54.2134V54.2106V54.2079V54.2051V54.2024V54.1996V54.1969V54.1941V54.1914V54.1886V54.1859V54.1831V54.1803V54.1776V54.1748V54.1721V54.1693V54.1666V54.1638V54.1611V54.1583V54.1556V54.1528V54.1501V54.1473V54.1446V54.1418V54.139V54.1363V54.1335V54.1308V54.128V54.1253V54.1225V54.1198V54.117V54.1143V54.1115V54.1088V54.106V54.1032V54.1005V54.0977V54.095V54.0922V54.0895V54.0867V54.084V54.0812V54.0785V54.0757V54.073V54.0702V54.0675V54.0647V54.0619V54.0592V54.0564V54.0537V54.0509V54.0482V54.0454V54.0427V54.0399V54.0372V54.0344V54.0317V54.0289V54.0261V54.0234V54.0206V54.0179V54.0151V54.0124V54.0096V54.0069V54.0041V54.0014V53.9986V53.9959V53.9931V53.9904V53.9876V53.9848V53.9821V53.9793V53.9766V53.9738V53.9711V53.9683V53.9656V53.9628V53.9601V53.9573V53.9546V53.9518V53.9491V53.9463V53.9435V53.9408V53.938V53.9353V53.9325V53.9298V53.927V53.9243V53.9215V53.9188V53.916V53.9133V53.9105V53.9077V53.905V53.9022V53.8995V53.8967V53.894V53.8912V53.8885V53.8857V53.883V53.8802V53.8775V53.8747V53.872V53.8692V53.8664V53.8637V53.8609V53.8582V53.8554V53.8527V53.8499V53.8472V53.8444V53.8417V53.8389V53.8362V53.8334V53.8307V53.8279V53.8251V53.8224V53.8196V53.8169V53.8141V53.8114V53.8086V53.8059V53.8031V53.8004V53.7976V53.7949V53.7921V53.7893V53.7866V53.7838V53.7811V53.7783V53.7756V53.7728V53.7701V53.7673V53.7646L98.2594 53.7373C98.2595 52.0344 98.2595 50.2732 97.8885 48.501L221.955 20.0534C223.392 25.1204 225.743 30.184 229.455 34.3595Z" stroke="#E0E0E0" stroke-opacity="0.5"/>
<path opacity="0.5" d="M269.735 36.5973L353.188 127.032C350.613 129.287 348.838 131.946 347.489 134.991L275.819 126.15C274.871 122.47 273.434 118.743 270.602 115.912C267.807 113.118 264.569 111.236 261.34 109.824L259.469 42.9491V42.3615C263.016 41.0059 266.572 39.2158 269.735 36.5973Z" stroke="#8B00FF"/>
<path d="M268.839 147.312H269.046L269.192 147.165C270.999 145.359 272.837 143.093 273.853 140.776L344.482 149.603C344.605 156.173 347.46 162.689 352.125 167.822C355.371 171.529 359.948 174.33 364.564 175.808L327.297 297.842C325.876 297.067 324.136 296.691 322.418 296.691H322.415H322.413H322.41H322.407H322.404H322.402H322.399H322.396H322.393H322.391H322.388H322.385H322.382H322.38H322.377H322.374H322.371H322.369H322.366H322.363H322.36H322.358H322.355H322.352H322.349H322.347H322.344H322.341H322.338H322.336H322.333H322.33H322.327H322.324H322.322H322.319H322.316H322.313H322.311H322.308H322.305H322.302H322.3H322.297H322.294H322.291H322.288H322.286H322.283H322.28H322.277H322.275H322.272H322.269H322.266H322.263H322.261H322.258H322.255H322.252H322.249H322.247H322.244H322.241H322.238H322.235H322.233H322.23H322.227H322.224H322.221H322.219H322.216H322.213H322.21H322.207H322.205H322.202H322.199H322.196H322.193H322.19H322.188H322.185H322.182H322.179H322.176H322.174H322.171H322.168H322.165H322.162H322.159H322.156H322.154H322.151H322.148H322.145H322.142H322.139H322.136H322.134H322.131H322.128H322.125H322.122H322.119H322.116H322.114H322.111H322.108H322.105H322.102H322.099H322.096H322.093H322.09H322.088H322.085H322.082H322.079H322.076H322.073H322.07H322.067H322.064H322.061H322.058H322.055H322.053H322.05H322.047H322.044H322.041H322.038H322.035H322.032H322.029H322.026H322.023H322.02H322.017H322.014H322.011H322.008H322.005H322.002H321.999H321.996H321.993H321.99H321.987H321.984H321.981H321.978H321.975H321.972H321.969H321.966H321.963H321.96H321.957H321.954H321.951H321.948H321.945H321.942H321.939H321.936H321.933H321.93H321.927H321.924H321.921H321.918H321.914H321.911H321.908H321.905H321.902H321.899H321.896H321.893H321.89H321.887H321.883H321.88H321.877H321.874H321.871H321.868H321.865H321.862H321.858H321.855H321.852H321.849H321.846H321.843H321.839H321.836H321.833H321.83H321.827H321.824H321.82H321.817H321.814H321.811H321.807H321.804H321.801H321.798H321.795H321.791H321.788H321.785H321.782H321.778H321.775H321.772H321.769H321.765H321.762H321.759H321.755H321.752H321.749H321.746H321.742H321.739H321.736H321.732H321.729H321.726H321.722H321.719H321.716H321.712H321.709H321.706H321.702H321.699H321.695H321.692H321.689H321.685H321.682H321.678H321.675H321.672H321.668H321.665H321.661H321.658H321.654H321.651H321.648H321.644H321.641H321.637H321.634H321.63H321.627H321.623H321.62H321.616H321.613H321.609H321.606H321.602H321.599H321.595H321.592H321.588H321.585H321.581H321.577H321.574H321.57H321.567H321.563H321.56H321.556H321.552H321.549H321.545H321.541H321.538H321.534H321.531H321.527H321.523H321.52H321.516H321.512H321.509H321.505H321.501H321.498H321.494H321.49H321.486H321.483H321.479H321.475H321.471H321.468H321.464H321.46H321.456H321.453H321.449H321.445H321.441H321.438H321.434H321.43H321.426H321.422H321.418H321.415H321.411H321.407H321.403H321.399H321.395H321.391H321.388H321.384H321.38H321.376H321.372H321.368H321.364H321.36H321.356H321.352H321.348H321.344H321.34H321.336H321.332H321.328H321.324H321.32H321.316H321.312H321.308H321.304H321.3H321.296H321.292H321.288H321.284H321.28H321.276H321.272H321.268H321.263H321.259H321.255H321.251H321.247H321.243H321.239H321.234H321.23H321.226H321.222H321.218H321.214H321.209H321.205H321.201H321.197H321.192H321.188H321.184H321.18H321.175H321.171H321.167H321.162H321.158H321.154H321.15H321.145H321.141H321.137H321.132H321.128H321.123H321.119H321.115H321.11H321.106H321.101H321.097H321.093H321.088H321.084H321.079H321.075H321.07H321.066H321.061H321.057H321.052H321.048H321.043H321.039H321.034H321.03H321.025H321.021H321.016H321.011H321.007H321.002H320.998H320.993H320.988H320.984H320.979H320.974H320.97H320.965H320.96H320.956H320.951H320.946H320.942H320.937H320.932H320.927H320.923H320.918H320.913H320.908H320.903H320.899H320.894H320.891L268.006 147.883C268.157 147.736 268.297 147.608 268.434 147.505C268.64 147.351 268.767 147.312 268.839 147.312Z" stroke="#E0E0E0" stroke-opacity="0.5"/>
<path opacity="0.5" d="M154.543 349.503L154.543 349.503L154.535 349.494C151.255 345.745 147.072 343.827 142.9 342.844L141.038 263.71C143.771 262.749 146.074 261.346 148.362 259.516L148.383 259.499L148.403 259.48L149.568 258.314L293.718 323.36V323.362V323.365V323.368V323.371V323.374V323.376V323.379V323.382V323.385V323.388V323.391V323.394V323.397V323.4V323.403V323.406V323.409V323.411V323.414V323.417V323.42V323.423V323.426V323.429V323.432V323.435V323.438V323.441V323.444V323.447V323.45V323.453V323.456V323.459V323.462V323.465V323.468V323.471V323.474V323.477V323.48V323.483V323.486V323.489V323.492V323.495V323.498V323.501V323.504V323.507V323.51V323.513V323.516V323.519V323.522V323.525V323.528V323.532V323.535V323.538V323.541V323.544V323.547V323.55V323.553V323.556V323.559V323.562V323.565V323.569V323.572V323.575V323.578V323.581V323.584V323.587V323.59V323.594V323.597V323.6V323.603V323.606V323.609V323.613V323.616V323.619V323.622V323.625V323.628V323.632V323.635V323.638V323.641V323.644V323.648V323.651V323.654V323.657V323.661V323.664V323.667V323.67V323.674V323.677V323.68V323.683V323.687V323.69V323.693V323.696V323.7V323.703V323.706V323.71V323.713V323.716V323.72V323.723V323.726V323.73V323.733V323.736V323.74V323.743V323.746V323.75V323.753V323.756V323.76V323.763V323.767V323.77V323.773V323.777V323.78V323.784V323.787V323.79V323.794V323.797V323.801V323.804V323.808V323.811V323.814V323.818V323.821V323.825V323.828V323.832V323.835V323.839V323.842V323.846V323.849V323.853V323.856V323.86V323.864V323.867V323.871V323.874V323.878V323.881V323.885V323.888V323.892V323.896V323.899V323.903V323.906V323.91V323.914V323.917V323.921V323.925V323.928V323.932V323.936V323.939V323.943V323.947V323.95V323.954V323.958V323.961V323.965V323.969V323.972V323.976V323.98V323.984V323.987V323.991V323.995V323.999V324.002V324.006V324.01V324.014V324.018V324.021V324.025V324.029V324.033V324.037V324.041V324.044V324.048V324.052V324.056V324.06V324.064V324.068V324.072V324.075V324.079V324.083V324.087V324.091V324.095V324.099V324.103V324.107V324.111V324.115V324.119V324.123V324.127V324.131V324.135V324.139V324.143V324.147V324.151V324.155V324.159V324.163V324.167V324.171V324.175V324.179V324.183V324.188V324.192V324.196V324.2V324.204V324.208V324.212V324.216V324.221V324.225V324.229V324.233V324.237V324.242V324.246V324.25V324.254V324.258V324.263V324.267V324.271V324.275V324.28V324.284V324.288V324.293V324.297V324.301V324.306V324.31V324.314V324.319V324.323V324.327V324.332V324.336V324.34V324.345V324.349V324.354V324.358V324.363V324.367V324.371V324.376V324.38V324.385V324.389V324.394V324.398V324.403V324.407V324.412V324.416V324.421V324.425V324.43V324.435V324.439V324.444V324.448V324.453V324.458V324.462V324.467V324.471V324.476V324.481V324.485V324.49V324.495V324.499V324.504V324.509V324.514V324.518V324.523V324.528V324.533V324.537V324.542V324.547V324.552V324.556V324.561V324.566V324.571V324.576V324.581V324.585V324.59V324.595V324.6V324.605V324.61V324.615V324.62V324.625V324.63V324.635V324.639V324.644V324.649V324.654V324.659V324.664V324.669V324.674V324.68V324.685V324.69V324.695V324.7V324.705V324.71V324.715V324.72V324.725V324.73V324.736V324.741V324.746V324.751V324.756V324.762V324.767V324.772V324.777V324.782V324.788V324.793V324.798V324.803V324.809V324.814V324.819V324.825V324.83V324.835V324.841V324.846V324.851V324.857V324.862V324.868V324.873V324.878V324.884V324.889V324.895V324.9V324.906V324.911V324.917V324.944C293.718 326.645 293.718 328.405 294.089 330.177L160.995 359.593C158.731 355.523 156.866 352.291 154.543 349.503Z" stroke="#E0E0E0" stroke-opacity="0.5"/>
<path d="M84.1034 53.2327L84.0995 53.2636V53.2947C84.0995 56.8884 82.2989 60.524 79.5531 63.2726C73.6416 68.7213 64.5763 68.2491 59.6014 62.3704L59.5879 62.3545L59.5732 62.3398C56.862 59.629 55.505 55.5528 55.9558 51.9469L55.9597 51.916V51.8849C55.9597 48.2914 57.76 44.6562 60.5055 41.9076C65.9277 36.9465 75.0064 37.3752 80.4725 42.8262C83.2168 46.0337 84.5511 49.6518 84.1034 53.2327Z" stroke="#E0E0E0" stroke-opacity="0.5"/>
<path d="M260.053 25.6588L260.046 25.6648L260.039 25.671C254.128 31.1269 245.057 30.6568 240.08 24.7756L240.067 24.7597L240.052 24.745C237.341 22.0342 235.984 17.9581 236.435 14.3521L236.439 14.3212V14.2901C236.439 10.6964 238.239 7.06081 240.985 4.31221C246.897 -1.13653 255.962 -0.664311 260.937 5.21441L260.95 5.23029L260.965 5.24499C263.676 7.95581 265.033 12.032 264.582 15.6379L264.579 15.6688V15.6999C264.579 19.3301 263.22 22.9445 260.053 25.6588Z" stroke="#E0E0E0" stroke-opacity="0.5"/>
<path d="M362.368 158.09C359.548 155.27 358.138 151.041 358.608 147.282C358.608 143.522 360.488 139.763 363.308 136.943C369.418 131.304 378.818 131.774 383.988 137.883C386.808 140.702 388.218 144.932 387.748 148.691C387.748 152.451 385.868 156.21 383.048 159.03C376.938 164.199 367.538 163.729 362.368 158.09Z" fill="#8B00FF"/>
<path d="M362.737 157.752L362.729 157.744L362.722 157.736C360.01 155.026 358.653 150.95 359.104 147.344L359.108 147.313V147.282C359.108 143.688 360.909 140.052 363.655 137.304C369.566 131.855 378.631 132.327 383.606 138.206L383.62 138.222L383.634 138.236C386.346 140.947 387.703 145.023 387.252 148.629L387.248 148.66V148.691C387.248 152.282 385.451 155.914 382.709 158.662C376.792 163.653 367.711 163.178 362.737 157.752Z" stroke="#E0E0E0" stroke-opacity="0.5"/>
<path d="M331.436 315.841L331.45 315.857L331.465 315.872C334.176 318.582 335.533 322.659 335.082 326.265L335.078 326.295V326.327C335.078 329.92 333.278 333.556 330.532 336.304C324.62 341.753 315.555 341.281 310.58 335.402L310.578 335.4C307.854 332.222 306.938 328.589 306.938 324.917C306.938 321.323 308.739 317.687 311.485 314.939C317.396 309.49 326.462 309.962 331.436 315.841Z" stroke="#E0E0E0" stroke-opacity="0.5"/>
<path opacity="0.5" d="M127.695 354.432L127.702 354.426L127.708 354.42C133.62 348.964 142.69 349.434 147.668 355.316L147.681 355.331L147.696 355.346C150.407 358.057 151.764 362.133 151.313 365.739L151.309 365.77V365.801C151.309 369.395 149.509 373.03 146.763 375.779C140.851 381.228 131.786 380.756 126.811 374.877L126.798 374.861L126.783 374.846C124.072 372.135 122.715 368.059 123.165 364.453L123.169 364.422V364.391C123.169 360.761 124.528 357.147 127.695 354.432Z" stroke="#E0E0E0" stroke-opacity="0.5"/>
</svg>
