<svg width="23" height="22" viewBox="0 0 23 22" fill="none" xmlns="http://www.w3.org/2000/svg">
<path d="M2.63353 14.1759L2.6494 14.1625L2.66411 14.1478C2.91246 13.8994 3.01974 13.5861 3.05397 13.3122C3.09747 12.9642 2.97311 12.5922 2.7208 12.3352C2.22302 11.8038 1.42588 11.8259 0.924303 12.2503L0.908427 12.2638L0.893721 12.2785C0.675183 12.497 0.5 12.8156 0.5 13.176C0.5 13.4614 0.57372 13.7849 0.818191 14.0701L0.824178 14.0771L0.830418 14.0839C1.32773 14.6226 2.12972 14.6022 2.63353 14.1759Z" stroke="white"/>
<path d="M13.7645 7.78543V7.45849L13.465 7.32739L6.12096 4.11282L5.71802 3.93645L5.49172 4.31361C5.45258 4.37886 5.41899 4.41468 5.31964 4.51404L5.29451 4.53916L5.27468 4.56562C5.27405 4.56615 5.26613 4.57455 5.24576 4.58893C5.22063 4.60666 5.18879 4.62496 5.15286 4.64292L4.76113 4.83879L4.9037 5.25289L7.50008 12.7948L7.61618 13.132H7.97285C8.08055 13.132 8.18594 13.157 8.30131 13.2291L8.62584 13.4319L8.90639 13.1716L11.305 10.9462L13.7035 8.72069L13.9618 8.48105L13.823 8.1572C13.782 8.06144 13.7645 7.95888 13.7645 7.83489V7.83488V7.83487V7.83486V7.83485V7.83483V7.83482V7.83481V7.83481V7.8348V7.83479V7.83477V7.83476V7.83475V7.83474V7.83473V7.83471V7.8347V7.83468V7.83467V7.83465V7.83464V7.83462V7.8346V7.83458V7.83457V7.83455V7.83453V7.83451V7.83449V7.83447V7.83445V7.83442V7.8344V7.83438V7.83435V7.83433V7.83431V7.83428V7.83425V7.83423V7.8342V7.83417V7.83415V7.83412V7.83409V7.83406V7.83403V7.834V7.83397V7.83394V7.83391V7.83388V7.83384V7.83381V7.83378V7.83374V7.83371V7.83367V7.83364V7.8336V7.83356V7.83353V7.83349V7.83345V7.83341V7.83337V7.83333V7.83329V7.83325V7.83321V7.83317V7.83313V7.83309V7.83304V7.833V7.83295V7.83291V7.83287V7.83282V7.83277V7.83273V7.83268V7.83263V7.83259V7.83254V7.83249V7.83244V7.83239V7.83234V7.83229V7.83224V7.83219V7.83214V7.83209V7.83203V7.83198V7.83193V7.83187V7.83182V7.83176V7.83171V7.83165V7.8316V7.83154V7.83148V7.83142V7.83137V7.83131V7.83125V7.83119V7.83113V7.83107V7.83101V7.83095V7.83089V7.83082V7.83076V7.8307V7.83064V7.83057V7.83051V7.83044V7.83038V7.83031V7.83025V7.83018V7.83012V7.83005V7.82998V7.82991V7.82985V7.82978V7.82971V7.82964V7.82957V7.8295V7.82943V7.82936V7.82929V7.82921V7.82914V7.82907V7.829V7.82892V7.82885V7.82877V7.8287V7.82862V7.82855V7.82847V7.8284V7.82832V7.82824V7.82817V7.82809V7.82801V7.82793V7.82785V7.82777V7.82769V7.82761V7.82753V7.82745V7.82737V7.82729V7.82721V7.82713V7.82704V7.82696V7.82688V7.82679V7.82671V7.82662V7.82654V7.82645V7.82637V7.82628V7.8262V7.82611V7.82602V7.82593V7.82585V7.82576V7.82567V7.82558V7.82549V7.8254V7.82531V7.82522V7.82513V7.82504V7.82495V7.82486V7.82477V7.82467V7.82458V7.82449V7.82439V7.8243V7.82421V7.82411V7.82402V7.82392V7.82383V7.82373V7.82364V7.82354V7.82344V7.82335V7.82325V7.82315V7.82305V7.82296V7.82286V7.82276V7.82266V7.82256V7.82246V7.82236V7.82226V7.82216V7.82206V7.82196V7.82185V7.82175V7.82165V7.82155V7.82144V7.82134V7.82124V7.82113V7.82103V7.82092V7.82082V7.82071V7.82061V7.8205V7.8204V7.82029V7.82019V7.82008V7.81997V7.81986V7.81976V7.81965V7.81954V7.81943V7.81932V7.81921V7.8191V7.81899V7.81888V7.81877V7.81866V7.81855V7.81844V7.81833V7.81822V7.81811V7.818V7.81788V7.81777V7.81766V7.81754V7.81743V7.81732V7.8172V7.81709V7.81697V7.81686V7.81674V7.81663V7.81651V7.8164V7.81628V7.81617V7.81605V7.81593V7.81582V7.8157V7.81558V7.81546V7.81534V7.81523V7.81511V7.81499V7.81487V7.81475V7.81463V7.81451V7.81439V7.81427V7.81415V7.81403V7.81391V7.81379V7.81367V7.81355V7.81342V7.8133V7.81318V7.81306V7.81293V7.81281V7.81269V7.81257V7.81244V7.81232V7.81219V7.81207V7.81195V7.81182V7.8117V7.81157V7.81145V7.81132V7.81119V7.81107V7.81094V7.81082V7.81069V7.81056V7.81044V7.81031V7.81018V7.81005V7.80993V7.8098V7.80967V7.80954V7.80941V7.80929V7.80916V7.80903V7.8089V7.80877V7.80864V7.80851V7.80838V7.80825V7.80812V7.80799V7.80786V7.80773V7.8076V7.80747V7.80733V7.8072V7.80707V7.80694V7.80681V7.80667V7.80654V7.80641V7.80628V7.80614V7.80601V7.80588V7.80575V7.80561V7.80548V7.80534V7.80521V7.80508V7.80494V7.80481V7.80467V7.80454V7.8044V7.80427V7.80413V7.804V7.80386V7.80373V7.80359V7.80345V7.80332V7.80318V7.80305V7.80291V7.80277V7.80264V7.8025V7.80236V7.80223V7.80209V7.80195V7.80181V7.80168V7.80154V7.8014V7.80126V7.80112V7.80099V7.80085V7.80071V7.80057V7.80043V7.80029V7.80015V7.80001V7.79988V7.79974V7.7996V7.79946V7.79932V7.79918V7.79904V7.7989V7.79876V7.79862V7.79848V7.79834V7.7982V7.79806V7.79792V7.79777V7.79763V7.79749V7.79735V7.79721V7.79707V7.79693V7.79679V7.79665V7.7965V7.79636V7.79622V7.79608V7.79594V7.79579V7.79565V7.79551V7.79537V7.79523V7.79508V7.79494V7.7948V7.79466V7.79451V7.79437V7.79423V7.79408V7.79394V7.7938V7.79366V7.79351V7.79337V7.79323V7.79308V7.79294V7.7928V7.79265V7.79251V7.79237V7.79222V7.79208V7.79193V7.79179V7.79165V7.7915V7.79136V7.79122V7.79107V7.79093V7.79078V7.79064V7.79049V7.79035V7.79021V7.79006V7.78992V7.78977V7.78963V7.78948V7.78934V7.7892V7.78905V7.78891V7.78876V7.78862V7.78847V7.78833V7.78818V7.78804V7.78789V7.78775V7.7876V7.78746V7.78731V7.78717V7.78702V7.78688V7.78674V7.78659V7.78645V7.7863V7.78616V7.78601V7.78587V7.78572V7.78558V7.78543Z" stroke="white"/>
<path d="M3.22273 13.1727L2.82746 13.1358L2.70192 13.5124C2.64028 13.6974 2.5785 13.7964 2.50468 13.8597L2.11219 14.1961L2.4615 14.5772L7.08554 19.6216L7.43841 20.0065L7.79924 19.6457C7.80431 19.6424 7.8131 19.6372 7.82715 19.6298C7.84392 19.6209 7.8633 19.6114 7.88891 19.5991C7.89331 19.597 7.89809 19.5948 7.90318 19.5923C7.92424 19.5823 7.95035 19.5699 7.97445 19.5578L8.25682 19.4166L8.25075 19.101L8.22602 17.8152H8.22603L8.22596 17.8123L8.15178 14.845L8.14376 14.5243L7.84889 14.3979C7.71175 14.3391 7.59975 14.2713 7.51094 14.1825L7.15738 14.536L7.51094 14.1825C7.44951 14.121 7.40738 14.0432 7.37045 13.8955L7.28454 13.5518L6.93185 13.5189L3.22273 13.1727Z" stroke="white"/>
<path opacity="0.5" d="M5.15727 5.10052L5.04119 4.76323H4.68448H4.68434H4.6842H4.68405H4.68391H4.68376H4.68362H4.68347H4.68333H4.68318H4.68304H4.68289H4.68275H4.6826H4.68246H4.68231H4.68217H4.68202H4.68188H4.68173H4.68159H4.68144H4.6813H4.68115H4.68101H4.68086H4.68072H4.68057H4.68043H4.68028H4.68014H4.67999H4.67985H4.6797H4.67956H4.67941H4.67927H4.67912H4.67898H4.67883H4.67869H4.67854H4.6784H4.67825H4.67811H4.67797H4.67782H4.67768H4.67753H4.67739H4.67724H4.6771H4.67695H4.67681H4.67666H4.67652H4.67637H4.67623H4.67608H4.67594H4.67579H4.67565H4.6755H4.67536H4.67521H4.67507H4.67492H4.67478H4.67463H4.67449H4.67434H4.6742H4.67405H4.67391H4.67376H4.67362H4.67347H4.67333H4.67318H4.67304H4.67289H4.67275H4.6726H4.67246H4.67231H4.67217H4.67202H4.67188H4.67173H4.67159H4.67145H4.6713H4.67116H4.67101H4.67087H4.67072H4.67058H4.67043H4.67029H4.67014H4.67H4.66985H4.66971H4.66956H4.66942H4.66927H4.66913H4.66898H4.66884H4.66869H4.66855H4.6684H4.66826H4.66811H4.66797H4.66782H4.66768H4.66753H4.66739H4.66724H4.6671H4.66695H4.66681H4.66666H4.66652H4.66637H4.66623H4.66608H4.66594H4.66579H4.66565H4.6655H4.66536H4.66522H4.66507H4.66493H4.66478H4.66464H4.66449H4.66435H4.6642H4.66406H4.66391H4.66377H4.66362H4.66348H4.6634C4.61046 4.75312 4.56321 4.74725 4.53081 4.74322C4.52844 4.74292 4.52616 4.74264 4.52396 4.74236C4.46996 4.73562 4.45029 4.73257 4.43484 4.7287L3.98156 4.61538L3.83782 5.05996L1.71126 11.6375L1.55013 12.1358L2.05545 12.2737C2.22054 12.3187 2.36693 12.4089 2.51523 12.5547C2.64828 12.7077 2.72479 12.8665 2.7571 13.0604L2.8204 13.4402L3.20383 13.476L6.91295 13.8222L7.22626 13.8515L7.38816 13.5816C7.40104 13.5602 7.41642 13.5338 7.42948 13.5113C7.43604 13.5001 7.44201 13.4898 7.44679 13.4817C7.46439 13.4518 7.47897 13.4279 7.49289 13.407C7.52147 13.3641 7.53781 13.3487 7.54376 13.3439L7.56539 13.3266L7.58497 13.307L7.58511 13.3069L7.58526 13.3067L7.5854 13.3066L7.58555 13.3064L7.58569 13.3063L7.58584 13.3062L7.58598 13.306L7.58613 13.3059L7.58627 13.3057L7.58642 13.3056L7.58656 13.3054L7.58671 13.3053L7.58685 13.3051L7.587 13.305L7.58714 13.3048L7.58729 13.3047L7.58743 13.3046L7.58757 13.3044L7.58772 13.3043L7.58786 13.3041L7.58801 13.304L7.58815 13.3038L7.5883 13.3037L7.58844 13.3035L7.58859 13.3034L7.58873 13.3033L7.58888 13.3031L7.58902 13.303L7.58917 13.3028L7.58931 13.3027L7.58946 13.3025L7.5896 13.3024L7.58975 13.3022L7.58989 13.3021L7.59004 13.302L7.59018 13.3018L7.59033 13.3017L7.59047 13.3015L7.59062 13.3014L7.59076 13.3012L7.59091 13.3011L7.59105 13.3009L7.5912 13.3008L7.59134 13.3006L7.59149 13.3005L7.59163 13.3004L7.59178 13.3002L7.59192 13.3001L7.59207 13.2999L7.59221 13.2998L7.59236 13.2996L7.5925 13.2995L7.59265 13.2993L7.59279 13.2992L7.59294 13.2991L7.59308 13.2989L7.59323 13.2988L7.59337 13.2986L7.59352 13.2985L7.59366 13.2983L7.59381 13.2982L7.59395 13.298L7.5941 13.2979L7.59424 13.2978L7.59438 13.2976L7.59453 13.2975L7.59467 13.2973L7.59482 13.2972L7.59496 13.297L7.59511 13.2969L7.59525 13.2967L7.5954 13.2966L7.59554 13.2964L7.59569 13.2963L7.59583 13.2962L7.59598 13.296L7.59612 13.2959L7.59627 13.2957L7.59641 13.2956L7.59656 13.2954L7.5967 13.2953L7.59685 13.2951L7.59699 13.295L7.59714 13.2949L7.59728 13.2947L7.59743 13.2946L7.59757 13.2944L7.59772 13.2943L7.59786 13.2941L7.59801 13.294L7.59815 13.2938L7.5983 13.2937L7.59844 13.2935L7.59859 13.2934L7.59873 13.2933L7.59888 13.2931L7.59902 13.293L7.59917 13.2928L7.59931 13.2927L7.59946 13.2925L7.5996 13.2924L7.59975 13.2922L7.59989 13.2921L7.60004 13.292L7.60018 13.2918L7.60033 13.2917L7.60047 13.2915L7.60062 13.2914L7.60076 13.2912L7.6009 13.2911L7.60105 13.2909L7.60119 13.2908L7.60134 13.2907L7.60148 13.2905L7.60163 13.2904L7.60177 13.2902L7.60192 13.2901L7.60206 13.2899L7.60221 13.2898L7.60235 13.2896L7.6025 13.2895L7.60264 13.2893L7.60279 13.2892L7.60293 13.2891L7.60308 13.2889L7.60322 13.2888L7.60337 13.2886L7.60351 13.2885L7.60366 13.2883L7.6038 13.2882L7.60395 13.288L7.60409 13.2879L7.60424 13.2878L7.60438 13.2876L7.60453 13.2875L7.60467 13.2873L7.60482 13.2872L7.60496 13.287L7.60511 13.2869L7.60525 13.2867L7.6054 13.2866L7.60554 13.2864L7.60569 13.2863L7.60583 13.2862L7.60598 13.286L7.60612 13.2859L7.60627 13.2857L7.60641 13.2856L7.60656 13.2854L7.6067 13.2853L7.60684 13.2851L7.60699 13.285L7.60713 13.2849L7.60728 13.2847L7.60742 13.2846L7.60757 13.2844L7.60771 13.2843L7.60786 13.2841L7.608 13.284L7.60815 13.2838L7.60829 13.2837L7.60844 13.2836L7.60858 13.2834L7.60873 13.2833L7.60887 13.2831L7.60902 13.283L7.60916 13.2828L7.60931 13.2827L7.60945 13.2825L7.6096 13.2824L7.60974 13.2822L7.60989 13.2821L7.61003 13.282L7.61018 13.2818L7.61032 13.2817L7.61047 13.2815L7.61061 13.2814L7.61076 13.2812L7.6109 13.2811L7.61105 13.2809L7.61119 13.2808L7.61134 13.2807L7.61148 13.2805L7.61163 13.2804L7.61177 13.2802L7.61192 13.2801L7.61206 13.2799L7.61221 13.2798L7.61235 13.2796L7.6125 13.2795L7.61264 13.2793L7.61279 13.2792L7.61293 13.2791L7.61308 13.2789L7.61322 13.2788L7.61337 13.2786L7.61351 13.2785L7.61365 13.2783L7.6138 13.2782L7.61394 13.278L7.61409 13.2779L7.61423 13.2778L7.61438 13.2776L7.61452 13.2775L7.61467 13.2773L7.61481 13.2772L7.61496 13.277L7.6151 13.2769L7.61525 13.2767L7.61539 13.2766L7.61554 13.2765L7.61568 13.2763L7.61583 13.2762L7.61597 13.276L7.61612 13.2759L7.61626 13.2757L7.61641 13.2756L7.61655 13.2754L7.6167 13.2753L7.61684 13.2751L7.61699 13.275L7.61713 13.2749L7.61728 13.2747L7.61742 13.2746L7.61757 13.2744L7.61771 13.2743L7.61786 13.2741L7.618 13.274L7.61815 13.2738L7.61829 13.2737L7.61844 13.2736L7.61858 13.2734L7.61873 13.2733L7.61887 13.2731L7.61902 13.273L7.61916 13.2728L7.61931 13.2727L7.61945 13.2725L7.6196 13.2724L7.61974 13.2723L7.61988 13.2721L7.62003 13.272L7.62017 13.2718L7.62032 13.2717L7.62046 13.2715L7.62061 13.2714L7.62075 13.2712L7.6209 13.2711L7.62104 13.2709L7.62119 13.2708L7.62133 13.2707L7.62148 13.2705L7.62162 13.2704L7.62177 13.2702L7.62191 13.2701L7.62206 13.2699L7.6222 13.2698L7.62235 13.2696L7.62249 13.2695L7.62264 13.2694L7.62278 13.2692L7.62293 13.2691L7.62307 13.2689L7.62322 13.2688L7.62336 13.2686L7.62351 13.2685L7.62365 13.2683L7.6238 13.2682L7.62394 13.268L7.62409 13.2679L7.62423 13.2678L7.62438 13.2676L7.62452 13.2675L7.62467 13.2673L7.62481 13.2672L7.62496 13.267L7.6251 13.2669L7.62525 13.2667L7.62539 13.2666L7.62554 13.2665L7.62568 13.2663L7.62583 13.2662L7.62597 13.266L7.62611 13.2659L7.62626 13.2657L7.6264 13.2656L7.62655 13.2654L7.62669 13.2653L7.62684 13.2652L7.62698 13.265L7.62713 13.2649L7.62727 13.2647L7.62742 13.2646L7.62756 13.2644L7.62771 13.2643L7.62785 13.2641L7.628 13.264L7.62814 13.2638L7.62829 13.2637L7.62843 13.2636L7.62858 13.2634L7.62872 13.2633L7.62887 13.2631L7.62901 13.263L7.62916 13.2628L7.6293 13.2627L7.62945 13.2625L7.62959 13.2624L7.62974 13.2623L7.62988 13.2621L7.63003 13.262L7.63017 13.2618L7.63032 13.2617L7.63046 13.2615L7.63061 13.2614L7.63075 13.2612L7.6309 13.2611L7.63104 13.2609L7.63119 13.2608L7.63133 13.2607L7.63148 13.2605L7.63162 13.2604L7.63177 13.2602L7.63191 13.2601L7.63206 13.2599L7.6322 13.2598L7.63235 13.2596L7.63249 13.2595L7.63264 13.2594L7.63278 13.2592L7.63292 13.2591L7.63307 13.2589L7.63321 13.2588L7.63336 13.2586L7.6335 13.2585L7.63365 13.2583L7.63379 13.2582L7.63394 13.2581L7.63408 13.2579L7.63423 13.2578L7.63437 13.2576L7.63452 13.2575L7.63466 13.2573L7.63481 13.2572L7.63495 13.257L7.6351 13.2569L7.63524 13.2567L7.63539 13.2566L7.63553 13.2565L7.63568 13.2563L7.63582 13.2562L7.63597 13.256L7.63611 13.2559L7.63626 13.2557L7.6364 13.2556L7.63655 13.2554L7.63669 13.2553L7.63684 13.2552L7.63698 13.255L7.63713 13.2549L7.63727 13.2547L7.63742 13.2546L7.63756 13.2544L7.63771 13.2543L7.63785 13.2541L7.638 13.254L7.63814 13.2538L7.63829 13.2537L7.63843 13.2536L7.63858 13.2534L7.63872 13.2533L7.63886 13.2531L7.63901 13.253L7.63915 13.2528L7.6393 13.2527L7.63944 13.2525L7.63959 13.2524L7.63973 13.2523L7.63988 13.2521L7.64002 13.252L7.64017 13.2518L7.64031 13.2517L7.64046 13.2515L7.6406 13.2514L7.64075 13.2512L7.64089 13.2511L7.64104 13.251L7.64118 13.2508L7.64133 13.2507L7.64147 13.2505L7.64162 13.2504L7.64176 13.2502L7.64191 13.2501L7.64205 13.2499L7.6422 13.2498L7.64234 13.2496L7.64249 13.2495L7.64263 13.2494L7.64278 13.2492L7.64292 13.2491L7.64307 13.2489L7.64321 13.2488L7.64336 13.2486L7.6435 13.2485L7.64365 13.2483L7.64379 13.2482L7.64394 13.2481L7.64408 13.2479L7.64423 13.2478L7.64437 13.2476L7.64452 13.2475L7.64466 13.2473L7.64481 13.2472L7.64495 13.247L7.6451 13.2469L7.64524 13.2467L7.64538 13.2466L7.64553 13.2465L7.64567 13.2463L7.64582 13.2462L7.64596 13.246L7.64611 13.2459L7.64625 13.2457L7.6464 13.2456L7.64654 13.2454L7.64669 13.2453L7.64683 13.2452L7.64698 13.245L7.64712 13.2449L7.64727 13.2447L7.64741 13.2446L7.64756 13.2444L7.6477 13.2443L7.64785 13.2441L7.64799 13.244L7.64814 13.2439L7.64828 13.2437L7.64843 13.2436L7.64857 13.2434L7.64872 13.2433L7.64886 13.2431L7.64901 13.243L7.64915 13.2428L7.6493 13.2427L7.64944 13.2425L7.64959 13.2424L7.64973 13.2423L7.64988 13.2421L7.65002 13.242L7.65017 13.2418L7.65031 13.2417L7.65046 13.2415L7.6506 13.2414L7.65075 13.2412L7.65089 13.2411L7.65104 13.241L7.65118 13.2408L7.65133 13.2407L7.65147 13.2405L7.65162 13.2404L7.65176 13.2402L7.65191 13.2401L7.65205 13.2399L7.65219 13.2398L7.65234 13.2397L7.65248 13.2395L7.65263 13.2394L7.65277 13.2392L7.65292 13.2391L7.65306 13.2389L7.65321 13.2388L7.65335 13.2386L7.6535 13.2385L7.65364 13.2383L7.65379 13.2382L7.65393 13.2381L7.65408 13.2379L7.65422 13.2378L7.65437 13.2376L7.65451 13.2375L7.65466 13.2373L7.6548 13.2372L7.65495 13.237L7.65509 13.2369L7.65524 13.2368L7.65538 13.2366L7.65553 13.2365L7.65567 13.2363L7.65582 13.2362L7.65596 13.236L7.65611 13.2359L7.65625 13.2357L7.6564 13.2356L7.65654 13.2354L7.65669 13.2353L7.65683 13.2352L7.65698 13.235L7.65712 13.2349L7.65727 13.2347L7.65741 13.2346L7.65756 13.2344L7.6577 13.2343L7.65785 13.2341L7.65799 13.234L7.65813 13.2339L7.65828 13.2337L7.65842 13.2336L7.65857 13.2334L7.65871 13.2333L7.65886 13.2331L7.659 13.233L7.65915 13.2328L7.88004 13.012L7.77838 12.7166L5.15727 5.10052Z" stroke="white"/>
<path d="M8.61449 13.8311L8.56872 14.1972L8.90507 14.3489L16.4717 17.7613L16.9096 17.9588L17.1244 17.5291C17.1458 17.4864 17.1738 17.453 17.1998 17.4335C17.3078 17.3525 17.3693 17.3083 17.4201 17.2829L17.8166 17.0847L17.6673 16.6673L14.8731 8.85345L14.7545 8.52181H14.4023C14.2866 8.52181 14.175 8.49269 14.0816 8.43932L13.7645 8.25811L13.4955 8.5051L8.6736 12.9313L8.39596 13.1862L8.56451 13.5233C8.61482 13.6239 8.62827 13.7209 8.61449 13.8311Z" stroke="white"/>
<path d="M14.4078 3.23557V2.80661L13.9838 2.74139C13.7797 2.70997 13.6115 2.62008 13.4645 2.45712C13.3323 2.30794 13.2386 2.11262 13.1785 1.89237L13.0522 1.42929L12.5844 1.53658L6.00689 3.04495L5.50992 3.15892L5.63358 3.65357C5.641 3.68324 5.64338 3.72083 5.64338 3.82903V3.82917V3.82932V3.82946V3.82961V3.82975V3.8299V3.83004V3.83019V3.83033V3.83048V3.83062V3.83077V3.83091V3.83106V3.8312V3.83135V3.83149V3.83164V3.83178V3.83193V3.83207V3.83222V3.83236V3.83251V3.83265V3.8328V3.83294V3.83309V3.83323V3.83338V3.83352V3.83367V3.83381V3.83396V3.8341V3.83425V3.83439V3.83454V3.83468V3.83483V3.83497V3.83512V3.83526V3.83541V3.83555V3.8357V3.83584V3.83598V3.83613V3.83627V3.83642V3.83656V3.83671V3.83685V3.837V3.83714V3.83729V3.83743V3.83758V3.83772V3.83787V3.83801V3.83816V3.8383V3.83845V3.83859V3.83874V3.83888V3.83903V3.83917V3.83932V3.83946V3.83961V3.83975V3.8399V3.84004V3.84019V3.84033V3.84048V3.84062V3.84077V3.84091V3.84106V3.8412V3.84135V3.84149V3.84164V3.84178V3.84193V3.84207V3.84221V3.84236V3.8425V3.84265V3.84279V3.84294V3.84308V3.84323V3.84337V3.84352V3.84366V3.84381V3.84395V3.8441V3.84424V3.84439V3.84453V3.84468V3.84482V3.84497V3.84511V3.84526V3.8454V3.84555V3.84569V3.84584V3.84598V3.84613V3.84627V3.84642V3.84656V3.84671V3.84685V3.847V3.84714V3.84729V3.84743V3.84758V3.84772V3.84787V3.84801V3.84816V3.8483V3.84845V3.84859V3.84873V3.84888V3.84902V3.84917V3.84931V3.84946V3.8496V3.84975V3.84989V3.85004V3.85018V3.85033V3.85047V3.85062V3.85076V3.85091V3.85105V3.8512V3.85134V3.85149V3.85163V3.85178V3.85192V3.85207V3.85221V3.85236V3.8525V3.85265V3.85279V3.85294V3.85308V3.85323V3.85337V3.85352V3.85366V3.85381V3.85395V3.8541V3.85424V3.85439V3.85453V3.85468V3.85482V3.85496V3.85511V3.85525V3.8554V3.85554V3.85569V3.85583V3.85598V3.85612V3.85627V3.85641V3.85656V3.8567V3.85685V3.85699V3.85714V3.85728V3.85743V3.85757V3.85772V3.85786V3.85801V3.85815V3.8583V3.85844V3.85859V3.85873V3.85888V3.85902V3.85917V3.85931V3.85946V3.8596V3.85975V3.85989V3.86004V3.86018V3.86033V3.86047V3.86062V3.86076V3.86091V3.86105V3.8612V3.86134V3.86149V3.86163V3.86177V3.86192V3.86206V3.86221V3.86235V3.8625V3.86264V3.86279V3.86293V3.86308V3.86322V3.86337V3.86351V3.86366V3.8638V3.86395V3.86409V3.86424V3.86438V3.86453V3.86467V3.86482V3.86496V3.86511V3.86525V3.8654V3.86554V3.86569V3.86583V3.86598V3.86612V3.86627V3.86641V3.86656V3.8667V3.86685V3.86699V3.86714V3.86728V3.86743V3.86757V3.86772V3.86786V3.868V3.86815V3.86829V3.86844V3.86858V3.86873V3.86887V3.86902V3.86916V3.86931V3.86945V3.8696V3.86974V3.86989V3.87003V3.87018V3.87032V3.87047V3.87061V3.87076V3.8709V3.87105V3.87119V3.87134V3.87148V3.87163V3.87177V3.87192V3.87206V3.87221V3.87235V3.8725V3.87264V3.87279V3.87293V3.87308V3.87322V3.87337V3.87351V3.87366V3.8738V3.87395V3.87409V3.87424V3.87438V3.87452V3.87467V3.87481V3.87496V3.8751V3.87525V3.87539V3.87554V3.87568V3.87583V3.87597V3.87612V3.87626V3.87641V3.87655V3.8767V3.87684V3.87699V3.87713V3.87728V3.87742V3.87757V3.87771V3.87786V3.878V3.87815V3.87829V3.87844V3.87858V3.87873V3.87887V3.87902V3.87916V3.87931V3.87945V3.8796V3.87974V3.87989V3.88003V3.88018V3.88032V3.88047V3.88061V3.88075V3.8809V3.88104V3.88119V3.88133V3.88148V3.88162V3.88177V3.88191V3.88206V3.8822V3.88235V3.88249V3.88264V3.88278V3.88293V3.88307V3.88322V3.88336V3.88351V3.88365V3.8838V3.88394V3.88409V3.88423V3.88438V3.88452V3.88467V3.88481V3.88496V3.8851V3.88525V3.88539V3.88554V3.88568V3.88583V3.88597V3.88612V3.88626V3.88641V3.88655V3.8867V3.88684V3.88699V3.88713V3.88727V3.88742V3.88756V3.88771V3.88785V3.888V3.88814V3.88829V3.88843V3.88858V3.88872V3.88887V3.88901V3.88916V3.8893V3.88945V3.88959V3.88974V3.88988V3.89003V3.89017V3.89032V3.89046V3.89061V3.89075V3.8909V3.89104V3.89119V3.89133V3.89148V3.89162V3.89177V3.89191V3.89206V3.8922V3.89235V3.89249V3.89264V3.89278V3.89293V3.89307V3.89322V3.89336V3.89351V3.89365V3.89379V3.89394V3.89408V3.89423V3.89437V3.89452V3.89466V3.89481V3.89495V3.8951V3.89524V3.89539V3.89553V3.89568V3.89582V3.89597V3.89611V3.89626V3.8964V3.89655V3.89669V3.89684V3.89698V3.89713V3.89727V3.89742V3.89756V3.89771V3.89785V3.898V3.89814V3.89829V3.89843V3.89858V3.89872V3.89887V3.89901V3.89916V3.8993V3.89945V3.89959V3.89974V3.89988V3.90003V3.90017V3.90031V3.90046V3.9006V3.90075V3.90089V3.90104V3.90118V3.90133V3.90147V3.90162V3.90176V3.90191V3.90205V3.9022V3.90234V3.90249V3.90263V3.90278V3.90292V3.90307V3.90321V4.23051L5.94334 4.36145L10.8146 6.48801L10.8146 6.48802L10.8166 6.48888L13.3388 7.57689L13.6505 7.71131L13.8904 7.47134L13.9275 7.43424L13.9436 7.41814C14.031 7.35067 14.1219 7.29549 14.2392 7.22507L14.4881 7.07573L14.4819 6.78554L14.4078 3.35381V3.23557Z" stroke="white"/>
<path opacity="0.5" d="M19.9396 8.07061L20.3436 7.73394L19.9869 7.34744L15.5607 2.55031L15.2338 2.19604L14.8678 2.50975C14.7541 2.60721 14.6142 2.68069 14.449 2.74267L14.1245 2.86433V3.21083V3.26029H14.1243L14.1247 3.27427L14.2236 6.81029L14.2326 7.12993L14.5265 7.25588C14.6636 7.31466 14.7756 7.38251 14.8644 7.47132C14.9158 7.52267 14.9624 7.61299 15.0049 7.78304L15.0881 8.11599L15.4287 8.15801L19.2368 8.62783L19.6096 8.67383L19.7576 8.32855C19.8075 8.21198 19.8639 8.13367 19.9396 8.07061Z" stroke="white"/>
<path d="M17.3934 16.8053L17.5116 17.1378H17.8645H17.8648H17.8651H17.8654H17.8657H17.866H17.8662H17.8665H17.8668H17.8671H17.8674H17.8677H17.868H17.8682H17.8685H17.8688H17.8691H17.8694H17.8696H17.8699H17.8702H17.8705H17.8708H17.871H17.8713H17.8716H17.8719H17.8721H17.8724H17.8727H17.873H17.8732H17.8735H17.8738H17.874H17.8743H17.8746H17.8749H17.8751H17.8754H17.8757H17.8759H17.8762H17.8765H17.8767H17.877H17.8773H17.8775H17.8778H17.8781H17.8783H17.8786H17.8788H17.8791H17.8794H17.8796H17.8799H17.8801H17.8804H17.8807H17.8809H17.8812H17.8814H17.8817H17.8819H17.8822H17.8825H17.8827H17.883H17.8832H17.8835H17.8837H17.884H17.8842H17.8845H17.8847H17.885H17.8852H17.8855H17.8857H17.886H17.8862H17.8865H17.8867H17.887H17.8872H17.8875H17.8877H17.8879H17.8882H17.8884H17.8887H17.8889H17.8892H17.8894H17.8896H17.8899H17.8901H17.8904H17.8906H17.8908H17.8911H17.8913H17.8916H17.8918H17.892H17.8923H17.8925H17.8927H17.893H17.8932H17.8934H17.8937H17.8939H17.8941H17.8944H17.8946H17.8948H17.8951H17.8953H17.8955H17.8958H17.896H17.8962H17.8964H17.8967H17.8969H17.8971H17.8974H17.8976H17.8978H17.898H17.8983H17.8985H17.8987H17.8989H17.8992H17.8994H17.8996H17.8998H17.9H17.9003H17.9005H17.9007H17.9009H17.9011H17.9014H17.9016H17.9018H17.902H17.9022H17.9025H17.9027H17.9029H17.9031H17.9033H17.9035H17.9037H17.904H17.9042H17.9044H17.9046H17.9048H17.905H17.9052H17.9055H17.9057H17.9059H17.9061H17.9063H17.9065H17.9067H17.9069H17.9071H17.9073H17.9075H17.9078H17.908H17.9082H17.9084H17.9086H17.9088H17.909H17.9092H17.9094H17.9096H17.9098H17.91H17.9102H17.9104H17.9106H17.9108H17.911H17.9112H17.9114H17.9116H17.9118H17.912H17.9122H17.9124H17.9126H17.9128H17.913H17.9132H17.9134H17.9136H17.9138H17.914H17.9142H17.9144H17.9146H17.9148H17.915H17.9152H17.9154H17.9156H17.9158H17.916H17.9161H17.9163H17.9165H17.9167H17.9169H17.9171H17.9173H17.9175H17.9177H17.9179H17.9181H17.9182H17.9184H17.9186H17.9188H17.919H17.9192H17.9194H17.9196H17.9197H17.9199H17.9201H17.9203H17.9205H17.9207H17.9209H17.921H17.9212H17.9214H17.9216H17.9218H17.922H17.9222H17.9223H17.9225H17.9227H17.9229H17.9231H17.9232H17.9234H17.9236H17.9238H17.924H17.9241H17.9243H17.9245H17.9247H17.9249H17.925H17.9252H17.9254H17.9256H17.9258H17.9259H17.9261H17.9263H17.9265H17.9266H17.9268H17.927H17.9272H17.9273H17.9275H17.9277H17.9279H17.928H17.9282H17.9284H17.9286H17.9287H17.9289H17.9291H17.9292H17.9294H17.9296H17.9298H17.9299H17.9301H17.9303H17.9304H17.9306H17.9308H17.931H17.9311H17.9313H17.9315H17.9316H17.9318H17.932H17.9321H17.9323H17.9325H17.9326H17.9328H17.933H17.9331H17.9333H17.9335H17.9336H17.9338H17.934H17.9341H17.9343H17.9345H17.9346H17.9348H17.935H17.9351H17.9353H17.9355H17.9356H17.9358H17.9359H17.9361H17.9363H17.9364H17.9366H17.9368H17.9369H17.9371H17.9372H17.9374H17.9376H17.9377H17.9379H17.938H17.9382H17.9384H17.9385H17.9387H17.9389H17.939H17.9392H17.9393H17.9395H17.9396H17.9398H17.94H17.9401H17.9403H17.9404H17.9406H17.9408H17.9409H17.9411H17.9412H17.9414H17.9415H17.9417H17.9419H17.942H17.9422H17.9423H17.9425H17.9426H17.9428H17.9429H17.9431H17.9433H17.9434H17.9436H17.9437H17.9439H17.944H17.9442H17.9443H17.9445H17.9446H17.9448H17.945H17.9451H17.9453H17.9454H17.9456H17.9457H17.9459H17.946H17.9462H17.9463H17.9465H17.9466H17.9468H17.9469H17.9471H17.9472H17.9474H17.9475H17.9477H17.9478H17.948H17.9481H17.9483H17.9485H17.9486H17.9488H17.9489H17.9491H17.9492H17.9494H17.9495H17.9497H17.9498H17.95H17.9501H17.9503H17.9504H17.9505H17.9507H17.9508H17.951H17.9511H17.9513H17.9514H17.9516H17.9517H17.9519H17.952H17.9522H17.9523H17.9525H17.9526H17.9528H17.9529H17.9531H17.9532H17.9534H17.9535H17.9537H17.9538H17.954H17.9541H17.9543H17.9544H17.9545H17.9547H17.9548H17.955H17.9551H17.9553H17.9554H17.9556H17.9557H17.9559H17.956H17.9562H17.9563H17.9564H17.9566H17.9567H17.9569H17.957H17.9572H17.9573H17.9575H17.9576H17.9578H17.9579H17.9581H17.9582H17.9583H17.9585H17.9586H17.9588H17.9589H17.9591H17.9592H17.9594H17.9595H17.9597H17.9598H17.9599H17.9601H17.9602H17.9604H17.9605H17.9607H17.9608H17.961H17.9611H17.9613H17.9614H17.9615H17.9617H17.9618H17.962H17.9621H17.9623H17.9624H17.9626H17.9627H17.9628H17.963H17.9631H17.9633H17.9634C17.9672 17.1378 17.9706 17.1381 17.9736 17.1384L18.5173 17.5009L18.7136 16.858L20.6918 10.3795L20.8386 9.8989L20.3573 9.75452C20.1895 9.70418 20.0265 9.60297 19.9223 9.48382L19.9223 9.48376L19.916 9.47673C19.7402 9.28338 19.6503 9.05352 19.6503 8.8487V8.40731L19.2124 8.35256L15.4538 7.88274L15.0709 7.83487L14.9275 8.19318C14.9179 8.21733 14.8902 8.26132 14.8433 8.31545C14.828 8.32531 14.816 8.33408 14.8074 8.34051C14.7643 8.37282 14.7281 8.40952 14.7185 8.41923C14.7177 8.41997 14.7172 8.42055 14.7168 8.42096L14.4934 8.64431L14.5992 8.94193L17.3934 16.8053Z" stroke="white"/>
<path opacity="0.5" d="M7.9926 19.0729L8.00181 19.4643L8.384 19.5493C8.53596 19.583 8.64871 19.6408 8.73071 19.7325C8.81782 19.8382 8.89497 19.9696 9.01976 20.1942L9.20078 20.52L9.56476 20.4396L16.6121 18.8817L17.1139 18.7708L16.9892 18.2722C16.9818 18.2426 16.9794 18.205 16.9794 18.0968V18.0965V18.0962V18.0959V18.0956V18.0953V18.0951V18.0948V18.0945V18.0942V18.0939V18.0936V18.0934V18.0931V18.0928V18.0925V18.0922V18.0919V18.0917V18.0914V18.0911V18.0908V18.0905V18.0903V18.09V18.0897V18.0894V18.0892V18.0889V18.0886V18.0883V18.0881V18.0878V18.0875V18.0873V18.087V18.0867V18.0864V18.0862V18.0859V18.0856V18.0854V18.0851V18.0848V18.0846V18.0843V18.084V18.0838V18.0835V18.0832V18.083V18.0827V18.0825V18.0822V18.0819V18.0817V18.0814V18.0812V18.0809V18.0806V18.0804V18.0801V18.0799V18.0796V18.0794V18.0791V18.0788V18.0786V18.0783V18.0781V18.0778V18.0776V18.0773V18.0771V18.0768V18.0766V18.0763V18.0761V18.0758V18.0756V18.0753V18.0751V18.0748V18.0746V18.0743V18.0741V18.0738V18.0736V18.0734V18.0731V18.0729V18.0726V18.0724V18.0721V18.0719V18.0717V18.0714V18.0712V18.0709V18.0707V18.0705V18.0702V18.07V18.0697V18.0695V18.0693V18.069V18.0688V18.0686V18.0683V18.0681V18.0679V18.0676V18.0674V18.0672V18.0669V18.0667V18.0665V18.0662V18.066V18.0658V18.0655V18.0653V18.0651V18.0649V18.0646V18.0644V18.0642V18.0639V18.0637V18.0635V18.0633V18.063V18.0628V18.0626V18.0624V18.0621V18.0619V18.0617V18.0615V18.0613V18.061V18.0608V18.0606V18.0604V18.0602V18.0599V18.0597V18.0595V18.0593V18.0591V18.0588V18.0586V18.0584V18.0582V18.058V18.0578V18.0576V18.0573V18.0571V18.0569V18.0567V18.0565V18.0563V18.0561V18.0559V18.0556V18.0554V18.0552V18.055V18.0548V18.0546V18.0544V18.0542V18.054V18.0538V18.0535V18.0533V18.0531V18.0529V18.0527V18.0525V18.0523V18.0521V18.0519V18.0517V18.0515V18.0513V18.0511V18.0509V18.0507V18.0505V18.0503V18.0501V18.0499V18.0497V18.0495V18.0493V18.0491V18.0489V18.0487V18.0485V18.0483V18.0481V18.0479V18.0477V18.0475V18.0473V18.0471V18.0469V18.0467V18.0465V18.0463V18.0461V18.0459V18.0457V18.0455V18.0453V18.0452V18.045V18.0448V18.0446V18.0444V18.0442V18.044V18.0438V18.0436V18.0434V18.0432V18.0431V18.0429V18.0427V18.0425V18.0423V18.0421V18.0419V18.0417V18.0416V18.0414V18.0412V18.041V18.0408V18.0406V18.0404V18.0403V18.0401V18.0399V18.0397V18.0395V18.0393V18.0392V18.039V18.0388V18.0386V18.0384V18.0382V18.0381V18.0379V18.0377V18.0375V18.0373V18.0372V18.037V18.0368V18.0366V18.0364V18.0363V18.0361V18.0359V18.0357V18.0356V18.0354V18.0352V18.035V18.0348V18.0347V18.0345V18.0343V18.0341V18.034V18.0338V18.0336V18.0334V18.0333V18.0331V18.0329V18.0327V18.0326V18.0324V18.0322V18.0321V18.0319V18.0317V18.0315V18.0314V18.0312V18.031V18.0309V18.0307V18.0305V18.0303V18.0302V18.03V18.0298V18.0297V18.0295V18.0293V18.0292V18.029V18.0288V18.0287V18.0285V18.0283V18.0282V18.028V18.0278V18.0277V18.0275V18.0273V18.0272V18.027V18.0268V18.0267V18.0265V18.0263V18.0262V18.026V18.0258V18.0257V18.0255V18.0254V18.0252V18.025V18.0249V18.0247V18.0245V18.0244V18.0242V18.0241V18.0239V18.0237V18.0236V18.0234V18.0233V18.0231V18.0229V18.0228V18.0226V18.0225V18.0223V18.0221V18.022V18.0218V18.0217V18.0215V18.0213V18.0212V18.021V18.0209V18.0207V18.0205V18.0204V18.0202V18.0201V18.0199V18.0198V18.0196V18.0194V18.0193V18.0191V18.019V18.0188V18.0187V18.0185V18.0184V18.0182V18.018V18.0179V18.0177V18.0176V18.0174V18.0173V18.0171V18.017V18.0168V18.0167V18.0165V18.0163V18.0162V18.016V18.0159V18.0157V18.0156V18.0154V18.0153V18.0151V18.015V18.0148V18.0147V18.0145V18.0144V18.0142V18.0141V18.0139V18.0138V18.0136V18.0135V18.0133V18.0132V18.013V18.0129V18.0127V18.0125V18.0124V18.0122V18.0121V18.0119V18.0118V18.0116V18.0115V18.0113V18.0112V18.0111V18.0109V18.0108V18.0106V18.0105V18.0103V18.0102V18.01V18.0099V18.0097V18.0096V18.0094V18.0093V18.0091V18.009V18.0088V18.0087V18.0085V18.0084V18.0082V18.0081V18.0079V18.0078V18.0076V18.0075V18.0073V18.0072V18.0071V18.0069V18.0068V18.0066V18.0065V18.0063V18.0062V18.006V18.0059V18.0057V18.0056V18.0054V18.0053V18.0051V18.005V18.0049V18.0047V18.0046V18.0044V18.0043V18.0041V18.004V18.0038V18.0037V18.0035V18.0034V18.0032V18.0031V18.003V18.0028V18.0027V18.0025V18.0024V18.0022V18.0021V18.0019V18.0018V18.0016V18.0015V18.0014V18.0012V18.0011V18.0009V18.0008V18.0006V18.0005V18.0003V18.0002V18.0001V17.9999V17.9998V17.9996V17.9995V17.9993V17.9992V17.999V17.9989V17.9987V17.9986V17.9985V17.9983V17.9982V17.998V17.9979V17.675L16.6851 17.5421L9.06905 14.105L8.75413 13.9629L8.50982 14.2072L8.45673 14.2603C8.3765 14.322 8.30913 14.3586 8.23544 14.3831L7.885 14.5L7.89369 14.8693L7.9926 19.0729Z" stroke="white"/>
<path opacity="0.5" d="M5.54323 4.71572L5.55057 4.70894L5.55764 4.70187C5.76985 4.48966 5.94119 4.1831 5.95093 3.8355C5.98576 3.47689 5.84278 3.15473 5.63317 2.91019L5.62067 2.89561L5.6071 2.88203C5.13768 2.41261 4.3386 2.3492 3.82767 2.81755L3.81966 2.82489L3.81198 2.83257C3.59973 3.04483 3.42837 3.35146 3.41869 3.69915C3.38645 4.03459 3.50789 4.38833 3.74767 4.63728C4.21488 5.17173 5.02805 5.19126 5.54323 4.71572Z" stroke="white"/>
<path d="M13.321 0.840525L13.3137 0.847305L13.3066 0.854373C13.0944 1.06663 12.923 1.37326 12.9133 1.72095C12.8811 2.05638 13.0025 2.41013 13.2423 2.65908C13.7075 3.1912 14.5156 3.21288 15.0311 2.7437C15.3131 2.49847 15.4381 2.17164 15.4456 1.85634C15.4776 1.52112 15.3562 1.16772 15.1166 0.918966C14.6494 0.384516 13.8362 0.36498 13.321 0.840525Z" stroke="white"/>
<path opacity="0.5" d="M19.7751 7.83842L19.7678 7.8452L19.7607 7.85227C19.5485 8.06452 19.3771 8.37115 19.3674 8.71884C19.3349 9.05757 19.459 9.41497 19.7035 9.66427C20.1681 10.1624 20.9638 10.1829 21.4758 9.7497L21.4917 9.73627L21.5064 9.72156C21.7186 9.50931 21.89 9.20268 21.8997 8.85499C21.9319 8.51955 21.8105 8.1658 21.5707 7.91686C21.1035 7.38241 20.2903 7.36287 19.7751 7.83842Z" stroke="white"/>
<path d="M17.0307 17.1854L17.0233 17.1922L17.0163 17.1992C16.7977 17.4178 16.6226 17.7363 16.6226 18.0968C16.6226 18.3818 16.6961 18.7048 16.9397 18.9897C17.4048 19.538 18.2278 19.5621 18.7475 19.0824L18.7549 19.0756L18.7619 19.0685C18.9742 18.8563 19.1456 18.5496 19.1552 18.2019C19.1875 17.8665 19.066 17.5128 18.8263 17.2638C18.359 16.7294 17.5459 16.7098 17.0307 17.1854Z" stroke="white"/>
<path opacity="0.5" d="M9.07887 21.1595L9.08622 21.1527L9.09329 21.1456C9.30554 20.9334 9.4769 20.6268 9.48658 20.2791C9.51882 19.9436 9.39738 19.5899 9.1576 19.3409C8.69243 18.8088 7.8843 18.7871 7.3688 19.2563C7.08685 19.5015 6.96175 19.8284 6.95426 20.1437C6.92228 20.4789 7.04371 20.8323 7.28331 21.081C7.75052 21.6155 8.5637 21.635 9.07887 21.1595Z" stroke="white"/>
</svg>
