<svg width="40" height="40" viewBox="0 0 40 40" fill="none" xmlns="http://www.w3.org/2000/svg">
<path d="M20.9426 20.0586L31.7702 9.23102C32.0142 8.98695 32.0142 8.59125 31.7702 8.34719C31.526 8.10312 31.1304 8.10312 30.8862 8.34719L20.0587 19.1747L9.23107 8.34711C8.98701 8.10305 8.59131 8.10305 8.34725 8.34711C8.10311 8.59117 8.10311 8.98687 8.34725 9.23094L19.1748 20.0586L8.34717 30.8862C8.10303 31.1303 8.10303 31.5259 8.34717 31.7701C8.4692 31.8921 8.62912 31.9531 8.78912 31.9531C8.94912 31.9531 9.10904 31.8921 9.23107 31.7701L20.0587 20.9425L30.8862 31.7701C31.0084 31.8921 31.1682 31.9531 31.3282 31.9531C31.4882 31.9531 31.6481 31.8921 31.7702 31.7701C32.0142 31.5259 32.0142 31.1303 31.7702 30.8862L20.9426 20.0586Z" fill="white"/>
</svg>
