<svg width="20" height="21" viewBox="0 0 20 21" fill="none" xmlns="http://www.w3.org/2000/svg">
<path fill-rule="evenodd" clip-rule="evenodd" d="M6.1665 5.25C6.1665 4.97386 6.39036 4.75 6.6665 4.75H17.4998C17.776 4.75 17.9998 4.97386 17.9998 5.25C17.9998 5.52614 17.776 5.75 17.4998 5.75H6.6665C6.39036 5.75 6.1665 5.52614 6.1665 5.25Z" fill="white"/>
<path fill-rule="evenodd" clip-rule="evenodd" d="M6.1665 10.25C6.1665 9.97386 6.39036 9.75 6.6665 9.75H17.4998C17.776 9.75 17.9998 9.97386 17.9998 10.25C17.9998 10.5261 17.776 10.75 17.4998 10.75H6.6665C6.39036 10.75 6.1665 10.5261 6.1665 10.25Z" fill="white"/>
<path fill-rule="evenodd" clip-rule="evenodd" d="M6.1665 15.25C6.1665 14.9739 6.39036 14.75 6.6665 14.75H17.4998C17.776 14.75 17.9998 14.9739 17.9998 15.25C17.9998 15.5261 17.776 15.75 17.4998 15.75H6.6665C6.39036 15.75 6.1665 15.5261 6.1665 15.25Z" fill="white"/>
<path fill-rule="evenodd" clip-rule="evenodd" d="M2 5.25C2 4.97386 2.22386 4.75 2.5 4.75H2.50833C2.78448 4.75 3.00833 4.97386 3.00833 5.25C3.00833 5.52614 2.78448 5.75 2.50833 5.75H2.5C2.22386 5.75 2 5.52614 2 5.25Z" fill="white"/>
<path fill-rule="evenodd" clip-rule="evenodd" d="M2 10.25C2 9.97386 2.22386 9.75 2.5 9.75H2.50833C2.78448 9.75 3.00833 9.97386 3.00833 10.25C3.00833 10.5261 2.78448 10.75 2.50833 10.75H2.5C2.22386 10.75 2 10.5261 2 10.25Z" fill="white"/>
<path fill-rule="evenodd" clip-rule="evenodd" d="M2 15.25C2 14.9739 2.22386 14.75 2.5 14.75H2.50833C2.78448 14.75 3.00833 14.9739 3.00833 15.25C3.00833 15.5261 2.78448 15.75 2.50833 15.75H2.5C2.22386 15.75 2 15.5261 2 15.25Z" fill="white"/>
</svg>
