<svg width="20" height="21" viewBox="0 0 20 21" fill="none" xmlns="http://www.w3.org/2000/svg">
<path d="M1.6665 2.75H6.6665C7.55056 2.75 8.39841 3.10119 9.02353 3.72631C9.64865 4.35143 9.99984 5.19928 9.99984 6.08333V17.75C9.99984 17.087 9.73645 16.4511 9.2676 15.9822C8.79876 15.5134 8.16288 15.25 7.49984 15.25H1.6665V2.75Z" stroke="white" stroke-linecap="round" stroke-linejoin="round"/>
<path d="M18.3333 2.75H13.3333C12.4493 2.75 11.6014 3.10119 10.9763 3.72631C10.3512 4.35143 10 5.19928 10 6.08333V17.75C10 17.087 10.2634 16.4511 10.7322 15.9822C11.2011 15.5134 11.837 15.25 12.5 15.25H18.3333V2.75Z" stroke="white" stroke-linecap="round" stroke-linejoin="round"/>
</svg>
