<svg width="16" height="15" viewBox="0 0 16 15" fill="none" xmlns="http://www.w3.org/2000/svg">
<path d="M7.46108 0.987005L5.67576 4.60687L1.68133 5.18922C0.965011 5.29311 0.677937 6.17621 1.1974 6.682L4.08728 9.49806L3.40377 13.4761C3.28074 14.1951 4.03807 14.7337 4.67237 14.3975L8.24575 12.5192L11.8191 14.3975C12.4534 14.731 13.2108 14.1951 13.0877 13.4761L12.4042 9.49806L15.2941 6.682C15.8136 6.17621 15.5265 5.29311 14.8102 5.18922L10.8157 4.60687L9.03042 0.987005C8.71054 0.341772 7.7837 0.33357 7.46108 0.987005Z" fill="#FFF500"/>
<path d="M7.46108 0.987005L5.67576 4.60687L1.68133 5.18922C0.965011 5.29311 0.677937 6.17621 1.1974 6.682L4.08728 9.49806L3.40377 13.4761C3.28074 14.1951 4.03807 14.7337 4.67237 14.3975L8.24575 12.5192L11.8191 14.3975C12.4534 14.731 13.2108 14.1951 13.0877 13.4761L12.4042 9.49806L15.2941 6.682C15.8136 6.17621 15.5265 5.29311 14.8102 5.18922L10.8157 4.60687L9.03042 0.987005C8.71054 0.341772 7.7837 0.33357 7.46108 0.987005Z" fill="#FFF500"/>
<path d="M7.46108 0.987005L5.67576 4.60687L1.68133 5.18922C0.965011 5.29311 0.677937 6.17621 1.1974 6.682L4.08728 9.49806L3.40377 13.4761C3.28074 14.1951 4.03807 14.7337 4.67237 14.3975L8.24575 12.5192L11.8191 14.3975C12.4534 14.731 13.2108 14.1951 13.0877 13.4761L12.4042 9.49806L15.2941 6.682C15.8136 6.17621 15.5265 5.29311 14.8102 5.18922L10.8157 4.60687L9.03042 0.987005C8.71054 0.341772 7.7837 0.33357 7.46108 0.987005Z" fill="#FFF500"/>
</svg>
