<svg width="399" height="79" viewBox="0 0 399 79" fill="none" xmlns="http://www.w3.org/2000/svg">
<g clip-path="url(#clip0_444_1540)">
<path d="M111.965 46.5396H107.02L98.5136 9.48389H103.162L109.097 35.5891L109.888 40.0866H110.086L110.877 35.5891L117.702 9.48389H122.549L129.175 35.6869L129.967 40.0866H130.165L130.956 35.6869L137.088 9.48389H141.341L132.637 46.5396H127.692L120.966 19.9455L119.977 15.448H119.68L118.691 19.9455L111.965 46.5396Z" fill="black"/>
<path d="M147.078 46.5396V9.48389H168.245V13.5903H151.925V25.2252H166.168V28.9406H151.925V42.4331H169.53V46.5396H147.078Z" fill="black"/>
<path d="M192.379 27.0829C195.346 27.7673 197.522 29.0383 198.808 30.7005C200.093 32.3626 200.786 34.318 200.786 36.469C200.786 38.2289 200.291 39.8911 199.401 41.4554C198.511 43.0198 197.225 44.2908 195.445 45.1708C193.763 46.1485 190.796 46.5396 186.642 46.5396H175.366V9.48389H185.356C189.906 9.48389 192.972 9.7772 194.456 10.4616C196.038 11.146 197.225 12.026 198.016 13.297C198.808 14.568 199.203 15.9369 199.203 17.5012C199.203 19.1633 198.709 20.9232 197.72 22.5854C196.829 24.2475 194.95 25.7141 192.379 27.0829ZM180.41 25.6163H185.059C187.433 25.6163 189.312 25.323 190.499 24.6386C191.686 23.9542 192.675 23.0742 193.368 21.901C194.06 20.7277 194.456 19.4567 194.456 18.2834C194.456 16.9146 193.862 15.7413 192.774 14.7636C191.686 13.7859 189.609 13.297 186.741 13.297H180.41V25.6163ZM180.41 42.8242H187.334C190.598 42.8242 192.774 42.2376 194.06 41.0643C195.247 39.8911 195.84 38.4245 195.84 36.7623C195.84 35.3935 195.445 34.2203 194.653 33.1448C193.862 32.0693 192.774 31.0916 191.192 30.4072C189.708 29.7227 187.334 29.3317 184.07 29.3317H180.41V42.8242Z" fill="black"/>
<path d="M205.336 33.4381V29.7228H220.37V33.4381H205.336Z" fill="black"/>
<path d="M225.711 46.5396V9.48389H246.878V13.5903H230.558V25.2252H244.8V28.9406H230.558V42.4331H248.163V46.5396H225.711Z" fill="black"/>
<path d="M256.274 46.5396H251.427L263.395 27.7673L252.318 9.48389H257.659L266.165 23.4653L275.166 9.48389H280.012L268.539 27.3762L280.111 46.5396H274.77L265.769 31.6782L256.274 46.5396Z" fill="black"/>
<path d="M289.211 46.5396H284.364V9.48389H294.75C298.706 9.48389 301.574 9.87498 303.157 10.6572C304.838 11.4393 306.025 12.6126 306.817 14.177C307.608 15.7413 308.102 17.5012 308.102 19.5544C308.102 22.9765 306.915 25.9096 304.542 28.2562C302.168 30.6027 298.607 31.776 293.859 31.776H289.211V46.5396ZM289.211 28.2562H292.475C296.827 28.2562 299.596 27.474 300.981 25.8119C302.366 24.1497 303.058 22.1943 303.058 19.9455C303.058 17.9901 302.465 16.3279 301.377 15.1547C300.289 13.9814 298.113 13.297 294.849 13.297H289.211V28.2562Z" fill="black"/>
<path d="M313.147 46.5396V9.48389H334.313V13.5903H317.993V25.2252H332.335V28.9406H318.092V42.4331H335.698V46.5396H313.147Z" fill="black"/>
<path d="M346.578 46.5396H341.732V9.48389H353.304C356.172 9.48389 358.249 9.87498 359.733 10.6572C361.118 11.4393 362.305 12.6126 363.096 14.177C363.887 15.7413 364.382 17.4034 364.382 19.1633C364.382 20.6299 364.085 21.9987 363.492 23.3675C362.898 24.7364 362.107 25.9096 361.118 26.9851C360.129 28.0606 358.546 29.0383 356.37 29.8205C357.161 30.3094 357.755 30.7005 358.15 31.0916C358.546 31.4826 359.041 32.1671 359.634 33.047C360.228 33.927 360.722 34.8069 361.118 35.5891L367.052 46.5396H361.414L356.271 36.7623C354.985 34.4158 353.403 32.3626 351.326 30.6027H346.38V46.5396H346.578ZM346.578 26.9851H351.326C353.304 26.9851 354.886 26.6918 355.876 26.1052C356.964 25.5185 357.755 24.6386 358.348 23.4653C358.942 22.2921 359.238 21.021 359.238 19.6522C359.238 18.4789 359.041 17.4034 358.546 16.5235C358.052 15.6435 357.359 14.8614 356.37 14.177C355.48 13.5903 353.798 13.1992 351.622 13.1992H346.479V26.9851H346.578Z" fill="black"/>
<path d="M381.592 46.5396V13.1992H368.833V9.48389H399V13.1992H386.439V46.5396H381.592Z" fill="black"/>
<path d="M5.44001 46.1485C6.03347 46.7351 6.33019 47.6151 6.23128 48.3973C6.13237 49.1794 5.83565 49.9616 5.24219 50.5483C3.95637 51.6238 1.97819 51.6237 0.791274 50.3527C0.197819 49.6683 0 48.8861 0 48.1039C0 47.3218 0.395637 46.5396 0.989093 45.953C2.27491 44.8775 4.2531 44.8775 5.44001 46.1485Z" fill="#8B00FF"/>
<path d="M49.059 26.7896C49.059 26.8873 49.059 26.9851 49.059 26.9851C49.059 27.6695 49.1579 28.3539 49.4547 29.0383L39.8605 37.8378L30.2663 46.6373C29.475 46.1485 28.6837 45.9529 27.8924 45.9529L17.507 16.1324C17.9026 15.9368 18.3971 15.6435 18.6939 15.2524C19.0895 14.8613 19.3862 14.568 19.683 14.0792L49.059 26.7896Z" fill="#8B00FF"/>
<path d="M8.704 50.0594L23.5404 51.4282C23.7382 52.2104 24.0349 52.8948 24.6284 53.4814C25.2219 54.0681 25.9142 54.4591 26.6066 54.7525L26.9033 66.4851L27.0022 71.5693C26.6066 71.7648 26.112 71.9604 25.8153 72.2537L7.31927 52.3081C8.01164 51.7215 8.40728 50.9393 8.704 50.0594Z" fill="#8B00FF"/>
<path opacity="0.5" d="M14.4408 16.8168C14.5397 16.8168 14.6386 16.8168 14.7375 16.8168L25.2219 46.9307C25.123 47.0285 25.0241 47.1262 24.9251 47.224C24.4306 47.6151 24.1339 48.2017 23.8371 48.6906L9.00075 47.3218C8.80293 46.1485 8.30838 45.1708 7.51711 44.2908C6.72584 43.5087 5.83565 42.922 4.74765 42.6287L13.2538 16.6213C13.6495 16.719 14.0451 16.719 14.4408 16.8168Z" fill="#8B00FF"/>
<path d="M32.4422 50.9393C32.5411 50.1571 32.4422 49.375 32.0466 48.5928L51.3339 31.0916C52.0263 31.4826 52.8175 31.6782 53.6088 31.6782L64.7856 62.5742C64.3899 62.7698 63.9943 63.0631 63.5987 63.3564C63.203 63.6497 62.9063 64.0408 62.7085 64.4319L32.4422 50.9393Z" fill="#8B00FF"/>
<path d="M48.3666 7.03961C49.2568 8.01733 50.3448 8.60396 51.6306 8.79951V9.28837L51.9274 22.8787C51.4328 23.172 50.9383 23.4654 50.4437 23.8564C50.3448 23.9542 50.2459 24.052 50.147 24.1498L40.0582 19.8478L20.5731 11.4394C20.5731 11.3416 20.5731 11.2438 20.5731 11.146C20.5731 10.755 20.5731 10.3639 20.4742 9.97278L46.7841 4.00867C47.0808 5.08416 47.5754 6.15966 48.3666 7.03961Z" fill="#8B00FF"/>
<path opacity="0.5" d="M74.4787 26.3985C73.8852 26.8873 73.4896 27.474 73.1929 28.1584L57.9608 26.3007C57.763 25.5185 57.4663 24.7364 56.8728 24.1497C56.2794 23.5631 55.587 23.172 54.8947 22.8787L54.499 8.89725V8.7017C55.2903 8.40839 56.0816 8.0173 56.7739 7.43066L74.4787 26.3985Z" fill="#8B00FF"/>
<path d="M67.8518 61.792C67.7529 61.792 67.6539 61.792 67.4561 61.792L56.2794 30.7005C56.3783 30.6027 56.4772 30.5049 56.5761 30.5049C56.9718 30.1138 57.3674 29.625 57.5652 29.1361L72.5994 30.9938C72.5994 32.3626 73.1929 33.7314 74.182 34.8069C74.8743 35.5891 75.8634 36.1757 76.8525 36.469L68.9398 62.0854C68.643 61.8898 68.2474 61.792 67.8518 61.792Z" fill="#8B00FF"/>
<path opacity="0.5" d="M32.4423 72.7425C31.7499 71.9604 30.8597 71.5693 29.9695 71.3737L29.5739 54.7524C30.1673 54.5569 30.6619 54.2636 31.1564 53.8725C31.2553 53.7747 31.3542 53.6769 31.4532 53.5792L61.9172 67.1695C61.9172 67.2673 61.9172 67.3651 61.9172 67.5606C61.9172 67.9517 61.9172 68.3428 62.0161 68.7339L33.827 74.8935C33.3324 74.0136 32.9368 73.3292 32.4423 72.7425Z" fill="#8B00FF"/>
<path opacity="0.5" d="M17.8037 11.0483C17.8037 11.8304 17.408 12.6126 16.8146 13.1993C15.5288 14.3725 13.5506 14.2747 12.4626 13.0037C11.8691 12.4171 11.5724 11.5371 11.6713 10.7549C11.6713 9.97277 12.0669 9.19059 12.6604 8.60396C13.8473 7.52846 15.8255 7.62623 17.0124 8.7995C17.6059 9.48391 17.9026 10.2661 17.8037 11.0483Z" fill="#8B00FF"/>
<path d="M54.7958 5.37746C53.5099 6.55073 51.5317 6.45295 50.4437 5.18191C49.8503 4.59528 49.5536 3.71533 49.6525 2.93315C49.6525 2.15097 50.0481 1.3688 50.6416 0.782162C51.9274 -0.391105 53.9056 -0.293333 54.9936 0.977706C55.587 1.56434 55.8838 2.44429 55.7848 3.22647C55.7848 4.00865 55.4881 4.79082 54.7958 5.37746Z" fill="#8B00FF"/>
<path opacity="0.5" d="M76.259 32.8515C75.6656 32.2648 75.3689 31.3849 75.4678 30.6027C75.4678 29.8205 75.8634 29.0384 76.4569 28.4517C77.7427 27.2785 79.7209 27.3762 80.8089 28.6473C81.4023 29.2339 81.6991 30.1138 81.6002 30.896C81.6002 31.6782 81.2045 32.4604 80.6111 33.047C79.3252 34.1225 77.3471 34.0247 76.259 32.8515Z" fill="#8B00FF"/>
<path d="M64.4888 67.5607C64.4888 66.7785 64.8845 65.9963 65.4779 65.4097C66.7637 64.2364 68.7419 64.3342 69.8299 65.6052C70.4234 66.1918 70.7201 67.0718 70.6212 67.854C70.6212 68.6362 70.2256 69.4183 69.6321 70.005C68.3463 71.1782 66.3681 71.0805 65.2801 69.8094C64.6867 69.125 64.4888 68.3428 64.4888 67.5607Z" fill="#8B00FF"/>
<path opacity="0.5" d="M26.8044 73.6225C28.0902 72.4492 30.0684 72.547 31.1564 73.818C31.7499 74.4047 32.0466 75.2846 31.9477 76.0668C31.9477 76.849 31.552 77.6312 30.9586 78.2178C29.6728 79.3911 27.6946 79.2933 26.6066 78.0222C26.0131 77.4356 25.7164 76.5557 25.8153 75.7735C25.8153 74.9913 26.112 74.2091 26.8044 73.6225Z" fill="#8B00FF"/>
<path d="M114.834 67.854C115.328 68.3428 115.625 68.9295 115.625 69.9072C115.625 71.1782 115.13 72.1559 114.24 72.6448C113.251 73.1337 111.965 73.427 110.284 73.427H106.327V61.2054H109.789C111.57 61.2054 112.855 61.401 113.746 61.8899C114.636 62.3787 115.13 63.1609 115.13 64.2364C115.13 64.9208 114.933 65.5074 114.438 65.9963C114.042 66.3874 113.449 66.7785 112.855 66.8762C113.647 67.0718 114.24 67.3651 114.834 67.854ZM109.196 63.2587V66.0941H110.284C111.471 66.0941 112.163 65.6052 112.163 64.6275C112.163 64.1386 111.965 63.7475 111.669 63.552C111.372 63.3564 110.778 63.2587 110.086 63.2587H109.196ZM111.965 70.9827C112.361 70.7871 112.559 70.2983 112.559 69.7116C112.559 68.5384 111.866 68.0495 110.383 68.0495H109.097V71.3738H110.185C110.976 71.276 111.57 71.1782 111.965 70.9827Z" fill="#8B00FF"/>
<path d="M125.021 73.427L124.428 70.7871H120.867L120.274 73.427H117.207L120.966 61.2054H124.527L128.285 73.427H125.021ZM121.263 68.6361H123.834L122.549 63.2587L121.263 68.6361Z" fill="#8B00FF"/>
<path d="M144.408 61.2054V73.427H130.56V61.2054H133.429V71.1782H136.198V61.2054H138.968V71.1782H141.737V61.2054H144.408Z" fill="#8B00FF"/>
<path d="M160.332 62.4765C161.222 63.552 161.618 65.1164 161.618 67.1696C161.618 69.3206 161.123 70.8849 160.233 72.0582C159.343 73.1337 158.057 73.7203 156.474 73.7203C155.683 73.7203 154.991 73.6226 154.397 73.3292C153.804 73.1337 153.21 72.7426 152.815 72.2537L154.101 70.6894C154.496 70.9827 154.793 71.1783 155.189 71.3738C155.485 71.4716 155.881 71.5693 156.376 71.5693C157.859 71.5693 158.65 70.4939 158.749 68.2451H154.595V66.1919H158.749C158.65 64.1386 157.859 63.0632 156.573 63.0632C156.178 63.0632 155.782 63.1609 155.386 63.2587C155.09 63.3565 154.694 63.6498 154.298 63.9431L152.914 62.281C153.507 61.7921 154.002 61.4988 154.595 61.2055C155.189 61.0099 155.881 60.8144 156.771 60.8144C158.255 60.9122 159.442 61.401 160.332 62.4765Z" fill="#8B00FF"/>
<path d="M174.476 61.2054L171.41 66.7785L174.773 73.427H171.608L168.937 68.1473H167.651V73.427H164.684V61.2054H167.651V65.9963H169.036L171.608 61.2054H174.476Z" fill="#8B00FF"/>
<path d="M184.07 61.2055C184.664 61.401 185.257 61.7921 185.752 62.1832L184.367 63.8453C183.971 63.552 183.675 63.3564 183.279 63.2587C182.883 63.1609 182.587 63.0631 182.092 63.0631C181.301 63.0631 180.608 63.4542 180.114 64.1386C179.619 64.823 179.421 65.8985 179.421 67.3651C179.421 68.8317 179.619 69.8094 180.114 70.4938C180.608 71.1782 181.301 71.5693 182.092 71.5693C182.587 71.5693 182.982 71.4715 183.279 71.276C183.675 71.0805 184.07 70.8849 184.466 70.5916L185.752 72.2537C185.257 72.7426 184.763 73.1337 184.07 73.427C183.378 73.7203 182.685 73.8181 181.894 73.8181C180.707 73.8181 179.718 73.5248 178.927 73.0359C178.136 72.547 177.443 71.7649 176.949 70.8849C176.454 69.9072 176.256 68.7339 176.256 67.3651C176.256 65.9963 176.454 64.9208 176.949 63.9431C177.443 62.9654 178.136 62.281 178.927 61.7921C179.817 61.3032 180.707 61.0099 181.795 61.0099C182.784 60.9121 183.477 61.0099 184.07 61.2055Z" fill="#8B00FF"/>
<path d="M198.115 61.2054V73.427H195.148V63.4542H191.488V73.427H188.521V61.2054H198.115Z" fill="#8B00FF"/>
<path d="M209.49 61.2054L209.193 63.2587H204.841V66.1918H208.6V68.2451H204.841V71.3738H209.49V73.427H201.874V61.2054H209.49Z" fill="#8B00FF"/>
<path d="M220.469 62.1832C221.359 62.8676 221.853 63.8453 221.853 65.1163C221.853 66.4851 221.458 67.5606 220.568 68.2451C219.677 68.9295 218.491 69.3205 217.007 69.3205H215.622V73.427H212.655V61.2054H216.611C218.293 61.2054 219.579 61.4988 220.469 62.1832ZM218.293 66.7785C218.688 66.4852 218.787 65.8985 218.787 65.2141C218.787 63.9431 218.095 63.2587 216.611 63.2587H215.622V67.2673H216.71C217.403 67.2673 217.897 67.0718 218.293 66.7785Z" fill="#8B00FF"/>
<path d="M232.734 61.2054L232.437 63.4542H229.469V73.427H226.502V63.4542H223.337V61.2054H232.734Z" fill="#8B00FF"/>
<path d="M249.548 67.854C250.043 68.3428 250.339 68.9295 250.339 69.9072C250.339 71.1782 249.845 72.1559 248.955 72.6448C247.966 73.1337 246.68 73.427 244.998 73.427H241.042V61.2054H244.504C246.284 61.2054 247.57 61.401 248.46 61.8899C249.35 62.3787 249.845 63.1609 249.845 64.2364C249.845 64.9208 249.647 65.5074 249.152 65.9963C248.757 66.3874 248.163 66.7785 247.57 66.8762C248.361 67.0718 249.054 67.3651 249.548 67.854ZM243.91 63.2587V66.0941H244.998C246.185 66.0941 246.878 65.6052 246.878 64.6275C246.878 64.1386 246.68 63.7475 246.383 63.552C246.086 63.3564 245.493 63.2587 244.8 63.2587H243.91ZM246.779 70.9827C247.174 70.7871 247.372 70.2983 247.372 69.7116C247.372 68.5384 246.68 68.0495 245.196 68.0495H243.91V71.3738H244.998C245.79 71.276 246.383 71.1782 246.779 70.9827Z" fill="#8B00FF"/>
<path d="M266.165 61.2055C266.758 61.401 267.352 61.7921 267.846 62.1832L266.462 63.8453C266.066 63.552 265.769 63.3564 265.374 63.2587C264.978 63.1609 264.681 63.0631 264.187 63.0631C263.395 63.0631 262.703 63.4542 262.208 64.1386C261.714 64.823 261.516 65.8985 261.516 67.3651C261.516 68.8317 261.714 69.8094 262.208 70.4938C262.703 71.1782 263.395 71.5693 264.187 71.5693C264.681 71.5693 265.077 71.4715 265.374 71.276C265.769 71.0805 266.165 70.8849 266.56 70.5916L267.846 72.2537C267.352 72.7426 266.857 73.1337 266.165 73.427C265.472 73.7203 264.78 73.8181 263.989 73.8181C262.802 73.8181 261.813 73.5248 261.022 73.0359C260.23 72.547 259.538 71.7649 259.043 70.8849C258.549 69.9072 258.351 68.7339 258.351 67.3651C258.351 65.9963 258.549 64.9208 259.043 63.9431C259.538 62.9654 260.23 62.281 261.022 61.7921C261.912 61.3032 262.802 61.0099 263.89 61.0099C264.879 60.9121 265.571 61.0099 266.165 61.2055Z" fill="#8B00FF"/>
<path d="M282.485 71.1782C281.496 72.0582 280.012 72.547 278.232 72.6448V74.1114H275.363V72.6448C273.583 72.547 272.099 72.0582 271.11 71.1782C270.121 70.2983 269.627 69.0272 269.627 67.2673C269.627 65.5074 270.121 64.1386 271.209 63.2587C272.198 62.3787 273.682 61.8899 275.462 61.7921V60.4233H278.331V61.7921C280.111 61.8899 281.595 62.3787 282.584 63.2587C283.573 64.1386 284.067 65.4097 284.067 67.1696C284.067 69.0272 283.474 70.2983 282.485 71.1782ZM273.286 69.9072C273.781 70.4938 274.473 70.7871 275.561 70.8849V63.6498C274.473 63.7475 273.781 64.0409 273.286 64.6275C272.792 65.2141 272.594 66.0941 272.594 67.2673C272.594 68.4406 272.792 69.3206 273.286 69.9072ZM280.408 69.9072C280.902 69.3206 281.1 68.4406 281.1 67.2673C281.1 66.0941 280.902 65.2141 280.408 64.7253C279.913 64.1386 279.221 63.8453 278.133 63.7475V70.9827C279.122 70.7871 279.913 70.4938 280.408 69.9072Z" fill="#8B00FF"/>
<path d="M294.552 61.2054L294.255 63.2587H289.903V66.1918H293.662V68.2451H289.903V71.3738H294.552V73.427H286.936V61.2054H294.552Z" fill="#8B00FF"/>
<path d="M305.531 62.1832C306.421 62.8676 306.915 63.8453 306.915 65.1163C306.915 66.4851 306.52 67.5606 305.63 68.2451C304.739 68.9295 303.553 69.3205 302.069 69.3205H300.684V73.427H297.717V61.2054H301.673C303.355 61.2054 304.641 61.4988 305.531 62.1832ZM303.355 66.7785C303.75 66.4852 303.849 65.8985 303.849 65.2141C303.849 63.9431 303.157 63.2587 301.673 63.2587H300.684V67.2673H301.772C302.465 67.2673 302.959 67.0718 303.355 66.7785Z" fill="#8B00FF"/>
<path d="M317.499 61.2054L317.202 63.2587H312.85V66.1918H316.609V68.2451H312.85V71.3738H317.499V73.427H309.883V61.2054H317.499Z" fill="#8B00FF"/>
<path d="M329.269 61.2054V73.427H326.302V61.2054H329.269Z" fill="#8B00FF"/>
<path d="M341.435 61.2054L341.138 63.4542H338.072V73.427H335.105V63.4542H331.939V61.2054H341.435Z" fill="#8B00FF"/>
<path d="M359.14 73.427H356.271V68.8317C356.271 67.1696 356.37 65.5074 356.667 64.0408L353.106 73.427H349.644V61.2054H352.513V65.8985C352.513 66.8762 352.513 67.6584 352.414 68.3428C352.315 69.0272 352.216 69.7116 352.117 70.5916L355.777 61.3032H359.238V73.427H359.14Z" fill="#8B00FF"/>
<path d="M376.251 62.1832C377.141 62.8676 377.636 63.8453 377.636 65.1163C377.636 66.4851 377.24 67.5606 376.35 68.2451C375.46 68.9295 374.273 69.3205 372.789 69.3205H371.503V73.427H368.536V61.2054H372.492C374.075 61.2054 375.361 61.4988 376.251 62.1832ZM374.075 66.7785C374.471 66.4852 374.569 65.8985 374.569 65.2141C374.569 63.9431 373.877 63.2587 372.393 63.2587H371.404V67.2673H372.492C373.185 67.2673 373.778 67.0718 374.075 66.7785Z" fill="#8B00FF"/>
<path d="M384.658 68.7339H383.471V73.427H380.504V61.2054H384.559C386.241 61.2054 387.527 61.4988 388.318 62.0854C389.208 62.672 389.604 63.6498 389.604 64.9208C389.604 65.703 389.406 66.3874 389.01 66.8762C388.615 67.3651 388.021 67.854 387.23 68.2451L390.395 73.427H387.131L384.658 68.7339ZM383.57 66.7785H384.757C385.449 66.7785 385.944 66.5829 386.241 66.2896C386.537 65.9963 386.735 65.5074 386.735 64.9208C386.735 64.3342 386.537 63.9431 386.241 63.6498C385.845 63.3564 385.351 63.2587 384.658 63.2587H383.57V66.7785Z" fill="#8B00FF"/>
</g>
<defs>
<clipPath id="clip0_444_1540">
<rect width="399" height="79" fill="white"/>
</clipPath>
</defs>
</svg>
