<svg width="596" height="585" viewBox="0 0 596 585" fill="none" xmlns="http://www.w3.org/2000/svg">
<path d="M39.3568 341.495L39.3636 341.502L39.3707 341.509C43.5954 345.734 45.7092 352.08 45.0061 357.703C44.2942 363.398 42.1646 369.053 37.9408 373.285C28.7357 381.059 14.614 381.035 6.15168 371.876C1.9189 366.935 0.5 361.286 0.5 355.599C0.5 349.991 3.30627 344.341 7.5614 340.08C16.7688 332.304 30.8952 332.329 39.3568 341.495Z" stroke="#E0E0E0"/>
<path d="M143.929 104.919L357.74 198.494V198.495V198.499V198.503V198.507V198.511V198.515V198.519V198.523V198.528V198.532V198.536V198.54V198.544V198.548V198.552V198.556V198.56V198.564V198.569V198.573V198.577V198.581V198.585V198.589V198.593V198.597V198.601V198.605V198.609V198.613V198.617V198.621V198.625V198.629V198.633V198.638V198.642V198.646V198.65V198.654V198.658V198.662V198.666V198.67V198.674V198.678V198.682V198.686V198.69V198.693V198.697V198.701V198.705V198.709V198.713V198.717V198.721V198.725V198.729V198.733V198.737V198.741V198.745V198.749V198.753V198.756V198.76V198.764V198.768V198.772V198.776V198.78V198.784V198.788V198.791V198.795V198.799V198.803V198.807V198.811V198.814V198.818V198.822V198.826V198.83V198.834V198.837V198.841V198.845V198.849V198.852V198.856V198.86V198.864V198.868V198.871V198.875V198.879V198.883V198.886V198.89V198.894V198.897V198.901V198.905V198.909V198.912V198.916V198.92V198.923V198.927V198.931V198.934V198.938V198.941V198.945V198.949V198.952V198.956V198.96V198.963V198.967V198.97V198.974V198.978V198.981V198.985V198.988V198.992V198.995V198.999V199.002V199.006V199.009V199.013V199.016V199.02V199.023V199.027V199.03V199.034V199.037V199.041V199.044V199.048V199.051V199.054V199.058V199.061V199.065V199.068V199.072V199.075V199.078V199.082V199.085V199.088V199.092V199.095V199.098V199.102V199.105V199.108V199.112V199.115V199.118V199.121V199.125V199.128V199.131V199.134V199.138V199.141V199.144V199.147V199.151V199.154V199.157V199.16V199.163V199.166V199.17V199.173V199.176V199.179V199.182V199.185V199.188V199.191V199.194V199.198V199.201V199.204V199.207V199.21V199.213V199.216V199.219V199.222V199.225V199.228V199.231V199.234V199.237V199.24V199.243V199.246V199.249V199.251V199.254V199.257V199.26V199.263V199.266V199.269V199.272V199.274V199.277V199.28V199.283V199.286V199.288V199.291V199.294V199.297V199.3V199.302V199.305V199.308V199.31V199.313V199.316V199.319V199.321V199.324V199.327V199.329V199.332V199.334V199.337V199.34V199.342V199.345V199.347V199.35V199.353V199.355V199.358V199.36V199.363V199.365V199.368V199.37V199.373V199.375V199.378V199.38V199.382V199.385V199.387V199.39V199.392V199.394V199.397V199.399V199.401V199.404V199.406V199.408V199.411V199.413V199.415V199.417V199.42V199.422V199.424V199.426V199.429V199.431V199.433V199.435V199.437V199.439V199.442V199.444V199.446V199.448V199.45V199.452V199.454V199.456V199.458V199.46V199.462V199.464V199.466V199.468V199.47V199.472V199.474V199.476V199.478V199.48V199.482V199.484V199.485V199.487V199.489V199.491V199.493V199.495V199.496V199.498V199.5V199.502V199.503V199.505V199.507V199.509V199.51V199.512V199.514V199.515V199.517V199.519V199.52V199.522V199.523V199.525V199.527V199.528V199.53V199.531V199.533V199.534V199.536V199.537V199.539V199.54V199.541V199.543V199.544V199.546V199.547V199.548V199.55V199.551V199.552V199.554V199.555V199.556V199.558V199.559V199.56V199.561V199.563V199.564V199.565V199.566V199.567V199.568V199.57V199.571V199.572V199.573V199.574V199.575V199.576V199.577V199.578V199.579V199.58V199.581V199.582V199.583V199.584V199.585V199.586V199.586V199.587V199.588V199.589V199.59V199.591V199.591V199.592V199.593V199.594V199.594V199.595V199.596V199.597V199.597V199.598V199.599V199.599V199.6V199.6V199.601V199.602V199.602V199.603V199.603V199.604V199.604V199.605V199.605V199.606V199.606V199.606V199.607V199.607V199.608V199.608V199.608V199.609V199.609V199.609V199.609V199.61V199.61V199.61V199.61V199.61V199.611V199.611V199.611V199.611V199.611V199.611C357.74 204.608 358.439 209.625 360.532 214.649L290.73 279.405L220.95 344.14C215.317 340.698 209.675 339.27 204.034 339.213L128.454 119.701C131.28 118.256 134.742 116.121 136.885 113.281C139.662 110.505 141.809 108.356 143.929 104.919Z" fill="#8B00FF" stroke="#8B00FF"/>
<path d="M54.1618 386.691C58.9791 382.4 61.7966 376.797 63.9065 370.577L171.499 380.617C172.957 386.304 175.155 391.338 179.489 395.671C183.797 399.979 188.802 402.87 193.796 405.038L195.954 491.375L195.954 491.378L196.671 528.61C196.205 528.839 195.715 529.073 195.214 529.312C194.265 529.765 193.276 530.236 192.338 530.732C190.956 531.464 189.615 532.284 188.534 533.26L54.1618 386.691Z" stroke="#E0E0E0"/>
<path opacity="0.5" d="M105.329 124.992L105.388 125.007H105.45H105.454H105.458H105.462H105.467H105.471H105.475H105.479H105.484H105.488H105.492H105.496H105.501H105.505H105.509H105.513H105.517H105.522H105.526H105.53H105.534H105.539H105.543H105.547H105.551H105.556H105.56H105.564H105.568H105.573H105.577H105.581H105.585H105.589H105.594H105.598H105.602H105.606H105.611H105.615H105.619H105.623H105.628H105.632H105.636H105.64H105.644H105.649H105.653H105.657H105.661H105.666H105.67H105.674H105.678H105.683H105.687H105.691H105.695H105.699H105.704H105.708H105.712H105.716H105.721H105.725H105.729H105.733H105.738H105.742H105.746H105.75H105.754H105.759H105.763H105.767H105.771H105.776H105.78H105.784H105.788H105.793H105.797H105.801H105.805H105.809H105.814H105.818H105.822H105.826H105.831H105.835H105.839H105.843H105.848H105.852H105.856H105.86H105.865H105.869H105.873H105.877H105.881H105.886H105.89H105.894H105.898H105.903H105.907H105.911H105.915H105.92H105.924H105.928H105.932H105.936H105.941H105.945H105.949H105.953H105.958H105.962H105.966H105.97H105.975H105.979H105.983H105.987H105.991H105.996H106H106.004H106.008H106.013H106.017H106.021H106.025H106.03H106.034H106.038H106.042H106.046H106.051H106.055H106.059H106.063H106.068H106.072H106.076H106.08H106.085H106.089H106.093H106.097H106.102H106.106H106.11H106.114H106.118H106.123H106.127H106.131H106.135H106.14H106.144H106.148H106.152H106.157H106.161H106.165H106.169H106.173H106.178H106.182H106.186H106.19H106.195H106.199H106.203H106.207H106.212H106.216H106.22H106.224H106.228H106.233H106.237H106.241H106.245H106.25H106.254H106.258H106.262H106.267H106.271H106.275H106.279H106.283H106.288H106.292H106.296H106.3H106.305H106.309H106.313H106.317H106.322H106.326H106.33H106.334H106.338H106.343H106.347H106.351H106.355H106.36H106.364H106.368H106.372H106.377H106.381H106.385H106.389H106.394H106.398H106.402H106.406H106.41H106.415H106.419H106.423H106.427H106.432H106.436H106.44H106.444H106.449H106.453H106.457H106.461H106.465H106.47H106.474H106.478H106.482H106.487H106.491H106.495H106.499H106.504H106.508H106.512H106.516H106.52H106.525H106.529H106.533H106.537H106.542H106.546H106.55H106.554H106.559H106.563H106.567H106.571H106.575H106.58H106.584H106.588H106.592H106.597H106.601H106.605H106.609H106.614H106.618H106.622H106.626H106.63H106.635H106.639H106.643H106.647H106.652H106.656H106.66H106.664H106.669H106.673H106.677H106.681H106.686H106.69H106.694H106.698H106.702H106.707H106.711H106.715H106.719H106.724H106.728H106.732H106.736H106.741H106.745H106.749H106.753H106.757H106.762H106.766H106.77H106.774H106.779H106.783H106.787H106.791H106.796H106.8H106.804H106.808H106.812H106.817H106.821H106.825H106.829H106.834H106.838H106.842H106.846H106.851H106.855H106.859H106.863H106.867H106.872H106.876H106.88H106.884H106.889H106.893H106.897H106.901H106.906H106.91H106.914H106.918H106.923H106.927H106.931H106.935H106.939H106.944H106.948H106.952H106.956H106.961H106.965H106.969H106.973H106.978H106.982H106.986H106.99H106.994H106.999H107.003H107.007H107.011H107.016H107.02H107.024H107.028H107.033H107.037H107.041H107.045H107.049H107.054H107.058H107.062H107.066H107.071H107.075H107.079H107.083H107.088H107.092H107.096H107.1H107.104H107.109H107.113H107.117H107.121H107.126H107.13H107.134H107.138H107.143H107.147H107.151H107.155H107.159H107.164H107.168H107.172H107.176H107.181H107.185H107.189H107.193H107.198H107.202H107.206H107.21H107.215H107.219H107.223H107.227H107.231H107.236H107.24H107.244H107.248H107.253H107.257H107.26L183.601 346.8L182.739 347.662L181.675 348.726C178.557 351.229 176.489 354.786 174.636 357.972C174.352 358.46 174.073 358.939 173.797 359.404L66.1539 349.359C64.6515 340.763 61.0178 333.573 55.2654 327.102L55.2556 327.091L55.2452 327.081C49.5434 321.38 43.1232 317.054 35.3044 314.816L97.1164 123.656C98.4374 123.954 99.7526 124.118 101.04 124.279L101.054 124.281C102.503 124.462 103.918 124.639 105.329 124.992Z" stroke="#E0E0E0"/>
<path d="M457.684 475.548L237.441 376.236C238.086 370.606 237.365 364.964 234.626 359.324L374.923 230.556C379.878 233.313 385.49 234.717 391.111 234.774L472.461 462.233C469.664 463.692 466.879 465.781 464.135 467.838L464.112 467.856C461.294 469.969 459.153 472.747 457.684 475.548Z" fill="#8B00FF" stroke="#E0E0E0"/>
<path d="M352.811 52.623L352.813 52.6253C359.29 59.8217 367.197 64.1901 376.519 65.7166L376.519 68.9005L376.519 68.9113L378.679 169.002C375.153 171.118 371.597 173.266 368.039 176.112L368.018 176.129L367.998 176.149L366.071 178.076L292.715 146.436L292.713 146.435L150.73 84.4608V84.458V84.4538V84.4496V84.4453V84.4411V84.4369V84.4326V84.4284V84.4242V84.42V84.4157V84.4115V84.4073V84.403V84.3988V84.3946V84.3903V84.3861V84.3819V84.3776V84.3734V84.3692V84.3649V84.3607V84.3565V84.3522V84.348V84.3438V84.3396V84.3353V84.3311V84.3269V84.3226V84.3184V84.3142V84.3099V84.3057V84.3015V84.2972V84.293V84.2888V84.2845V84.2803V84.2761V84.2719V84.2676V84.2634V84.2592V84.2549V84.2507V84.2465V84.2422V84.238V84.2338V84.2295V84.2253V84.2211V84.2168V84.2126V84.2084V84.2041V84.1999V84.1957V84.1915V84.1872V84.183V84.1788V84.1745V84.1703V84.1661V84.1618V84.1576V84.1534V84.1491V84.1449V84.1407V84.1364V84.1322V84.128V84.1238V84.1195V84.1153V84.1111V84.1068V84.1026V84.0984V84.0941V84.0899V84.0857V84.0814V84.0772V84.073V84.0687V84.0645V84.0603V84.056V84.0518V84.0476V84.0434V84.0391V84.0349V84.0307V84.0264V84.0222V84.018V84.0137V84.0095V84.0053V84.001V83.9968V83.9926V83.9883V83.9841V83.9799V83.9757V83.9714V83.9672V83.963V83.9587V83.9545V83.9503V83.946V83.9418V83.9376V83.9333V83.9291V83.9249V83.9206V83.9164V83.9122V83.908V83.9037V83.8995V83.8953V83.891V83.8868V83.8826V83.8783V83.8741V83.8699V83.8656V83.8614V83.8572V83.8529V83.8487V83.8445V83.8402V83.836V83.8318V83.8276V83.8233V83.8191V83.8149V83.8106V83.8064V83.8022V83.7979V83.7937V83.7895V83.7852V83.781V83.7768V83.7725V83.7683V83.7641V83.7598V83.7556V83.7514V83.7472V83.7429V83.7387V83.7345V83.7302V83.726V83.7218V83.7175V83.7133V83.7091V83.7048V83.7006V83.6964V83.6921V83.6879V83.6837V83.6795V83.6752V83.671V83.6668V83.6625V83.6583V83.6541V83.6498V83.6456V83.6414V83.6371V83.6329V83.6287V83.6244V83.6202V83.616V83.6118V83.6075V83.6033V83.5991V83.5948V83.5906V83.5864V83.5821V83.5779V83.5737V83.5694V83.5652V83.561V83.5567V83.5525V83.5483V83.544V83.5398V83.5356V83.5314V83.5271V83.5229V83.5187V83.5144V83.5102V83.506V83.5017V83.4975V83.4933V83.489V83.4848V83.4806V83.4763V83.4721V83.4679V83.4636V83.4594V83.4552V83.451V83.4467V83.4425V83.4383V83.434V83.4298V83.4256V83.4213V83.4171V83.4129V83.4086V83.4044V83.4002V83.3959V83.3917V83.3875V83.3833V83.379V83.3748V83.3706V83.3663V83.3621V83.3579V83.3536V83.3494V83.3452V83.3409V83.3367V83.3325V83.3282V83.324V83.3198V83.3156V83.3113V83.3071V83.3029V83.2986V83.2944V83.2902V83.2859V83.2817V83.2775V83.2732V83.269V83.2648V83.2605V83.2563V83.2521V83.2478V83.2436V83.2394V83.2352V83.2309V83.2267V83.2225V83.2182V83.214V83.2098V83.2055V83.2013V83.1971V83.1928V83.1886V83.1844V83.1801V83.1759V83.1717V83.1674V83.1632V83.159V83.1548V83.1505V83.1463V83.1421V83.1378V83.1336V83.1294V83.1251V83.1209V83.1167V83.1124V83.1082V83.104V83.0997V83.0955V83.0913V83.0871V83.0828V83.0786V83.0744V83.0701V83.0659V83.0617V83.0574V83.0532V83.049V83.0447V83.0405V83.0363V83.032V83.0278V83.0236V83.0194V83.0151V83.0109V83.0067V83.0024V82.9982V82.994V82.9897V82.9855V82.9813V82.977V82.9728V82.9686V82.9643V82.9601V82.9559V82.9516V82.9474V82.9432V82.939V82.9347V82.9305V82.9263V82.922V82.9178V82.9136V82.9093V82.9051V82.9009V82.8966V82.8924V82.8882V82.8839V82.8797V82.8755V82.8713V82.867V82.8628V82.8586V82.8543V82.8501V82.8459V82.8416V82.8374V82.8332V82.8289V82.8247V82.8205V82.8162V82.812V82.8078V82.8035V82.7993V82.7951V82.7909V82.7866V82.7824V82.7782V82.7739V82.7697V82.7655V82.7612V82.757V82.7528V82.7485V82.7443V82.7401V82.7358V82.7316V82.7274V82.7232V82.7189V82.7147V82.7105V82.7062V82.702V82.6978V82.6935V82.6893V82.6851V82.6808V82.6766V82.6724V82.6681V82.6639V82.6597V82.6554V82.6512V82.647V82.6428V82.6385V82.6343V82.6301V82.6258V82.6216V82.5938C150.73 79.8843 150.73 77.1125 150.11 74.3305L341.274 30.4981C343.468 38.3392 347.08 46.1771 352.811 52.623Z" stroke="#E0E0E0"/>
<path opacity="0.5" d="M414.534 55.8705L543.139 195.234C539.053 198.753 536.268 202.926 534.161 207.735L423.644 194.102C422.192 188.406 419.998 182.661 415.652 178.315C411.344 174.007 406.339 171.116 401.344 168.948L398.464 66.0046V64.9131C404.029 62.8005 409.604 60.0012 414.534 55.8705Z" stroke="#8B00FF"/>
<path d="M413.132 226.109H413.339L413.485 225.963C416.3 223.148 419.148 219.623 420.671 216.042L529.64 229.662C529.764 239.764 534.133 249.811 541.321 257.717C546.333 263.443 553.431 267.757 560.571 269.993L503.126 458.099C500.939 456.825 498.192 456.201 495.469 456.201H495.465H495.461H495.457H495.452H495.448H495.444H495.44H495.435H495.431H495.427H495.423H495.418H495.414H495.41H495.406H495.402H495.397H495.393H495.389H495.385H495.38H495.376H495.372H495.368H495.363H495.359H495.355H495.351H495.346H495.342H495.338H495.334H495.329H495.325H495.321H495.317H495.312H495.308H495.304H495.3H495.295H495.291H495.287H495.283H495.278H495.274H495.27H495.266H495.261H495.257H495.253H495.248H495.244H495.24H495.236H495.231H495.227H495.223H495.218H495.214H495.21H495.206H495.201H495.197H495.193H495.188H495.184H495.18H495.175H495.171H495.167H495.163H495.158H495.154H495.15H495.145H495.141H495.137H495.132H495.128H495.124H495.119H495.115H495.111H495.106H495.102H495.098H495.093H495.089H495.084H495.08H495.076H495.071H495.067H495.063H495.058H495.054H495.049H495.045H495.041H495.036H495.032H495.027H495.023H495.019H495.014H495.01H495.005H495.001H494.997H494.992H494.988H494.983H494.979H494.974H494.97H494.965H494.961H494.957H494.952H494.948H494.943H494.939H494.934H494.93H494.925H494.921H494.916H494.912H494.907H494.903H494.898H494.894H494.889H494.885H494.88H494.876H494.871H494.867H494.862H494.857H494.853H494.848H494.844H494.839H494.835H494.83H494.825H494.821H494.816H494.812H494.807H494.802H494.798H494.793H494.789H494.784H494.779H494.775H494.77H494.765H494.761H494.756H494.751H494.747H494.742H494.737H494.733H494.728H494.723H494.719H494.714H494.709H494.705H494.7H494.695H494.69H494.686H494.681H494.676H494.671H494.667H494.662H494.657H494.652H494.647H494.643H494.638H494.633H494.628H494.623H494.619H494.614H494.609H494.604H494.599H494.594H494.59H494.585H494.58H494.575H494.57H494.565H494.56H494.555H494.55H494.545H494.541H494.536H494.531H494.526H494.521H494.516H494.511H494.506H494.501H494.496H494.491H494.486H494.481H494.476H494.471H494.466H494.461H494.456H494.451H494.446H494.441H494.435H494.43H494.425H494.42H494.415H494.41H494.405H494.4H494.395H494.389H494.384H494.379H494.374H494.369H494.364H494.358H494.353H494.348H494.343H494.338H494.332H494.327H494.322H494.317H494.311H494.306H494.301H494.296H494.29H494.285H494.28H494.274H494.269H494.264H494.258H494.253H494.248H494.242H494.237H494.231H494.226H494.221H494.215H494.21H494.204H494.199H494.194H494.188H494.183H494.177H494.172H494.166H494.161H494.155H494.15H494.144H494.139H494.133H494.127H494.122H494.116H494.111H494.105H494.1H494.094H494.088H494.083H494.077H494.071H494.066H494.06H494.054H494.049H494.043H494.037H494.032H494.026H494.02H494.014H494.009H494.003H493.997H493.991H493.985H493.98H493.974H493.968H493.962H493.956H493.95H493.945H493.939H493.933H493.927H493.921H493.915H493.909H493.903H493.897H493.891H493.885H493.879H493.873H493.867H493.861H493.855H493.849H493.843H493.837H493.831H493.825H493.819H493.813H493.807H493.801H493.794H493.788H493.782H493.776H493.77H493.764H493.757H493.751H493.745H493.739H493.732H493.726H493.72H493.714H493.707H493.701H493.695H493.688H493.682H493.676H493.669H493.663H493.656H493.65H493.644H493.637H493.631H493.624H493.618H493.611H493.605H493.598H493.592H493.585H493.579H493.572H493.566H493.559H493.553H493.546H493.539H493.533H493.526H493.52H493.513H493.506H493.5H493.493H493.486H493.479H493.473H493.466H493.459H493.452H493.446H493.439H493.432H493.425H493.418H493.412H493.405H493.398H493.391H493.384H493.377H493.37H493.363H493.356H493.349H493.342H493.335H493.328H493.321H493.314H493.307H493.3H493.293H493.286H493.279H493.272H493.265H493.258H493.25H493.243H493.236H493.229H493.222H493.214H493.207H493.2H493.193H493.185H493.178H493.171H493.163H493.156H493.149H493.141H493.134H493.127H493.119H493.112H493.104H493.097H493.089H493.082H493.074H493.067H493.059H493.052H493.044H493.037H493.029H493.022H493.014H493.006H492.999H492.991H492.983H492.976H492.968H492.96H492.953H492.945H492.937H492.933L411.542 227.184C411.824 226.906 412.089 226.655 412.348 226.461C412.681 226.211 412.934 226.109 413.132 226.109Z" stroke="#E0E0E0"/>
<path opacity="0.5" d="M237.285 537.264L237.277 537.254C232.23 531.487 225.777 528.56 219.335 527.072L216.464 405.061C220.711 403.595 224.275 401.435 227.824 398.597L227.845 398.58L227.865 398.56L229.787 396.638L451.634 496.743V496.744V496.749V496.753V496.757V496.762V496.766V496.77V496.775V496.779V496.783V496.788V496.792V496.797V496.801V496.805V496.81V496.814V496.818V496.823V496.827V496.831V496.836V496.84V496.845V496.849V496.853V496.858V496.862V496.867V496.871V496.875V496.88V496.884V496.889V496.893V496.898V496.902V496.906V496.911V496.915V496.92V496.924V496.929V496.933V496.938V496.942V496.946V496.951V496.955V496.96V496.964V496.969V496.973V496.978V496.982V496.987V496.991V496.996V497V497.005V497.009V497.014V497.019V497.023V497.028V497.032V497.037V497.041V497.046V497.05V497.055V497.06V497.064V497.069V497.073V497.078V497.083V497.087V497.092V497.096V497.101V497.106V497.11V497.115V497.12V497.124V497.129V497.133V497.138V497.143V497.147V497.152V497.157V497.162V497.166V497.171V497.176V497.18V497.185V497.19V497.195V497.199V497.204V497.209V497.214V497.218V497.223V497.228V497.233V497.237V497.242V497.247V497.252V497.257V497.261V497.266V497.271V497.276V497.281V497.285V497.29V497.295V497.3V497.305V497.31V497.315V497.32V497.324V497.329V497.334V497.339V497.344V497.349V497.354V497.359V497.364V497.369V497.374V497.379V497.384V497.389V497.394V497.399V497.404V497.409V497.414V497.419V497.424V497.429V497.434V497.439V497.444V497.449V497.454V497.459V497.464V497.469V497.474V497.48V497.485V497.49V497.495V497.5V497.505V497.51V497.516V497.521V497.526V497.531V497.536V497.542V497.547V497.552V497.557V497.562V497.568V497.573V497.578V497.583V497.589V497.594V497.599V497.605V497.61V497.615V497.621V497.626V497.631V497.637V497.642V497.647V497.653V497.658V497.663V497.669V497.674V497.68V497.685V497.691V497.696V497.701V497.707V497.712V497.718V497.723V497.729V497.734V497.74V497.745V497.751V497.757V497.762V497.768V497.773V497.779V497.784V497.79V497.796V497.801V497.807V497.813V497.818V497.824V497.829V497.835V497.841V497.847V497.852V497.858V497.864V497.869V497.875V497.881V497.887V497.893V497.898V497.904V497.91V497.916V497.922V497.927V497.933V497.939V497.945V497.951V497.957V497.963V497.969V497.974V497.98V497.986V497.992V497.998V498.004V498.01V498.016V498.022V498.028V498.034V498.04V498.046V498.052V498.058V498.065V498.071V498.077V498.083V498.089V498.095V498.101V498.107V498.114V498.12V498.126V498.132V498.138V498.145V498.151V498.157V498.163V498.17V498.176V498.182V498.188V498.195V498.201V498.207V498.214V498.22V498.227V498.233V498.239V498.246V498.252V498.259V498.265V498.272V498.278V498.285V498.291V498.298V498.304V498.311V498.317V498.324V498.33V498.337V498.343V498.35V498.357V498.363V498.37V498.377V498.383V498.39V498.397V498.403V498.41V498.417V498.423V498.43V498.437V498.444V498.451V498.457V498.464V498.471V498.478V498.485V498.492V498.499V498.505V498.512V498.519V498.526V498.533V498.54V498.547V498.554V498.561V498.568V498.575V498.582V498.589V498.596V498.603V498.61V498.618V498.625V498.632V498.639V498.646V498.653V498.661V498.668V498.675V498.682V498.689V498.697V498.704V498.711V498.719V498.726V498.733V498.741V498.748V498.755V498.763V498.77V498.778V498.785V498.792V498.8V498.807V498.815V498.822V498.83V498.837V498.845V498.853V498.86V498.868V498.875V498.883V498.891V498.898V498.906V498.914V498.921V498.929V498.937V498.945V498.952V498.96V498.968V498.976V498.983V498.991V498.999V499.007V499.015V499.023V499.031V499.039V499.047V499.055V499.063V499.071V499.079V499.087V499.095V499.103V499.111V499.119V499.127V499.135V499.143V499.151V499.159V499.168V499.176V499.184V499.192V499.2V499.209V499.217V499.225V499.234V499.242V499.25V499.259V499.267V499.275V499.284V499.292V499.301V499.309V499.336C451.634 502.045 451.634 504.815 452.253 507.596L247.268 552.903C243.743 546.564 240.87 541.565 237.285 537.264L237.285 537.264Z" stroke="#E0E0E0"/>
<path opacity="0.5" d="M129.51 81.8375L129.506 81.8684V81.8995C129.506 87.511 126.697 93.1644 122.437 97.4264C113.247 105.902 99.136 105.177 91.3862 96.0197L91.3728 96.0038L91.3581 95.9891C87.1333 91.765 85.0195 85.4188 85.7226 79.795L85.7265 79.7641V79.733C85.7265 74.1217 88.5358 68.4686 92.7949 64.2067C101.244 56.4711 115.368 57.152 123.861 65.6298C128.119 70.6029 130.21 76.2388 129.51 81.8375Z" stroke="#E0E0E0"/>
<path d="M399.806 39.6344L399.799 39.6404L399.792 39.6466C390.601 48.1292 376.485 47.4068 368.733 38.2467L368.72 38.2309L368.705 38.2161C364.48 33.992 362.367 27.6458 363.07 22.022L363.074 21.9911V21.96C363.074 16.3485 365.883 10.6951 370.143 6.43311C379.334 -2.04235 393.444 -1.31789 401.194 7.83978L401.207 7.85565L401.222 7.87036C405.447 12.0945 407.561 18.4407 406.858 24.0645L406.854 24.0954V24.1265C406.854 29.7745 404.739 35.4067 399.806 39.6344Z" stroke="#E0E0E0"/>
<path d="M557.23 242.604L557.222 242.596L557.215 242.588C552.99 238.364 550.876 232.018 551.579 226.394L551.583 226.363V226.332C551.583 220.721 554.393 215.067 558.652 210.805C567.843 202.33 581.954 203.054 589.703 212.212L589.717 212.228L589.732 212.242C593.956 216.467 596.07 222.813 595.367 228.437L595.363 228.467V228.499C595.363 234.107 592.557 239.757 588.302 244.018C579.105 251.784 564.979 251.056 557.23 242.604Z" fill="#8B00FF" stroke="#E0E0E0"/>
<path d="M509.533 485.188L509.546 485.204L509.561 485.219C513.786 489.443 515.899 495.789 515.196 501.413L515.192 501.444V501.475C515.192 507.087 512.383 512.74 508.123 517.002C498.932 525.477 484.822 524.753 477.072 515.595L477.07 515.593C472.833 510.65 471.412 504.998 471.412 499.309C471.412 493.697 474.222 488.044 478.481 483.782C487.672 475.306 501.783 476.031 509.533 485.188Z" stroke="#E0E0E0"/>
<path opacity="0.5" d="M196.057 544.463L196.064 544.457L196.071 544.451C205.262 535.968 219.378 536.69 227.13 545.851L227.143 545.866L227.158 545.881C231.383 550.105 233.496 556.451 232.793 562.075L232.789 562.106V562.137C232.789 567.749 229.98 573.402 225.72 577.664C216.529 586.14 202.419 585.415 194.669 576.257L194.656 576.242L194.641 576.227C190.416 572.003 188.303 565.657 189.006 560.033L189.009 560.002V559.971C189.009 554.323 191.124 548.691 196.057 544.463Z" stroke="#E0E0E0"/>
</svg>
