<svg width="787" height="771" viewBox="0 0 787 771" fill="none" xmlns="http://www.w3.org/2000/svg">
<path d="M52.0603 450.593L52.0671 450.6L52.0741 450.608C57.6847 456.217 60.4914 464.642 59.5574 472.113C58.6145 479.655 55.792 487.158 50.1824 492.775C37.9746 503.09 19.2334 503.066 7.99944 490.905C2.38085 484.347 0.5 476.851 0.5 469.316C0.5 461.86 4.23014 454.363 9.87112 448.716C22.0812 438.4 40.827 438.425 52.0603 450.593Z" stroke="#E0E0E0"/>
<path d="M472.802 261.539C472.802 262.492 472.802 263.445 472.802 263.445C472.802 270.117 473.755 276.789 476.615 283.46L384.152 369.24L291.688 455.019C284.063 450.253 276.437 448.347 268.811 448.347L168.722 157.651C172.535 155.745 177.301 152.885 180.16 149.073C183.973 145.261 186.833 142.401 189.693 137.636L472.802 261.539Z" fill="black" fill-opacity="0.05"/>
<path d="M189.893 138.269L472.302 261.866V261.867V261.873V261.878V261.884V261.889V261.895V261.9V261.906V261.911V261.917V261.922V261.927V261.933V261.938V261.944V261.949V261.955V261.96V261.966V261.971V261.977V261.982V261.988V261.993V261.998V262.004V262.009V262.015V262.02V262.026V262.031V262.036V262.042V262.047V262.053V262.058V262.063V262.069V262.074V262.08V262.085V262.09V262.096V262.101V262.106V262.112V262.117V262.123V262.128V262.133V262.139V262.144V262.149V262.155V262.16V262.165V262.17V262.176V262.181V262.186V262.192V262.197V262.202V262.207V262.213V262.218V262.223V262.228V262.234V262.239V262.244V262.249V262.255V262.26V262.265V262.27V262.275V262.281V262.286V262.291V262.296V262.301V262.307V262.312V262.317V262.322V262.327V262.332V262.337V262.343V262.348V262.353V262.358V262.363V262.368V262.373V262.378V262.383V262.388V262.393V262.398V262.403V262.408V262.414V262.419V262.424V262.429V262.434V262.439V262.444V262.449V262.453V262.458V262.463V262.468V262.473V262.478V262.483V262.488V262.493V262.498V262.503V262.508V262.513V262.517V262.522V262.527V262.532V262.537V262.542V262.547V262.551V262.556V262.561V262.566V262.571V262.575V262.58V262.585V262.59V262.594V262.599V262.604V262.609V262.613V262.618V262.623V262.627V262.632V262.637V262.641V262.646V262.651V262.655V262.66V262.665V262.669V262.674V262.678V262.683V262.687V262.692V262.697V262.701V262.706V262.71V262.715V262.719V262.724V262.728V262.733V262.737V262.742V262.746V262.75V262.755V262.759V262.764V262.768V262.772V262.777V262.781V262.785V262.79V262.794V262.798V262.803V262.807V262.811V262.816V262.82V262.824V262.828V262.833V262.837V262.841V262.845V262.85V262.854V262.858V262.862V262.866V262.87V262.874V262.879V262.883V262.887V262.891V262.895V262.899V262.903V262.907V262.911V262.915V262.919V262.923V262.927V262.931V262.935V262.939V262.943V262.947V262.951V262.955V262.958V262.962V262.966V262.97V262.974V262.978V262.982V262.985V262.989V262.993V262.997V263V263.004V263.008V263.012V263.015V263.019V263.023V263.026V263.03V263.034V263.037V263.041V263.044V263.048V263.052V263.055V263.059V263.062V263.066V263.069V263.073V263.076V263.08V263.083V263.087V263.09V263.093V263.097V263.1V263.104V263.107V263.11V263.114V263.117V263.12V263.123V263.127V263.13V263.133V263.136V263.14V263.143V263.146V263.149V263.152V263.156V263.159V263.162V263.165V263.168V263.171V263.174V263.177V263.18V263.183V263.186V263.189V263.192V263.195V263.198V263.201V263.204V263.207V263.21V263.212V263.215V263.218V263.221V263.224V263.227V263.229V263.232V263.235V263.238V263.24V263.243V263.246V263.248V263.251V263.254V263.256V263.259V263.261V263.264V263.266V263.269V263.271V263.274V263.276V263.279V263.281V263.284V263.286V263.289V263.291V263.293V263.296V263.298V263.3V263.303V263.305V263.307V263.31V263.312V263.314V263.316V263.318V263.321V263.323V263.325V263.327V263.329V263.331V263.333V263.335V263.337V263.339V263.341V263.343V263.345V263.347V263.349V263.351V263.353V263.355V263.357V263.358V263.36V263.362V263.364V263.366V263.367V263.369V263.371V263.372V263.374V263.376V263.377V263.379V263.381V263.382V263.384V263.385V263.387V263.388V263.39V263.391V263.393V263.394V263.396V263.397V263.398V263.4V263.401V263.402V263.404V263.405V263.406V263.407V263.409V263.41V263.411V263.412V263.413V263.415V263.416V263.417V263.418V263.419V263.42V263.421V263.422V263.423V263.424V263.425V263.426V263.426V263.427V263.428V263.429V263.43V263.431V263.431V263.432V263.433V263.434V263.434V263.435V263.436V263.436V263.437V263.437V263.438V263.439V263.439V263.44V263.44V263.44V263.441V263.441V263.442V263.442V263.442V263.443V263.443V263.443V263.444V263.444V263.444V263.445V263.445V263.445C472.302 270.058 473.232 276.692 476.018 283.332L383.812 368.873L291.628 454.393C284.147 449.797 276.656 447.906 269.168 447.848L169.337 157.901C173.086 155.994 177.702 153.166 180.539 149.402C184.239 145.702 187.08 142.86 189.893 138.269Z" stroke="black" stroke-opacity="0.05"/>
<path d="M71.2545 510.34C77.6879 504.662 81.4296 497.21 84.2323 488.913L226.47 502.186C228.39 509.72 231.281 516.371 237.001 522.09C242.695 527.784 249.316 531.599 255.927 534.459L258.779 648.509L258.779 648.512L259.726 697.753C259.08 698.073 258.399 698.397 257.704 698.729C256.455 699.324 255.157 699.943 253.921 700.597C252.05 701.587 250.246 702.696 248.816 704.017L71.2545 510.34Z" stroke="#E0E0E0"/>
<path opacity="0.5" d="M139.05 164.808L139.11 164.823H139.172H139.177H139.183H139.188H139.194H139.2H139.205H139.211H139.216H139.222H139.228H139.233H139.239H139.244H139.25H139.255H139.261H139.267H139.272H139.278H139.283H139.289H139.295H139.3H139.306H139.311H139.317H139.322H139.328H139.334H139.339H139.345H139.35H139.356H139.362H139.367H139.373H139.378H139.384H139.389H139.395H139.401H139.406H139.412H139.417H139.423H139.429H139.434H139.44H139.445H139.451H139.457H139.462H139.468H139.473H139.479H139.484H139.49H139.496H139.501H139.507H139.512H139.518H139.524H139.529H139.535H139.54H139.546H139.551H139.557H139.563H139.568H139.574H139.579H139.585H139.591H139.596H139.602H139.607H139.613H139.618H139.624H139.63H139.635H139.641H139.646H139.652H139.658H139.663H139.669H139.674H139.68H139.686H139.691H139.697H139.702H139.708H139.713H139.719H139.725H139.73H139.736H139.741H139.747H139.753H139.758H139.764H139.769H139.775H139.78H139.786H139.792H139.797H139.803H139.808H139.814H139.82H139.825H139.831H139.836H139.842H139.847H139.853H139.859H139.864H139.87H139.875H139.881H139.887H139.892H139.898H139.903H139.909H139.915H139.92H139.926H139.931H139.937H139.942H139.948H139.954H139.959H139.965H139.97H139.976H139.982H139.987H139.993H139.998H140.004H140.009H140.015H140.021H140.026H140.032H140.037H140.043H140.049H140.054H140.06H140.065H140.071H140.076H140.082H140.088H140.093H140.099H140.104H140.11H140.116H140.121H140.127H140.132H140.138H140.144H140.149H140.155H140.16H140.166H140.171H140.177H140.183H140.188H140.194H140.199H140.205H140.211H140.216H140.222H140.227H140.233H140.238H140.244H140.25H140.255H140.261H140.266H140.272H140.278H140.283H140.289H140.294H140.3H140.305H140.311H140.317H140.322H140.328H140.333H140.339H140.345H140.35H140.356H140.361H140.367H140.373H140.378H140.384H140.389H140.395H140.4H140.406H140.412H140.417H140.423H140.428H140.434H140.44H140.445H140.451H140.456H140.462H140.467H140.473H140.479H140.484H140.49H140.495H140.501H140.507H140.512H140.518H140.523H140.529H140.534H140.54H140.546H140.551H140.557H140.562H140.568H140.574H140.579H140.585H140.59H140.596H140.602H140.607H140.613H140.618H140.624H140.629H140.635H140.641H140.646H140.652H140.657H140.663H140.669H140.674H140.68H140.685H140.691H140.696H140.702H140.708H140.713H140.719H140.724H140.73H140.736H140.741H140.747H140.752H140.758H140.763H140.769H140.775H140.78H140.786H140.791H140.797H140.803H140.808H140.814H140.819H140.825H140.83H140.836H140.842H140.847H140.853H140.858H140.864H140.87H140.875H140.881H140.886H140.892H140.898H140.903H140.909H140.914H140.92H140.925H140.931H140.937H140.942H140.948H140.953H140.959H140.965H140.97H140.976H140.981H140.987H140.992H140.998H141.004H141.009H141.015H141.02H141.026H141.032H141.037H141.043H141.048H141.054H141.059H141.065H141.071H141.076H141.082H141.087H141.093H141.099H141.104H141.11H141.115H141.121H141.127H141.132H141.138H141.143H141.149H141.154H141.16H141.166H141.171H141.177H141.182H141.188H141.194H141.199H141.205H141.21H141.216H141.221H141.227H141.233H141.238H141.244H141.249H141.255H141.261H141.266H141.272H141.277H141.283H141.288H141.294H141.3H141.305H141.311H141.316H141.322H141.328H141.333H141.339H141.344H141.35H141.356H141.361H141.367H141.372H141.378H141.383H141.389H141.395H141.4H141.406H141.411H141.417H141.423H141.428H141.434H141.439H141.445H141.45H141.456H141.462H141.467H141.473H141.478H141.484H141.49H141.495H141.501H141.506H141.512H141.517H141.523H141.529H141.534H141.54H141.545H141.551H141.557H141.562H141.568H141.573H141.579H141.585H141.59H141.596H141.601H141.607H141.612H141.618H141.624H141.629H141.635H141.64H141.646H141.652H141.657H141.663H141.668H141.674H141.675L242.499 457.746L241.29 458.955L241.285 458.96L241.279 458.966L241.274 458.971L241.268 458.977L241.262 458.983L241.257 458.988L241.251 458.994L241.246 458.999L241.234 459.011L241.223 459.022L241.201 459.044L241.112 459.133L241.067 459.178L241.061 459.184L241.056 459.189L241.045 459.2L241.022 459.223L241 459.245L240.994 459.251L240.989 459.256L240.978 459.267L240.955 459.29L240.944 459.301L240.938 459.307L240.933 459.312L240.844 459.401L240.799 459.446L240.788 459.457L240.777 459.469L240.765 459.48L240.76 459.485L240.754 459.491L240.732 459.513L240.721 459.524L240.709 459.536L240.698 459.547L240.687 459.558L240.676 459.569L240.67 459.575L240.665 459.58L240.659 459.586L240.654 459.591L240.648 459.597L240.642 459.603L240.637 459.608L240.631 459.614L240.626 459.619L240.62 459.625L240.575 459.67L240.564 459.681L240.559 459.686L240.553 459.692L240.548 459.697L240.542 459.703L240.531 459.714L240.525 459.72L240.52 459.725L240.508 459.737L240.497 459.748L240.492 459.753L240.486 459.759L240.464 459.781L240.441 459.804L240.43 459.815L240.425 459.82L240.419 459.826L240.408 459.837L240.402 459.843L240.397 459.848L240.391 459.854L240.386 459.859L240.374 459.871L240.369 459.876L240.363 459.882L240.352 459.893L240.33 459.915L240.307 459.938L240.218 460.027L239.88 460.365C235.787 463.648 233.072 468.314 230.625 472.522C230.232 473.198 229.845 473.863 229.461 474.507L87.1727 461.229C85.2082 449.862 80.4194 440.362 72.8192 431.813L72.8095 431.802L72.7991 431.791C65.2496 424.243 56.7506 418.532 46.3913 415.6L128.066 163.011C129.85 163.424 131.628 163.646 133.376 163.865L133.39 163.866C135.301 164.105 137.178 164.34 139.05 164.808Z" stroke="#E0E0E0"/>
<path d="M604.119 627.832L313.2 496.651C314.075 489.173 313.123 481.683 309.461 474.196L494.797 304.09C501.369 307.77 508.829 309.636 516.298 309.693L623.747 610.129C620.026 612.051 616.316 614.833 612.65 617.582L612.627 617.6C608.884 620.406 606.051 624.107 604.119 627.832Z" fill="black" fill-opacity="0.05" stroke="#E0E0E0"/>
<path d="M465.756 69.3452L465.758 69.3475C474.314 78.8533 484.762 84.6076 497.086 86.5962L497.086 90.9343L497.086 90.9451L499.94 223.136C495.258 225.945 490.548 228.786 485.835 232.556L485.813 232.573L485.794 232.593L484.364 234.023L483.174 235.212L386.258 193.411L386.256 193.41L198.772 111.575V111.573V111.567V111.562V111.556V111.551V111.545V111.54V111.534V111.528V111.523V111.517V111.512V111.506V111.5V111.495V111.489V111.484V111.478V111.473V111.467V111.461V111.456V111.45V111.445V111.439V111.433V111.428V111.422V111.417V111.411V111.406V111.4V111.394V111.389V111.383V111.378V111.372V111.366V111.361V111.355V111.35V111.344V111.339V111.333V111.327V111.322V111.316V111.311V111.305V111.299V111.294V111.288V111.283V111.277V111.271V111.266V111.26V111.255V111.249V111.244V111.238V111.232V111.227V111.221V111.216V111.21V111.204V111.199V111.193V111.188V111.182V111.177V111.171V111.165V111.16V111.154V111.149V111.143V111.137V111.132V111.126V111.121V111.115V111.11V111.104V111.098V111.093V111.087V111.082V111.076V111.07V111.065V111.059V111.054V111.048V111.043V111.037V111.031V111.026V111.02V111.015V111.009V111.003V110.998V110.992V110.987V110.981V110.976V110.97V110.964V110.959V110.953V110.948V110.942V110.936V110.931V110.925V110.92V110.914V110.909V110.903V110.897V110.892V110.886V110.881V110.875V110.869V110.864V110.858V110.853V110.847V110.841V110.836V110.83V110.825V110.819V110.814V110.808V110.802V110.797V110.791V110.786V110.78V110.774V110.769V110.763V110.758V110.752V110.747V110.741V110.735V110.73V110.724V110.719V110.713V110.707V110.702V110.696V110.691V110.685V110.68V110.674V110.668V110.663V110.657V110.652V110.646V110.64V110.635V110.629V110.624V110.618V110.613V110.607V110.601V110.596V110.59V110.585V110.579V110.573V110.568V110.562V110.557V110.551V110.546V110.54V110.534V110.529V110.523V110.518V110.512V110.506V110.501V110.495V110.49V110.484V110.478V110.473V110.467V110.462V110.456V110.451V110.445V110.439V110.434V110.428V110.423V110.417V110.411V110.406V110.4V110.395V110.389V110.384V110.378V110.372V110.367V110.361V110.356V110.35V110.344V110.339V110.333V110.328V110.322V110.317V110.311V110.305V110.3V110.294V110.289V110.283V110.277V110.272V110.266V110.261V110.255V110.25V110.244V110.238V110.233V110.227V110.222V110.216V110.21V110.205V110.199V110.194V110.188V110.183V110.177V110.171V110.166V110.16V110.155V110.149V110.143V110.138V110.132V110.127V110.121V110.115V110.11V110.104V110.099V110.093V110.088V110.082V110.076V110.071V110.065V110.06V110.054V110.048V110.043V110.037V110.032V110.026V110.021V110.015V110.009V110.004V109.998V109.993V109.987V109.981V109.976V109.97V109.965V109.959V109.954V109.948V109.942V109.937V109.931V109.926V109.92V109.914V109.909V109.903V109.898V109.892V109.887V109.881V109.875V109.87V109.864V109.859V109.853V109.847V109.842V109.836V109.831V109.825V109.82V109.814V109.808V109.803V109.797V109.792V109.786V109.78V109.775V109.769V109.764V109.758V109.752V109.747V109.741V109.736V109.73V109.725V109.719V109.713V109.708V109.702V109.697V109.691V109.685V109.68V109.674V109.669V109.663V109.658V109.652V109.646V109.641V109.635V109.63V109.624V109.618V109.613V109.607V109.602V109.596V109.591V109.585V109.579V109.574V109.568V109.563V109.557V109.551V109.546V109.54V109.535V109.529V109.524V109.518V109.512V109.507V109.501V109.496V109.49V109.484V109.479V109.473V109.468V109.462V109.457V109.451V109.445V109.44V109.434V109.429V109.423V109.417V109.412V109.406V109.401V109.395V109.389V109.384V109.378V109.373V109.367V109.362V109.356V109.35V109.345V109.339V109.334V109.328V109.322V109.317V109.311V109.306V109.3V109.295V109.289V109.283V109.278V109.272V109.267V109.261V109.255V109.25V109.244V109.239V109.233V109.228V109.222V109.216V109.211V109.205V109.2V109.194V109.188V109.183V109.177V109.172V109.166V109.161V109.155V109.149V109.144V109.138V109.133V109.127V109.121V109.116V109.11V109.105V109.099V109.094V109.088V109.082V109.077V109.071V109.066V109.06V109.054V109.049V109.043V109.015C198.772 105.383 198.772 101.687 197.922 97.9805L450.523 40.0611C453.41 50.4425 458.177 60.8207 465.756 69.3452Z" stroke="#E0E0E0"/>
<path opacity="0.5" d="M717.06 257.682C711.589 262.356 707.879 267.916 705.08 274.341L558.994 256.32C557.08 248.777 554.193 241.184 548.461 235.453C542.766 229.759 536.145 225.944 529.534 223.083L525.73 87.1222V87.1152V85.5619C533.142 82.7565 540.564 79.0333 547.112 73.5175L717.06 257.682Z" stroke="black" stroke-opacity="0.05"/>
<path d="M545.248 298.258H545.455L545.601 298.111C549.339 294.373 553.111 289.693 555.097 284.958L699.173 302.965C699.297 316.3 705.052 329.58 714.549 340.027C721.178 347.6 730.586 353.3 740.035 356.229L664.115 604.836C661.231 603.103 657.561 602.25 653.916 602.25H653.91H653.905H653.899H653.893H653.888H653.882H653.877H653.871H653.865H653.86H653.854H653.849H653.843H653.837H653.832H653.826H653.821H653.815H653.81H653.804H653.798H653.793H653.787H653.782H653.776H653.77H653.765H653.759H653.754H653.748H653.742H653.737H653.731H653.726H653.72H653.714H653.709H653.703H653.697H653.692H653.686H653.681H653.675H653.669H653.664H653.658H653.652H653.647H653.641H653.636H653.63H653.624H653.619H653.613H653.607H653.602H653.596H653.59H653.585H653.579H653.573H653.568H653.562H653.556H653.551H653.545H653.539H653.534H653.528H653.522H653.517H653.511H653.505H653.5H653.494H653.488H653.482H653.477H653.471H653.465H653.46H653.454H653.448H653.442H653.437H653.431H653.425H653.419H653.414H653.408H653.402H653.396H653.391H653.385H653.379H653.373H653.367H653.362H653.356H653.35H653.344H653.338H653.333H653.327H653.321H653.315H653.309H653.304H653.298H653.292H653.286H653.28H653.274H653.268H653.263H653.257H653.251H653.245H653.239H653.233H653.227H653.221H653.215H653.21H653.204H653.198H653.192H653.186H653.18H653.174H653.168H653.162H653.156H653.15H653.144H653.138H653.132H653.126H653.12H653.114H653.108H653.102H653.096H653.09H653.084H653.078H653.072H653.066H653.06H653.054H653.048H653.042H653.036H653.03H653.024H653.017H653.011H653.005H652.999H652.993H652.987H652.981H652.975H652.968H652.962H652.956H652.95H652.944H652.937H652.931H652.925H652.919H652.913H652.906H652.9H652.894H652.888H652.881H652.875H652.869H652.863H652.856H652.85H652.844H652.837H652.831H652.825H652.818H652.812H652.806H652.799H652.793H652.787H652.78H652.774H652.767H652.761H652.755H652.748H652.742H652.735H652.729H652.722H652.716H652.71H652.703H652.697H652.69H652.684H652.677H652.67H652.664H652.657H652.651H652.644H652.638H652.631H652.625H652.618H652.611H652.605H652.598H652.591H652.585H652.578H652.571H652.565H652.558H652.551H652.545H652.538H652.531H652.524H652.518H652.511H652.504H652.497H652.491H652.484H652.477H652.47H652.463H652.457H652.45H652.443H652.436H652.429H652.422H652.415H652.408H652.401H652.395H652.388H652.381H652.374H652.367H652.36H652.353H652.346H652.339H652.332H652.325H652.318H652.31H652.303H652.296H652.289H652.282H652.275H652.268H652.261H652.254H652.246H652.239H652.232H652.225H652.218H652.21H652.203H652.196H652.189H652.181H652.174H652.167H652.159H652.152H652.145H652.137H652.13H652.123H652.115H652.108H652.101H652.093H652.086H652.078H652.071H652.063H652.056H652.048H652.041H652.033H652.026H652.018H652.011H652.003H651.995H651.988H651.98H651.973H651.965H651.957H651.95H651.942H651.934H651.927H651.919H651.911H651.903H651.896H651.888H651.88H651.872H651.864H651.857H651.849H651.841H651.833H651.825H651.817H651.809H651.801H651.794H651.786H651.778H651.77H651.762H651.754H651.746H651.738H651.729H651.721H651.713H651.705H651.697H651.689H651.681H651.673H651.665H651.656H651.648H651.64H651.632H651.623H651.615H651.607H651.599H651.59H651.582H651.574H651.565H651.557H651.549H651.54H651.532H651.523H651.515H651.506H651.498H651.489H651.481H651.472H651.464H651.455H651.447H651.438H651.429H651.421H651.412H651.404H651.395H651.386H651.377H651.369H651.36H651.351H651.343H651.334H651.325H651.316H651.307H651.298H651.29H651.281H651.272H651.263H651.254H651.245H651.236H651.227H651.218H651.209H651.2H651.191H651.182H651.173H651.164H651.155H651.145H651.136H651.127H651.118H651.109H651.099H651.09H651.081H651.072H651.062H651.053H651.044H651.034H651.025H651.016H651.006H650.997H650.987H650.978H650.968H650.959H650.949H650.94H650.93H650.921H650.911H650.901H650.892H650.882H650.873H650.863H650.853H650.843H650.834H650.824H650.814H650.804H650.795H650.785H650.775H650.765H650.755H650.745H650.735H650.725H650.715H650.705H650.695H650.685H650.675H650.665H650.655H650.645H650.635H650.625H650.615H650.604H650.594H650.584H650.574H650.563H650.553H650.543H650.533H650.522H650.512H650.502H650.491H650.481H650.47H650.46H650.456L542.965 299.794C543.365 299.397 543.744 299.033 544.118 298.753C544.566 298.417 544.934 298.258 545.248 298.258Z" stroke="#E0E0E0"/>
<path opacity="0.5" d="M313.044 709.178L313.036 709.169C306.372 701.554 297.84 697.702 289.319 695.753L285.524 534.483C291.157 532.555 295.876 529.702 300.58 525.94L300.601 525.922L300.621 525.903L302.051 524.473L302.14 524.384L302.146 524.378L302.151 524.373L302.157 524.367L302.163 524.361L302.185 524.339L302.196 524.328L302.202 524.322L302.207 524.317L302.23 524.294L302.241 524.283L302.252 524.272L302.263 524.261L302.269 524.255L302.274 524.25L302.28 524.244L302.285 524.239L302.297 524.227L302.308 524.216L302.319 524.205L302.408 524.116L302.498 524.026L302.542 523.982L302.587 523.937L302.766 523.758L302.788 523.736L302.81 523.714L302.822 523.702L302.827 523.697L302.833 523.691L302.838 523.686L302.844 523.68L302.855 523.669L302.877 523.647L302.889 523.635L302.9 523.624L302.944 523.58L302.956 523.568L302.967 523.557L302.989 523.535L303.011 523.513L303.017 523.507L303.023 523.501L303.028 523.496L303.034 523.49L303.045 523.479L303.051 523.474L303.056 523.468L303.067 523.457L303.078 523.446L303.123 523.401L303.213 523.312L303.236 523.288L596.222 655.494V655.496V655.502V655.508V655.513V655.519V655.525V655.53V655.536V655.542V655.547V655.553V655.559V655.564V655.57V655.576V655.582V655.587V655.593V655.599V655.604V655.61V655.616V655.622V655.627V655.633V655.639V655.644V655.65V655.656V655.662V655.667V655.673V655.679V655.685V655.69V655.696V655.702V655.708V655.714V655.719V655.725V655.731V655.737V655.742V655.748V655.754V655.76V655.766V655.772V655.777V655.783V655.789V655.795V655.801V655.807V655.812V655.818V655.824V655.83V655.836V655.842V655.848V655.854V655.859V655.865V655.871V655.877V655.883V655.889V655.895V655.901V655.907V655.913V655.919V655.925V655.931V655.937V655.942V655.948V655.954V655.96V655.966V655.972V655.978V655.984V655.99V655.996V656.003V656.009V656.015V656.021V656.027V656.033V656.039V656.045V656.051V656.057V656.063V656.069V656.075V656.081V656.088V656.094V656.1V656.106V656.112V656.118V656.124V656.131V656.137V656.143V656.149V656.155V656.162V656.168V656.174V656.18V656.186V656.193V656.199V656.205V656.211V656.218V656.224V656.23V656.237V656.243V656.249V656.256V656.262V656.268V656.275V656.281V656.287V656.294V656.3V656.306V656.313V656.319V656.326V656.332V656.338V656.345V656.351V656.358V656.364V656.371V656.377V656.384V656.39V656.397V656.403V656.41V656.416V656.423V656.429V656.436V656.442V656.449V656.456V656.462V656.469V656.475V656.482V656.489V656.495V656.502V656.509V656.515V656.522V656.529V656.535V656.542V656.549V656.555V656.562V656.569V656.576V656.582V656.589V656.596V656.603V656.61V656.616V656.623V656.63V656.637V656.644V656.651V656.658V656.664V656.671V656.678V656.685V656.692V656.699V656.706V656.713V656.72V656.727V656.734V656.741V656.748V656.755V656.762V656.769V656.776V656.783V656.79V656.797V656.804V656.812V656.819V656.826V656.833V656.84V656.847V656.855V656.862V656.869V656.876V656.883V656.891V656.898V656.905V656.912V656.92V656.927V656.934V656.942V656.949V656.956V656.964V656.971V656.979V656.986V656.993V657.001V657.008V657.016V657.023V657.031V657.038V657.046V657.053V657.061V657.068V657.076V657.083V657.091V657.099V657.106V657.114V657.122V657.129V657.137V657.145V657.152V657.16V657.168V657.175V657.183V657.191V657.199V657.206V657.214V657.222V657.23V657.238V657.246V657.253V657.261V657.269V657.277V657.285V657.293V657.301V657.309V657.317V657.325V657.333V657.341V657.349V657.357V657.365V657.373V657.381V657.389V657.398V657.406V657.414V657.422V657.43V657.438V657.447V657.455V657.463V657.471V657.48V657.488V657.496V657.505V657.513V657.521V657.53V657.538V657.546V657.555V657.563V657.572V657.58V657.589V657.597V657.606V657.614V657.623V657.631V657.64V657.648V657.657V657.666V657.674V657.683V657.692V657.7V657.709V657.718V657.726V657.735V657.744V657.753V657.762V657.77V657.779V657.788V657.797V657.806V657.815V657.824V657.833V657.841V657.85V657.859V657.868V657.877V657.886V657.896V657.905V657.914V657.923V657.932V657.941V657.95V657.959V657.969V657.978V657.987V657.996V658.006V658.015V658.024V658.033V658.043V658.052V658.061V658.071V658.08V658.09V658.099V658.109V658.118V658.128V658.137V658.147V658.156V658.166V658.175V658.185V658.195V658.204V658.214V658.224V658.233V658.243V658.253V658.262V658.272V658.282V658.292V658.302V658.312V658.321V658.331V658.341V658.351V658.361V658.371V658.381V658.391V658.401V658.411V658.421V658.431V658.441V658.451V658.462V658.472V658.482V658.492V658.502V658.513V658.523V658.533V658.543V658.554V658.564V658.574V658.585V658.595V658.606V658.616V658.627V658.637V658.648V658.658V658.669V658.679V658.69V658.7V658.711V658.722V658.732V658.743V658.754V658.764V658.775V658.786V658.797V658.808V658.818V658.829V658.84V658.851V658.862V658.873V658.884V658.895V658.906V658.917V658.928V658.939V658.95V658.961V658.972V658.984V659.011C596.222 662.642 596.222 666.337 597.07 670.042L326.261 729.898C321.581 721.481 317.783 714.865 313.044 709.178L313.044 709.178Z" stroke="#E0E0E0"/>
<path opacity="0.5" d="M171.085 108.028L171.081 108.059V108.09C171.081 115.549 167.348 123.05 161.703 128.698C149.509 139.945 130.779 138.989 120.489 126.829L120.475 126.814L120.461 126.799C114.85 121.189 112.043 112.764 112.977 105.293L112.981 105.262V105.231C112.981 97.7722 116.714 90.2716 122.359 84.6241C133.58 74.3481 152.324 75.2599 163.588 86.509C169.232 93.0987 172.016 100.582 171.085 108.028Z" stroke="#E0E0E0"/>
<path d="M527.764 52.4305L527.757 52.4365L527.75 52.4427C515.557 63.6967 496.822 62.7433 486.529 50.581L486.516 50.5651L486.501 50.5504C480.89 44.9406 478.084 36.5159 479.018 29.0446L479.021 29.0138V28.9826C479.021 21.5236 482.755 14.0227 488.4 8.37503C500.594 -2.87173 519.324 -1.91632 529.614 10.2436L529.628 10.2594L529.642 10.2742C535.253 15.884 538.06 24.3086 537.126 31.7799L537.122 31.8108V31.8419C537.122 39.3374 534.314 46.8172 527.764 52.4305Z" stroke="#E0E0E0"/>
<path d="M735.309 320.294L735.301 320.286L735.294 320.278C729.683 314.668 726.877 306.243 727.811 298.772L727.814 298.741V298.71C727.814 291.251 731.548 283.75 737.193 278.103C749.387 266.856 768.117 267.811 778.407 279.971L778.421 279.987L778.435 280.002C784.046 285.612 786.853 294.036 785.919 301.507L785.915 301.538V301.569C785.915 309.025 782.185 316.523 776.544 322.169C764.344 332.476 745.598 331.517 735.309 320.294Z" fill="black" fill-opacity="0.05" stroke="#E0E0E0"/>
<path d="M672.599 640.244L672.612 640.26L672.627 640.275C678.237 645.884 681.044 654.309 680.11 661.78L680.106 661.811V661.842C680.106 669.302 676.373 676.802 670.727 682.45C658.534 693.697 639.804 692.741 629.513 680.581L629.511 680.579C623.888 674.019 622.006 666.52 622.006 658.983C622.006 651.524 625.739 644.023 631.385 638.376C643.578 627.129 662.308 628.084 672.599 640.244Z" fill="black" fill-opacity="0.05" stroke="#DDDDDD"/>
<path opacity="0.5" d="M258.651 718.455L258.658 718.449L258.664 718.443C270.858 707.189 289.593 708.142 299.886 720.305L299.899 720.32L299.914 720.335C305.525 725.945 308.331 734.37 307.397 741.841L307.393 741.872V741.903C307.393 749.362 303.66 756.863 298.015 762.511C285.821 773.757 267.091 772.802 256.801 760.642L256.787 760.626L256.772 760.611C251.162 755.002 248.355 746.577 249.289 739.106L249.293 739.075V739.044C249.293 731.548 252.101 724.068 258.651 718.455Z" stroke="#E0E0E0"/>
</svg>
