<svg width="869" height="852" fill="none" xmlns="http://www.w3.org/2000/svg">
    <g opacity=".8">
        <path d="m57.553 497.762.006.007.008.007c6.21 6.209 9.315 15.533 8.282 23.803-1.043 8.341-4.165 16.642-10.374 22.858-13.506 11.413-34.244 11.389-46.677-2.07C2.581 535.11.5 526.815.5 518.482c0-8.255 4.13-16.551 10.37-22.797 13.508-11.415 34.251-11.389 46.683 2.077Z" stroke="#E0E0E0"/>
        <path d="m209.766 152.689 312.067 136.577V291.044c0 7.312 1.03 14.645 4.115 21.985l-101.892 94.526-101.871 94.507c-8.28-5.096-16.569-7.186-24.856-7.244L187.012 174.417c4.149-2.107 9.265-5.234 12.401-9.398 4.099-4.099 7.24-7.241 10.353-12.33Z" stroke="#8B00FF"/>
        <path d="M78.644 563.799c7.133-6.277 11.274-14.527 14.376-23.723l157.217 14.671c2.119 8.332 5.311 15.683 11.629 22.001 6.294 6.292 13.614 10.507 20.924 13.667l3.151 126.031v.003l1.047 54.434c-.724.358-1.487.722-2.266 1.093-1.379.658-2.811 1.34-4.175 2.062-2.083 1.103-4.087 2.336-5.668 3.807L78.644 563.799Z" stroke="#E0E0E0"/>
        <path opacity=".5" d="m153.63 182.023.06.015H156.554l111.41 323.676-.001.001-.006.006-.007.006-.006.006-.006.007-.006.006-.006.006-.006.006-.007.006-.006.006-.006.007-.006.006-.006.006-.006.006-.007.006-.006.006-.006.007-.006.006-.006.006-.007.006-.006.006-.006.007-.006.006-.006.006-.006.006-.007.006-.006.006-.006.007-.006.006-.006.006-.006.006-.007.006-.006.006-.006.007-.006.006-.006.006-.006.006-.007.006-.006.006-.006.007-.006.006-.006.006-.006.006-.007.006-.006.006-.006.007-.006.006-.006.006-.006.006-.007.006-.006.006-.006.007-.006.006-.006.006-.006.006-.007.006-.006.006-.006.007-.006.006-.006.006-.007.006-.006.006-.006.006-.006.007-.006.006-.006.006-.007.006-.006.006-.006.006-.006.007-.006.006-.006.006-.007.006-.006.006-.006.007-.006.006-.006.006-.006.006-.007.006-.006.006-.006.007-.006.006-.006.006-.006.006-.007.006-.006.006-.006.007-.006.006-.006.006-.006.006-.007.006-.006.006-.006.007-.006.006-.006.006-.006.006-.007.006-.006.006-.006.007-.006.006-.006.006-.006.006-.007.006-.006.006-.006.007-.006.006-.006.006-.007.006-.006.006-.006.006-.006.007-.006.006-.006.006-.007.006-.006.006-.006.006-.006.007-.006.006-.006.006-.007.006-.006.006-.006.006-.006.007-.006.006-.006.006-.007.006-.006.006-.006.007-.006.006-.006.006-.006.006-.007.006-.006.006-.006.007-.006.006-.006.006-.006.006-.007.006-.006.006-.006.007-.006.006-.006.006-.006.006-.007.006-.006.006-.006.007-.006.006-.006.006-.007.006-.006.006-.006.006-.006.007-.006.006-.006.006-.007.006-.006.006-.006.006-.006.007-.006.006-.006.006-.007.006-.006.006-.006.006-.006.007-.006.006-.006.006-.007.006-.006.006-.006.006-.006.007-.006.006-.006.006-.007.006-.006.006-.006.006-.006.007-.006.006-.006.006-.007.006-.006.006-.006.007-.006.006-.006.006-.006.006-.007.006-.006.006-.006.007-.006.006-.006.006-.006.006-.007.006-.006.006-.006.007-.006.006-.006.006-.007.006-.006.006-.006.006-.006.007-.006.006-.006.006-.007.006-.006.006-.006.006-.006.007-.006.006-.006.006-.007.006-.006.006-.006.006-.006.007-.006.006-.006.006-.007.006-.006.006-.006.006-.006.007-.006.006-.006.006-.007.006-.006.006-.006.006-.006.007-.006.006-.006.006-.007.006-.006.006-.006.006-.006.007-.006.006-.006.006-.007.006-.006.006-.006.006-.006.007-.006.006-.006.006-.007.006-.006.006-.006.007-.006.006-.006.006-.007.006-.006.006-.006.006-.006.007-.006.006-.006.006-.007.006-.006.006-.006.006-.006.007-.006.006-.006.006-.007.006-.006.006-.006.006-.006.007-.006.006-.006.006-.007.006-.006.006-.006.006-.006.007-.006.006-.006.006-.007.006-.006.006-.006.006-.006.007-.006.006-.006.006-.007.006-.006.006-.006.006-.006.007-.006.006-.006.006-.007.006-.006.006-.006.006-.006.007-.006.006-.007.006-.006.006-.006.006-.006.006-.006.007-.006.006-.007.006-.006.006-.006.006-.006.006-.006.007-.006.006-.007.006-.006.006-.006.006-.006.006-.006.007-.006.006-.007.006-.006.006-.006.006-.006.007-.006.006-.006.006-.007.006-.006.006-.006.006-.006.007-.006.006-.006.006-.007.006-.006.006-.006.006-.006.007-.006.006-.006.006-.007.006-.006.006-.006.006-.006.007-.006.006-.006.006-.007.006-.006.006-.006.006-.006.007-.006.006-.007.006-.006.006-.006.006-.006.006-.006.007-.006.006-.007.006-.006.006-.006.006-.006.006-.006.007-.006.006-.007.006-.006.006-.006.006-.006.006-.006.007-.006.006-.007.006-.006.006-.006.006-.006.006-.006.007-.006.006-.007.006-.006.006-.006.006-.006.007-.006.006-.006.006-.007.006-.006.006-.006.006-.006.007-.006.006-.006.006-.007.006-.006.006-.006.006-.006.007-.006.006-.007.006-.006.006-.006.006-.006.006-.006.007-.006.006-.007.006-.006.006-.006.006-.006.006-.006.007-.006.006-.007.006-.006.006-.006.006-.006.006-.006.007-.006.006-.007.006-.006.006-.006.006-.006.006-.006.007-.006.006-.007.006-.006.006-.006.006-.006.006-.006.007-.006.006-.007.006-.006.006-.006.006-.006.006-.006.007-.006.006-.007.006-.006.006-.006.006-.006.007-.006.006-.006.006-.007.006-.006.006-.006.006-.006.007-.006.006-.007.006-.006.006-.006.006-.006.006-.006.007-.006.006-.007.006-.006.006-.006.006-.006.006-.006.007-.006.006-.007.006-.006.006-.006.006-.006.006-.006.007-.006.006-.007.006-.006.006-.006.006-.006.006-.006.007-.006.006-.007.006-.006.006-.006.006-.006.006-.006.007-.006.006-.007.006-.006.006-.006.006-.006.006-.006.007-.006.006-.007.006-.006.006-.006.006-.006.006-.006.007-.006.006-.007.006-.006.006-.006.006-.006.007-.006.006-.007.006-.006.006-.006.006-.006.006-.006.007-.006.006-.007.006-.006.006-.005.005c-4.515 3.621-7.509 8.767-10.213 13.417-.441.757-.874 1.501-1.304 2.223L96.26 509.596c-2.164-12.565-7.452-23.064-15.851-32.511l-.01-.011-.01-.011c-8.349-8.347-17.747-14.657-29.204-17.889l90.262-279.147c1.984.462 3.962.709 5.91.952l.014.002c2.111.264 4.187.524 6.259 1.042Z" stroke="#E0E0E0"/>
        <path d="m667.431 693.673-321.476-144.96c.975-8.277-.077-16.566-4.139-24.852l204.809-187.978c7.271 4.079 15.53 6.145 23.798 6.202l118.733 331.987c-4.12 2.122-8.229 5.204-12.294 8.252l-.024.018c-4.142 3.106-7.275 7.206-9.407 11.331ZM514.588 76.575l.002.002c9.455 10.505 21.001 16.858 34.624 19.046v4.848l3.153 146.07c-5.181 3.108-10.391 6.25-15.603 10.419l-.021.017-.02.02-1.58 1.579-1.339 1.34-107.102-46.195-.002-.001-207.157-90.422V120.439c0-4.032 0-8.128-.949-12.233l279.163-64.01c3.187 11.48 8.454 22.956 16.831 32.379Z" stroke="#E0E0E0"/>
        <path opacity=".5" d="m604.433 81.147 187.823 203.535c-6.071 5.173-10.18 11.332-13.279 18.456L617.513 283.22c-2.114-8.342-5.301-16.734-11.632-23.065-6.294-6.292-13.614-10.507-20.924-13.667l-4.204-150.24V94.49c8.211-3.105 16.433-7.228 23.68-13.343Z" stroke="#E0E0E0"/>
        <path d="M602.368 329.451h.207l.147-.147c4.138-4.137 8.308-9.316 10.495-14.551l159.254 19.904c.125 14.733 6.479 29.411 16.974 40.957 7.328 8.372 17.735 14.671 28.183 17.899l-83.91 274.766c-3.184-1.932-7.254-2.884-11.297-2.884H718.561L599.786 331.187c.45-.448.879-.861 1.303-1.178.497-.373.916-.558 1.279-.558Z" stroke="#E0E0E0"/>
        <path opacity=".5" d="m345.798 783.505-.008-.009c-7.363-8.414-16.793-12.665-26.213-14.814l-4.194-178.243c6.232-2.128 11.45-5.281 16.653-9.443l.022-.017.019-.019 1.58-1.58 1.335-1.335L658.735 724.13V728.046c0 4.03 0 8.125.948 12.23l-299.27 66.146c-5.179-9.316-9.376-16.63-14.615-22.917ZM189.06 119.352l-.004.031v.031c0 8.258-4.133 16.557-10.377 22.804-13.492 12.445-34.219 11.39-45.608-2.068l-.013-.016-.015-.015c-6.21-6.209-9.316-15.532-8.282-23.802l.004-.031v-.031c0-8.258 4.132-16.557 10.376-22.804 12.42-11.374 33.16-10.362 45.624 2.085 6.242 7.289 9.326 15.571 8.295 23.816Z" stroke="#E0E0E0"/>
        <path d="m583.087 57.963-.007.006-.007.006c-13.491 12.452-34.224 11.4-45.615-2.061l-.013-.016-.015-.015c-6.21-6.209-9.316-15.532-8.282-23.802l.004-.031v-.031c0-8.258 4.133-16.558 10.377-22.804 13.492-12.445 34.219-11.39 45.608 2.068l.013.016.015.014c6.21 6.21 9.316 15.533 8.282 23.803l-.004.03v.032c0 8.294-3.107 16.573-10.356 22.785Z" stroke="#E0E0E0"/>
        <path opacity=".5" d="m812.302 353.884-.007-.008-.008-.008c-6.21-6.209-9.316-15.532-8.282-23.802l.004-.031v-.031c0-8.258 4.133-16.558 10.377-22.805 13.492-12.444 34.219-11.389 45.608 2.069l.014.016.014.014c6.21 6.209 9.316 15.533 8.282 23.803l-.003.03v.032c0 8.254-4.13 16.55-10.37 22.796-13.498 11.405-34.241 10.346-45.629-2.075Z" stroke="#E0E0E0"/>
        <path d="m743.101 707.283.013.016.015.015c6.21 6.208 9.316 15.532 8.282 23.802l-.004.031v.031c0 8.258-4.133 16.557-10.377 22.804-13.492 12.445-34.219 11.39-45.608-2.068l-.002-.003c-6.222-7.258-8.304-15.556-8.304-23.892 0-8.258 4.133-16.558 10.377-22.804 13.492-12.445 34.219-11.39 45.608 2.068Z" stroke="#E0E0E0"/>
        <path opacity=".5" d="m285.713 793.681.007-.006.007-.006c13.492-12.452 34.224-11.399 45.615 2.062l.014.015.014.015c6.21 6.209 9.316 15.532 8.282 23.802l-.003.031v.031c0 8.258-4.133 16.558-10.378 22.805-13.492 12.445-34.219 11.389-45.608-2.069l-.013-.015-.015-.015c-6.21-6.209-9.316-15.532-8.282-23.802l.004-.031v-.031c0-8.295 3.107-16.573 10.356-22.786Z" stroke="#E0E0E0"/>
    </g>
</svg>
