<svg width="919" height="918" fill="none" xmlns="http://www.w3.org/2000/svg">
    <g opacity=".8">
        <path d="m283.813 689.502.01.001.01.001c6.584.344 13.004 3.988 16.581 9.12 3.618 5.191 6.048 11.4 5.708 17.989-1.807 13.169-13.403 23.577-27.106 22.314-7.12-.926-12.453-4.511-16.649-9.171-4.144-4.602-6.013-11.308-5.669-17.94 1.807-13.172 13.407-23.582 27.115-22.314Z" stroke="#E0E0E0"/>
        <path d="m195.017 418.891 243.971-80.985.001.001.003.004.003.003.003.003.003.004.003.003.003.004.003.003.003.003.003.004.003.003.003.004.003.003.003.003.003.004.003.003.003.003.003.004.003.003.003.003.003.004.003.003.004.003.003.004.003.003.003.004.003.003.003.003.003.004.003.003.003.003.003.004.003.003.003.003.003.003.003.004.002.003.003.003.003.004.003.003.003.003.003.004.003.003.003.003.003.004.003.003.003.003.003.003.003.004.003.003.003.003.003.003.003.004.003.003.003.003.003.003.003.004.003.003.002.003.003.003.003.004.003.003.003.003.003.003.003.004.003.003.003.003.003.003.002.003.003.004.003.003.003.003.003.003.003.003.003.004.003.003.002.003.003.003.003.003.003.004.003.003.003.003.003.003.002.003.003.003.003.003.003.004.003.003.003.003.002.003.003.003.003.003.003.003.003.003.002.004.003.003.003.003.003.003.003.003.002.003.003.003.003.003.003.003.002.003.003.003.003.003.003.003.002.004.003.003.003.003.003.003.002.003.003.003.003.003.002.003.003.003.003.003.003.003.002.003.003.003.003.003.002.003.003.003.003.003.002.003.003.003.003.002.002.003.003.003.003.003.002.003.003.003.002.003.003.003.003.003.002.003.003.003.003.003.002.002.003.003.002.003.003.003.003.003.002.003.003.003.002.003.003.002.002.003.003.003.002.003.003.003.003.003.002.002.003.003.002.003.003.003.002.003.003.002.002.003.003.003.002.003.003.002.002.003.002.003.003.003.002.002.003.003.002.003.003.002.002.003.003.003.002.003.002.002.003.003.002.003.003.002.002.003.002.003.003.002.002.003.003.002.002.003.002.003.003.002.002.003.002.003.003.002.002.003.002.002.003.003.002.002.002.003.003.003.002.002.002.003.002.002.003.003.002.002.002.003.002.002.003.003.002.002.002.003.002.002.003.003.002.002.002.003.002.002.002.002.003.003.002.002.002.003.002.002.002.003.003.002.002.002.002.003.002.002.002.002.002.003.002.002.002.002.003.003.002.002.002.002.002.003.002.002.002.002.002.003.002.002.002.002.002.002.002.003.002.002.002.002.002.002.002.003.002.002.002.002.002.002.002.002.002.003.002.002.002.002.002.002.002.002.002.002.002.003.002.002.001.002.002.002.002.002.002.002.002.002.002.002.002.002.002.002.001.002.002.002.002.002.002.002.002.002.002.002.001.002.002.002.002.002.002.002.001.002.002.002.002.002.002.002.001.002.002.002.002.002.002.002.001.002.002.002.002.001.001.002.002.002.002.002.001.002.002.002.002.001.001.002.002.002.001.002.002.002.002.001.001.002.002.002.001.002.002.001.001.002.002.002.001.001.002.002.001.002.002.001.001.002.002.002.001.001.002.002.001.002.002.001.001.002.002.001.001.002.002.002.001.001.001.002.002.001.001.002.001.001.002.002.001.001.002.002.001.001.001.002.001.001.002.002.001.001.001.002.002.001.001.001.001.002.001.001.002.002.001.001.001.001.001.002.002.001.001.001.001.002.001.001.001.001.001.001.002.002.001.001.001.001.001.001.001.002.001.001.001.001.001.001.001.001.001.002.001.001.001.001.001.001.001.001.001.001.001.001.001.002.001.001.001.001.001.001.001.001.001.001.001.001.001.001.001.001.001.001.001.001.001.001v.001l.001.001.001.001.001.001h.001l.001.001v.001l.001.001.001.001.001.001.001.001v.001h.001l.001.001v.001l.001.001h.001l.001.001v.001l.001.001h.001v.001l.001.001v.001h.001l.001.001v.001h.001v.001h.001v.001l.001.001.001.001.001.001.001.001.001.001.001.001v.001h.001v.001h.001v.001h.001v.001h.001v.001h.001v.001h.001v.001h.001v.001c3.685 4.093 7.958 7.684 13.379 10.25l-9.409 104.452-9.407 104.421c-7.168 1.331-12.848 4.327-17.512 8.449L193.24 442.445c1.252-3.269 2.521-7.579 2.18-11.487.228-4.334.402-7.677-.403-12.067Z" stroke="#8B00FF"/>
        <path d="M329.166 715.673c.795-7.08-1.035-13.759-3.905-20.428l95.498-71.1c5.387 3.586 10.894 6.09 17.633 6.443 6.703.351 12.931-.974 18.62-2.884l65.399 69.079.002.002 28.04 29.963c-.216.541-.449 1.104-.688 1.68a83.372 83.372 0 0 0-1.305 3.277c-.598 1.632-1.094 3.305-1.253 4.908l-218.041-20.94Z" stroke="#E0E0E0"/>
        <path opacity=".5" d="m178.254 463.745.054-.029.046-.041.003-.003.004-.003.003-.003.003-.004.004-.003.003-.003.004-.003.003-.003.004-.003.003-.003.004-.003.003-.004.004-.003.003-.003.004-.003.003-.003.003-.003.004-.003.003-.003.004-.003.003-.004.004-.003.003-.003.004-.003.003-.003.004-.003.003-.003.004-.003.003-.004.004-.003.003-.003.003-.003.004-.003.003-.003.004-.003.003-.003.004-.003.003-.004.004-.003.003-.003.004-.003.003-.003.004-.003.003-.003.003-.003.004-.004.003-.003.004-.003.003-.003.004-.003.003-.003.004-.003.003-.003.004-.003.003-.004.004-.003.003-.003.003-.003.004-.003.003-.003.004-.003.003-.003.004-.004.003-.003.004-.003.003-.003.004-.003.003-.003.004-.003.003-.003.003-.003.004-.004.003-.003.004-.003.003-.003.004-.003.003-.003.004-.003.003-.003.004-.004.003-.003.004-.003.003-.003.004-.003.003-.003.003-.003.004-.003.003-.003.004-.004.003-.003.004-.003.003-.003.004-.003.003-.003.004-.003.003-.003.004-.004.003-.003.003-.003.004-.003.003-.003.004-.003.003-.003.004-.003.003-.004.004-.003.003-.003.004-.003.003-.003.004-.003.003-.003.003-.003.004-.003.003-.004.004-.003.003-.003.004-.003.003-.003.004-.003.003-.003.004-.003.003-.004.004-.003.003-.003.003-.003.004-.003.003-.003.004-.003.003-.003.004-.003.003-.004.004-.003.003-.003.004-.003.003-.003.004-.003.003-.003.003-.003.004-.004.003-.003.004-.003.003-.003.004-.003.003-.003.004-.003.003-.003.004-.003.003-.004.004-.003.003-.003.004-.003.003-.003.003-.003.004-.003.003-.003.004-.004.003-.003.004-.003.003-.003.004-.003.003-.003.004-.003.003-.003.004-.003.003-.004.003-.003.004-.003.003-.003.004-.003.003-.003.004-.003.003-.003.004-.004.003-.003.004-.003.003-.003.004-.003.003-.003.003-.003.004-.003.003-.003.004-.004.003-.003.004-.003.003-.003.004-.003.003-.003.004-.003.003-.003.004-.004.003-.003.003-.003.004-.003.003-.003.004-.003.003-.003.004-.003.003-.003.004-.004.003-.003.004-.003.003-.003.004-.003.003-.003.004-.003.003-.003.003-.004.004-.003.003-.003.004-.003.003-.003.004-.003.003-.003.004-.003.003-.003.004-.004.003-.003.004-.003.003-.003.003-.003.004-.003.003-.003.004-.003.003-.004.004-.003.003-.003.004-.003.003-.003.004-.003.003-.003.004-.003.003-.003.003-.004.004-.003.003-.003.004-.003.003-.003.004-.003.003-.003.004-.003.003-.004.004-.003.003-.003.004-.003.003-.003.003-.003.004-.003.003-.003.004-.003.003-.004.004-.003.003-.003.004-.003.003-.003.004-.003.003-.003.004-.003.003-.004.004-.003.003-.003.003-.003.004-.003.003-.003.004-.003.003-.003.004-.003.003-.004.004-.003.003-.003.004-.003.003-.003.004-.003.003-.003.003-.003.004-.004.003-.003.004-.003.003-.003.004-.003.003-.003.004-.003.003-.003.004-.004.003-.003.004-.003.003-.003.003-.003.004-.003.003-.003.004-.003.003-.003.004-.004.003-.003.004-.003.003-.003.004-.003.003-.003.004-.003.003-.003.003-.004.004-.003.003-.003.004-.003.003-.003.004-.003.003-.003.004-.003.003-.003.004-.004.003-.003.004-.003.003-.003.004-.003.003-.003.003-.003.004-.003.003-.004.004-.003.003-.003.004-.003.003-.003.004-.003.003-.003.004-.003.003-.003.004-.004.003-.003.003-.003.004-.003.003-.003.004-.003.003-.003.004-.003.003-.004.004-.003.003-.003.004-.003.003-.003.004-.003.003-.003.003-.003.004-.003.003-.004.004-.003.003-.003.004-.003.003-.003.004-.003.003-.003.004-.003.003-.004.004-.003.003-.003.003-.003.004-.003.003-.003.004-.003.003-.003.004-.003.003-.004.004-.003.003-.003.004-.003.003-.003.004-.003.003-.003.003-.003.004-.004.003-.003.004-.003.003-.003.004-.003.003-.003.004-.003.003-.003.004-.003.003-.004.004-.003.003-.003.004-.003.003-.003.003-.003.004-.003.003-.003.004-.004.003-.003.004-.003.003-.003.004-.003.003-.003.004-.003.003-.003.004-.003.003-.004.003-.003.004-.003.003-.003.004-.003.003-.003.004-.003.003-.003.004-.004.003-.003.004-.003.003-.003.004-.003.003-.003.003-.003.004-.003.003-.003.004-.004.003-.003.004-.003.003-.003.004-.003.003-.003.004-.003.003-.003.004-.004.003-.003.003-.003.004-.003.003-.003.004-.003.003-.003.004-.003.003-.003.004-.004.003-.003.004-.003.003-.003.004-.003.003-.003.004-.003.003-.003.002-.002L405.799 587.59v.004l-.001.013V587.62l-.002.026-.001.026-.001.027-.002.026v.013l-.001.013-.001.014-.001.013-.001.026-.001.026-.002.027-.002.052-.006.106-.005.105-.006.105-.006.106-.011.21-.011.211-.001.026-.001.013v.013l-.001.013-.001.014-.001.026-.002.026-.001.027-.001.013v.013l-.002.026-.001.027-.001.026-.003.053-.001.006v.007l-.001.013v.013l-.001.013-.001.013v.014l-.001.006V589.166l-.001.007-.011.21-.011.211-.005.105-.006.106-.005.105-.003.052-.001.007v.007l-.001.013v.013l-.001.007v.006l-.003.053-.001.026-.001.013v.013l-.002.027-.001.026-.001.007v.006l-.001.013-.001.027v.006l-.001.007V590.252l-.001.013v.007l-.001.006V590.291l-.001.007V590.311l-.001.007-.001.013-.005.105-.006.106-.002.052-.001.013-.001.012c-.706 4.336.22 8.761 1.051 12.734.13.62.257 1.229.376 1.825l-95.539 71.13c-7.563-5.936-15.834-9.146-25.313-10.203l-.014-.002h-.015c-8.877-.465-17.323.731-25.375 4.674l-90.303-202.052c1.314-.733 2.522-1.576 3.708-2.402l.011-.008c1.319-.919 2.609-1.818 4.027-2.57Z" stroke="#E0E0E0"/>
        <path d="m724.939 491.067-253.468 81.03c-3.625-5.098-8.382-9.194-14.798-11.791l19.935-208.807c6.102-1.392 11.744-4.386 16.393-8.496l234.221 126.224c-1.221 3.26-1.964 7.035-2.696 10.757l-.006.028c-.75 3.815-.45 7.675.419 11.055ZM327.47 222.184l.003.001c10.606 1.116 20.295-1.14 29.047-6.77l2.375 2.638.007.007 75.532 80.331c-1.33 4.339-2.659 8.722-3.475 13.679l-.005.027-.001.028-.088 1.684-.071 1.346-83.37 28.168-.002.001-161.872 53.908-.002-.003-.003-.003-.003-.003-.004-.004-.003-.003-.003-.004-.003-.003-.003-.004-.003-.003-.003-.004-.003-.003-.004-.004-.003-.003-.003-.004-.003-.003-.003-.003-.003-.004-.003-.003-.003-.004-.003-.003-.004-.004-.003-.003-.003-.004-.003-.003-.003-.004-.003-.003-.003-.004-.003-.003-.004-.003-.003-.004-.003-.003-.003-.004-.003-.003-.003-.004-.003-.003-.003-.004-.003-.003-.004-.004-.003-.003-.003-.004-.003-.003-.003-.003-.003-.004-.003-.003-.003-.004-.004-.003-.003-.004-.003-.003-.003-.004-.003-.003-.003-.004-.003-.003-.003-.004-.003-.003-.004-.003-.003-.004-.003-.003-.003-.004-.003-.003-.003-.004-.003-.003-.003-.004-.004-.003-.003-.004-.003-.003-.003-.004-.003-.003-.003-.003-.003-.004-.003-.003-.003-.004-.004-.003-.003-.004-.003-.003-.003-.004-.003-.003-.003-.004-.003-.003-.003-.004-.004-.003-.003-.003-.003-.004-.003-.003-.003-.004-.003-.003-.003-.004-.003-.003-.003-.004-.004-.003-.003-.004-.003-.003-.003-.004-.003-.003-.003-.004-.003-.003-.003-.003-.004-.004-.003-.003-.003-.004-.003-.003-.003-.004-.003-.003-.003-.004-.003-.003-.003-.004-.004-.003-.003-.004-.003-.003-.003-.003-.003-.004-.003-.003-.003-.004-.003-.003-.004-.004-.003-.003-.003-.004-.003-.003-.003-.004-.003-.003-.003-.004-.003-.003-.003-.003-.004-.004-.003-.003-.003-.004-.003-.003-.003-.004-.003-.003-.003-.004-.003-.003-.004-.004-.003-.003-.003-.004-.003-.003-.003-.003-.003-.004-.003-.003-.003-.004-.003-.003-.004-.004-.003-.003-.003-.004-.003-.003-.003-.004-.003-.003-.003-.004-.003-.003-.004-.003-.003-.004-.003-.003-.003-.004-.003-.003-.003-.004-.003-.003-.003-.004-.003-.003-.004-.004-.003-.003-.003-.004-.003-.003-.003-.003-.003-.004-.003-.003-.003-.004-.004-.003-.003-.004-.003-.003-.003-.004-.003-.003-.003-.004-.003-.003-.003-.004-.003-.003-.004-.004-.003-.003-.003-.003-.003-.004-.003-.003-.003-.004-.003-.003-.003-.004-.004-.003-.003-.004-.003-.003-.003-.004-.003-.003-.003-.004-.003-.003-.003-.003-.003-.004-.004-.003-.003-.004-.003-.003-.003-.004-.003-.003-.003-.004-.003-.003-.003-.004-.004-.003-.003-.004-.003-.003-.003-.003-.003-.004-.003-.003-.003-.004-.003-.003-.003-.004-.004-.003-.003-.004-.003-.003-.003-.004-.003-.003-.003-.004-.003-.003-.003-.003-.004-.004-.003-.003-.003-.004-.003-.003-.003-.004-.003-.003-.003-.004-.003-.003-.003-.004-.004-.003-.003-.004-.003-.003-.003-.003-.003-.004-.003-.003-.003-.004-.003-.003-.004-.004-.003-.003-.003-.004-.003-.003-.003-.004-.003-.003-.003-.004-.003-.003-.003-.003-.004-.004-.003-.003-.003-.004-.003-.003-.003-.004-.003-.003-.003-.004-.003-.003-.004-.004-.003-.003-.003-.004-.003-.003-.003-.003-.003-.004-.003-.003-.003-.004-.003-.003-.004-.004-.003-.003-.003-.004-.003-.003-.003-.004-.003-.003-.003-.004-.003-.003-.004-.004-.003-.003-.003-.003-.003-.004-.003-.003-.003-.004-.003-.003-.003-.004-.003-.003-.004-.004-.003-.003-.003-.004-.003-.003-.003-.004-.003-.003-.003-.003-.003-.004-.004-.003-.003-.004-.003-.003-.003-.004-.003-.003-.003-.004-.003-.003-.003-.004-.003-.003-.004-.004-.003-.003-.003-.003-.003-.004-.003-.003-.003-.004-.003-.003-.003-.004-.004-.003-.003-.004-.003-.003-.003-.004-.003-.003-.003-.004-.003-.003-.003-.003-.003-.004-.004-.003-.003-.004-.003-.003-.003-.004-.003-.003-.003-.004-.003-.003-.003-.004-.004-.003-.003-.004-.003-.003-.003-.003-.003-.004-.003-.003-.003-.004-.003-.003-.003-.004-.004-.003-.003-.004-.003-.003-.003-.004-.003-.003-.003-.004-.003-.003-.003-.003-.004-.004-.003-.003-.003-.004-.003-.003-.003-.004-.003-.003-.003-.004-.003-.003-.003-.004-.004-.003-.003-.004-.003-.003-.003-.004-.003-.003-.003-.003-.003-.004-.003-.003-.004-.004-.003-.003-.003-.004-.003-.003-.003-.004-.003-.003-.003-.004-.003-.003-.003-.004-.004-.003-.003-.003-.003-.004-.003-.003-.003-.004-.003-.003-.003-.004-.003-.003-.004-.004-.003-.003-.003-.004-.003-.003-.003-.004-.003-.003-.003-.003-.003-.004-.003-.003-.004-.004-.003-.003-.003-.004-.003-.003-.003-.004-.003-.003-.003-.004-.003-.003-.004-.004-.003-.003-.003-.003-.003-.004-.003-.003-.003-.004-.003-.003-.003-.004-.003-.003-.004-.004-.003-.003-.003-.004-.003-.003-.003-.004-.003-.003-.003-.003-.003-.004-.004-.003-.003-.004-.003-.003-.003-.004-.003-.003-.003-.004-.003-.003-.003-.004-.003-.003-.004-.004-.003-.003-.003-.003-.003-.004-.003-.003-.003-.004-.003-.003-.003-.004-.004-.003-.003-.004-.003-.003-.003-.004-.003-.003-.003-.004-.003-.003-.003-.004-.003-.003-.004-.003-.003-.004-.003-.003-.003-.004-.003-.003-.003-.004-.003-.003-.003-.004-.004-.003-.003-.004-.003-.003-.003-.004-.003-.003-.003-.003-.019-.021c-2.008-2.23-4.058-4.508-6.63-6.329L301.71 212.562c7.577 4.809 16.315 8.569 25.76 9.622Z" stroke="#E0E0E0"/>
        <path opacity=".5" d="m380.32 179.361 208.013 19.294c-.763 5.913.036 11.399 1.867 16.909l-100.536 70.311c-5.39-3.598-11.418-6.686-18.174-7.04-6.704-.351-12.933.975-18.621 2.885l-78.225-82.138-.828-.919c3.009-5.847 5.517-12.265 6.504-19.302Z" stroke="#E0E0E0"/>
        <path d="m504.61 319.712.153-.138.011-.207c.23-4.387-.04-9.379-1.439-13.429l99.268-69.188c7.536 8.184 18.515 13.193 30.227 14.368 8.326.993 17.324-.714 24.814-4.155l91.635 196.348c-2.739.556-5.463 2.072-7.703 4.089l-.003.003-.004.003-.003.004-.004.003-.003.003-.004.003-.003.003-.004.003-.003.003-.003.003-.004.004-.003.003-.004.003-.003.003-.004.003-.003.003-.004.003-.003.003-.004.003-.003.004-.004.003-.003.003-.004.003-.003.003-.003.003-.004.003-.003.003-.004.004-.003.003-.004.003-.003.003-.004.003-.003.003-.004.003-.003.004-.004.003-.003.003-.004.003-.003.003-.004.003-.003.003-.004.003-.003.004-.004.003-.003.003-.004.003-.003.003-.004.003-.003.003-.004.004-.003.003-.004.003-.003.003-.004.003-.003.003-.004.004-.003.003-.004.003-.003.003-.004.003-.003.003-.004.003-.003.004-.004.003-.003.003-.004.003-.003.003-.004.003-.003.004-.004.003-.003.003-.004.003-.003.003-.004.004-.003.003-.004.003-.003.003-.004.003-.004.003-.003.004-.004.003-.003.003-.004.003-.003.003-.004.004-.003.003-.004.003-.004.003-.003.003-.004.004-.003.003-.004.003-.003.003-.004.004-.004.003-.003.003-.004.003-.003.003-.004.004-.004.003-.003.003-.004.003-.003.004-.004.003-.004.003-.003.003-.004.004-.003.003-.004.003-.004.003-.003.004-.004.003-.003.003-.004.004-.004.003-.003.003-.004.003-.004.004-.003.003-.004.003-.004.004-.003.003-.004.003-.004.003-.003.004-.004.003-.004.003-.003.004-.004.003-.004.003-.003.004-.004.003-.004.003-.003.004-.004.003-.004.003-.004.004-.003.003-.004.003-.004.004-.003.003-.004.003-.004.004-.004.003-.003.003-.004.004-.004.003-.004.004-.003.003-.004.003-.004.004-.004.003-.003.003-.004.004-.004.003-.004.004-.004.003-.003.003-.004.004-.004.003-.004.004-.004.003-.003.004-.004.003-.004.003-.004.004-.004.003-.003.004-.004.003-.004.004-.004.003-.004.004-.004.003-.004.004-.003.003-.004.004-.004.003-.004.004-.004.003-.004.004-.004.003-.004.004-.004.003-.003.004-.004.003-.004.004-.004.003-.004.004-.004.003-.004.004-.004.003-.004.004-.004.003-.004.004-.004.004-.004.003-.004.004-.004.003-.004.004-.004.004-.004.003-.004.004-.004.003-.004.004-.004.004-.004.003-.004.004-.004.003-.004.004-.004.004-.004.003-.004.004-.004.004-.004.003-.004.004-.004.004-.004.003-.004.004-.004.004-.005.003-.004.004-.004.004-.004.003-.004.004-.004.004-.004.004-.004.003-.005.004-.004.004-.004.004-.004.003-.004.004-.004.004-.005.004-.004.003-.004.004-.004.004-.004.004-.005.004-.004.003-.004.004-.004.004-.004.004-.005.004-.004.003-.004.004-.005.004-.004.004-.004.004-.004.004-.005.004-.004.003-.004.004-.005.004-.004.004-.004.004-.005.004-.004.004-.004.004-.005.004-.004.003-.004.004-.005.004-.004.004-.004.004-.005.004-.004.004-.005.004-.004.004-.004.004-.005.004-.004.004-.005.004-.004.004-.005.004-.004.004-.005.004-.004.004-.005.004-.004.004-.005.004-.004.004-.005.004-.004.005-.005.004-.004.004-.005.004-.004.004-.005.004-.004.004-.005.004-.005.004-.004.005-.005.004-.004.004-.005.004-.005.004-.004.004-.005.004-.005.005-.004.004-.005.004-.005.004-.004.004-.005.005-.005.004-.004.004-.005.004-.005.005-.005.004-.004.004-.005.004-.005.005-.004.004-.005.004-.005.005-.005.004-.005.004-.004.005-.005.004-.005.004-.005.005-.005.004-.005.004-.004.005-.005.004-.005.004-.005.005-.005.004-.005.005-.005.004-.005.004-.005.005-.005.004-.004.005-.005.004-.005.005-.005.004-.005.005-.005.004-.005.005-.005.004-.005.005-.005.004-.005.005-.005.004-.005.005-.005.004-.006.005-.005.004-.005.005-.005.005-.005.004-.005.005-.005.004-.005.005-.005.005-.006.004-.005.005-.005.005-.005.004-.005.005-.005.005-.006.004-.005.005-.005.005-.005.004-.006.005-.005.005-.005.005-.005.004-.006.005-.005.005-.005.005-.006.005-.005.004-.005.005-.006.005-.005.005-.005.005-.006.004-.005.005-.006.005-.005.005-.005.005-.006.005-.005.005-.006.005-.005.004-.006.005-.005.005-.006.005-.005.005-.006.005-.005.005-.006.005-.005.005-.006.005-.005.005-.006.005-.005.005-.006.005-.006.005-.005.005-.006.005-.005.005-.006.006-.006.005-.005.005-.006.005-.006.005-.005.005-.006.005-.006.005-.006.006-.005.005-.006.005-.006.005-.006.005-.005.006-.006.005-.006.005-.006.005-.006.005-.006.006-.005.005-.006.005-.006.006-.006.005-.006.005-.006.006-.006.005-.006.005-.006.006-.006.005-.006.005-.006.006-.006.005-.006.005-.006.006-.006.005-.006.006-.006.005-.006.006-.006.005-.006.006-.006.005-.006.006-.006.005-.006.006-.007.005-.006.006-.006.005-.006.006-.006.005-.006.006-.007.006-.006.005-.006.006-.006.005-.007.006-.006.006-.006.005-.006.006-.007.006-.006.005-.006.006-.007.006-.006.006-.007.005-.006.006-.006.006-.005.004L504.082 321.83c.026-.449.058-.863.13-1.225.089-.453.223-.736.398-.893Z" stroke="#E0E0E0"/>
        <path opacity=".5" d="m589.995 703.966-.012-.002c-8.38-1-15.818 1.364-22.187 4.901L475.5 611.088c2.403-4.333 3.732-8.731 4.545-13.676l.005-.027.001-.028.006-.105v-.013l.001-.007v-.006l.001-.007V597.206l.001-.007v-.013l.001-.007v-.006l.001-.026.001-.014.001-.013v-.013l.001-.007v-.006l.003-.053.003-.052v-.014l.001-.013.001-.013v-.013l.003-.053.003-.052.003-.053V596.765l.001-.007V596.745l.001-.006v-.014l.006-.105.003-.053v-.013l.001-.013.001-.013V596.515l.002-.026.001-.014V596.462l.002-.026v-.013l.001-.007V596.403l.001-.007v-.013l.001-.006v-.007l.001-.013V596.344l.001-.007v-.006l.001-.014.001-.013.001-.026v-.007l.001-.006V596.252l.001-.007v-.007l.001-.013V596.212l.001-.006v-.014l.001-.006v-.013l.001-.014v-.006l.001-.007.001-.013V596.12l.001-.013.001-.013.005-.106v-.006l.001-.007v-.013l.001-.013.001-.007V595.929l.001-.006v-.014l.001-.006V595.89l.001-.007.011-.21.002-.053.002-.026.001-.027.006-.105v-.013l.001-.013v-.007l.001-.007V595.409l.001-.006v-.007l.001-.006v-.007l.001-.026.003-.053.003-.053.005-.105.001-.013.001-.013v-.013l.001-.007V595.087l.001-.007v-.013l.001-.006v-.007l.001-.013.011-.211.001-.026.001-.013v-.007l.001-.006v-.014l.001-.006v-.007l.001-.013V594.725l.006-.105.011-.211.003-.053v-.013l.001-.006v-.004l255.349-81.557.003.003.004.004.003.003.003.004.003.003.003.004.003.004.004.003.003.004.003.003.003.004.003.003.004.004.003.003.003.004.003.003.003.004.004.004.003.003.003.004.003.003.003.004.004.003.003.004.003.004.003.003.004.004.003.003.003.004.003.004.003.003.004.004.003.003.003.004.003.004.004.003.003.004.003.003.003.004.004.004.003.003.003.004.004.003.003.004.003.004.003.003.004.004.003.004.003.003.003.004.004.004.003.003.003.004.004.004.003.003.003.004.004.004.003.003.003.004.003.004.004.003.003.004.003.004.004.003.003.004.003.004.004.003.003.004.003.004.004.004.003.003.003.004.004.004.003.003.004.004.003.004.003.004.004.003.003.004.003.004.004.004.003.003.004.004.003.004.003.004.004.004.003.003.004.004.003.004.003.004.004.003.003.004.004.004.003.004.004.004.003.004.003.003.004.004.003.004.004.004.003.004.004.004.003.003.004.004.003.004.004.004.003.004.004.004.003.004.004.003.003.004.004.004.003.004.004.004.003.004.004.004.003.004.004.004.003.004.004.004.003.004.004.003.003.004.004.004.004.004.003.004.004.004.003.004.004.004.003.004.004.004.004.004.003.004.004.004.003.004.004.004.004.004.003.004.004.004.004.004.003.004.004.004.003.004.004.005.004.004.003.004.004.004.004.004.003.004.004.004.004.004.004.004.003.004.004.004.004.005.003.004.004.004.004.004.004.004.003.004.004.004.004.005.004.004.003.004.004.004.004.004.004.004.003.005.004.004.004.004.004.004.004.005.003.004.004.004.004.004.004.005.004.004.004.004.003.004.004.005.004.004.004.004.004.004.004.005.004.004.003.004.004.005.004.004.004.004.004.005.004.004.004.004.004.005.004.004.004.005.004.004.004.004.004.005.004.004.004.005.004.004.004.004.004.005.004.004.004.005.004.004.004.005.004.004.004.005.004.004.004.005.004.004.004.005.004.004.004.005.004.004.004.005.004.004.004.005.004.004.005.005.004.005.004.004.004.005.004.004.004.005.004.005.005.004.004.005.004.004.004.005.004.005.004.004.005.005.004.005.004.004.004.005.005.005.004.005.004.004.004.005.005.005.004.004.004.005.004.005.005.005.004.005.004.004.005.005.004.005.004.005.005.005.004.004.004.005.005.005.004.005.004.005.005.005.004.005.005.004.004.005.004.005.005.005.004.005.005.005.004.005.005.005.004.005.005.005.004.005.005.005.004.005.005.005.004.005.005.005.004.005.005.005.004.005.005.005.004.005.005.005.004.005.005.005.005.005.004.005.005.006.004.005.005.005.005.005.004.005.005.005.005.006.004.005.005.005.005.005.004.005.005.006.005.005.005.005.004.005.005.006.005.005.005.005.004.005.005.006.005.005.005.005.005.006.004.005.005.005.005.006.005.005.005.006.005.005.004.005.005.006.005.005.005.006.005.005.005.006.005.005.005.005.005.006.005.005.005.006.005.005.005.006.004.006.005.005.006.006.005.005.005.006.005.005.005.006.005.006.005.005.005.006.005.005.005.006.005.006.005.005.005.006.005.006.006.006.005.005.005.006.005.006.005.006.005.005.006.006.005.006.005.006.005.005.006.006.005.006.005.006.005.006.006.006.005.006.005.005.006.006.005.006.005.006.006.006.005.006.005.006.006.006.005.006.005.006.006.006.005.006.006.006.005.006.006.006.005.006.005.006.006.006.005.006.006.007.005.006.006.006.005.006.006.006.006.006.005.006.006.007.005.006.006.006.005.006.006.006.006.007.005.006.006.006.006.007.005.006.006.006.006.006.005.007.006.006.006.007.006.006.005.006.006.007.006.006.006.007.005.006.006.006.006.007.006.006.006.007.006.006.005.007.006.006.006.007.006.006.006.007.006.007.006.006.006.007.006.006.006.007.006.007.006.006.006.007.006.007.006.006.006.007.006.007.006.007.006.006.006.007.006.007.006.007.006.006.007.007.006.007.006.007.006.007.006.007.006.006.007.007.006.007.006.007.018.02c2.008 2.23 4.057 4.506 6.627 6.327L609.713 709.417c-7.572-2.596-13.611-4.572-19.718-5.451ZM166.311 410.632l.018.026.021.023c4.145 4.604 6.014 11.315 5.668 17.951-1.278 13.734-13.383 23.56-26.502 21.773l-.021-.003-.02-.001c-6.585-.345-13.005-3.988-16.582-9.121l-.018-.025-.021-.023c-4.145-4.604-6.014-11.315-5.668-17.95 1.217-12.586 13.303-22.453 26.524-21.771 7.16.933 13.038 4.009 16.601 9.121Z" stroke="#E0E0E0"/>
        <path d="m356.399 176.988-.001.009-.001.01c-1.273 13.739-13.38 23.571-26.502 21.783l-.021-.003-.021-.001c-6.584-.345-13.004-3.988-16.581-9.121l-.018-.025-.021-.024c-4.145-4.604-6.014-11.315-5.668-17.951 1.278-13.734 13.383-23.56 26.502-21.773l.02.003.021.001c6.585.345 13.005 3.988 16.582 9.121l.017.026.021.023c4.17 4.631 6.595 10.812 5.671 17.922Z" stroke="#E0E0E0"/>
        <path opacity=".5" d="m634.701 227.13-.01-.001-.011-.001c-6.585-.345-13.005-3.988-16.582-9.121l-.018-.025-.02-.023c-4.146-4.604-6.015-11.315-5.669-17.951 1.278-13.735 13.383-23.561 26.502-21.773l.021.003.02.001c6.585.344 13.005 3.988 16.582 9.12l.018.026.021.023c4.143 4.602 6.012 11.308 5.668 17.94-1.805 13.157-13.925 22.992-26.522 21.782Z" stroke="#E0E0E0"/>
        <path d="m774.414 460.67.021.003.02.001c6.585.345 13.005 3.988 16.582 9.121l.018.025.021.024c4.145 4.604 6.014 11.314 5.668 17.95-1.278 13.735-13.383 23.561-26.502 21.774l-.003-.001c-7.124-.924-12.461-4.51-16.659-9.173-4.145-4.604-6.014-11.315-5.668-17.951 1.278-13.734 13.383-23.56 26.502-21.773Z" stroke="#E0E0E0"/>
        <path opacity=".5" d="m561.522 740.175.001-.009.001-.009c1.273-13.74 13.38-23.571 26.502-21.783l.021.003.021.001c6.585.345 13.004 3.988 16.581 9.121l.018.025.021.023c4.146 4.605 6.014 11.315 5.668 17.951-1.278 13.735-13.383 23.561-26.502 21.773l-.02-.002-.021-.002c-6.585-.344-13.004-3.988-16.582-9.12l-.017-.026-.021-.023c-4.17-4.631-6.595-10.813-5.671-17.923Z" stroke="#E0E0E0"/>
    </g>
</svg>
