<svg width="388" height="381" fill="none" xmlns="http://www.w3.org/2000/svg">
    <path d="m25.483 222.34.006.008.007.007c2.712 2.711 4.069 6.787 3.618 10.393-.46 3.676-1.833 7.314-4.543 10.032-5.926 5-15.002 4.976-20.437-.904C1.414 238.7.5 235.069.5 231.4c0-3.591 1.797-7.223 4.539-9.97 5.928-5.002 15.009-4.976 20.444.91Z" stroke="#E0E0E0" stroke-opacity=".5"/>
    <path d="m93.728 68.495 138.891 60.786V129.894c0 3.231.447 6.482 1.783 9.74l-45.333 42.056-45.312 42.036c-3.615-2.182-7.238-3.105-10.86-3.162L83.804 77.98c1.817-.941 4.019-2.319 5.404-4.15 1.768-1.767 3.156-3.157 4.52-5.335Z" fill="#8B00FF" stroke="#8B00FF"/>
    <path d="M35.493 251.645c3.053-2.775 4.86-6.359 6.214-10.312l69.755 6.51c.953 3.669 2.395 6.938 5.214 9.757 2.794 2.794 6.033 4.676 9.261 6.087l1.402 56.07v.003l.464 24.116c-.268.132-.55.266-.839.404-.621.296-1.273.607-1.885.931-.85.45-1.686.955-2.381 1.555l-87.205-95.121ZM68.498 81.506l.06.015H69.673l49.602 144.107-.484.484-.686.685c-2.052 1.651-3.415 3.996-4.618 6.066-.165.282-.326.559-.486.829l-69.804-6.514c-.997-5.569-3.37-10.237-7.104-14.438l-.01-.011-.01-.01c-3.684-3.684-7.833-6.495-12.878-7.975l40.12-124.073c.815.175 1.624.276 2.41.374l.013.002c.944.118 1.854.232 2.76.459Z" stroke="#E0E0E0" stroke-opacity=".5"/>
    <path d="M154.159 245.028c.47-3.76 0-7.519-1.88-11.279l91.65-84.118c3.29 1.88 7.05 2.82 10.81 2.82l53.109 148.499c-1.88.94-3.76 2.35-5.64 3.76-1.88 1.409-3.29 3.289-4.23 5.169l-143.819-64.851Z" fill="#8B00FF"/>
    <path d="m297.753 309.229-143.055-64.506c.394-3.613-.074-7.237-1.806-10.858L244 150.244c3.188 1.749 6.782 2.649 10.385 2.704l52.845 147.759c-1.787.952-3.563 2.284-5.299 3.585l-.023.018c-1.809 1.356-3.192 3.126-4.155 4.919ZM229.455 34.36l.002.002c4.207 4.674 9.339 7.528 15.382 8.55v1.934l1.404 65.031c-2.267 1.36-4.561 2.752-6.857 4.589l-.021.017-.02.019-.705.705-.465.465-47.626-20.541-.002-.001-92.288-40.283V53.737c0-1.703 0-3.464-.37-5.236l124.066-28.448c1.437 5.067 3.788 10.131 7.5 14.306Z" stroke="#E0E0E0" stroke-opacity=".5"/>
    <path opacity=".5" d="m269.735 36.597 83.453 90.435c-2.575 2.255-4.35 4.914-5.699 7.959l-71.67-8.841c-.948-3.68-2.385-7.407-5.217-10.238-2.795-2.794-6.033-4.676-9.262-6.088l-1.871-66.875v-.587c3.547-1.356 7.103-3.146 10.266-5.765Z" stroke="#8B00FF"/>
    <path d="M268.839 147.312h.207l.146-.147c1.807-1.806 3.645-4.072 4.661-6.389l70.629 8.827c.123 6.57 2.978 13.086 7.643 18.219 3.246 3.707 7.823 6.508 12.439 7.986l-37.267 122.034c-1.421-.775-3.161-1.151-4.879-1.151H320.891l-52.885-148.808c.151-.147.291-.275.428-.378.206-.154.333-.193.405-.193Z" stroke="#E0E0E0" stroke-opacity=".5"/>
    <path opacity=".5" d="m154.543 349.503-.008-.009c-3.28-3.749-7.463-5.667-11.635-6.65l-1.862-79.134c2.733-.961 5.036-2.364 7.324-4.194l.021-.017.02-.019 1.165-1.166 144.15 65.046V324.944c0 1.701 0 3.461.371 5.233l-133.094 29.416c-2.264-4.07-4.129-7.302-6.452-10.09Z" stroke="#E0E0E0" stroke-opacity=".5"/>
    <path d="m84.103 53.233-.003.03v.032c0 3.593-1.801 7.229-4.547 9.978-5.911 5.448-14.977 4.976-19.952-.903l-.013-.015-.015-.015c-2.711-2.711-4.068-6.787-3.617-10.393l.004-.031v-.031c0-3.594 1.8-7.229 4.545-9.977 5.423-4.962 14.501-4.533 19.967.918 2.745 3.208 4.08 6.826 3.631 10.407ZM260.053 25.659l-.007.006-.007.006c-5.911 5.456-14.982 4.986-19.959-.895l-.013-.016-.015-.015c-2.711-2.71-4.068-6.787-3.617-10.393l.004-.03v-.032c0-3.594 1.8-7.23 4.546-9.978 5.912-5.449 14.977-4.976 19.952.902l.013.016.015.015c2.711 2.71 4.068 6.787 3.617 10.393l-.003.03v.032c0 3.63-1.359 7.245-4.526 9.959Z" stroke="#E0E0E0" stroke-opacity=".5"/>
    <path d="M362.368 158.09c-2.82-2.82-4.23-7.049-3.76-10.808 0-3.76 1.88-7.519 4.7-10.339 6.11-5.639 15.51-5.169 20.68.94 2.82 2.819 4.23 7.049 3.76 10.808 0 3.76-1.88 7.519-4.7 10.339-6.11 5.169-15.51 4.699-20.68-.94Z" fill="#8B00FF"/>
    <path d="m362.737 157.752-.008-.008-.007-.008c-2.712-2.71-4.069-6.786-3.618-10.392l.004-.031v-.031c0-3.594 1.801-7.23 4.547-9.978 5.911-5.449 14.976-4.977 19.951.902l.014.016.014.014c2.712 2.711 4.069 6.787 3.618 10.393l-.004.031v.031c0 3.591-1.797 7.223-4.539 9.971-5.917 4.991-14.998 4.516-19.972-.91ZM331.436 315.841l.014.016.015.015c2.711 2.71 4.068 6.787 3.617 10.393l-.004.03v.032c0 3.593-1.8 7.229-4.546 9.977-5.912 5.449-14.977 4.977-19.952-.902l-.002-.002c-2.724-3.178-3.64-6.811-3.64-10.483 0-3.594 1.801-7.23 4.547-9.978 5.911-5.449 14.977-4.977 19.951.902Z" stroke="#E0E0E0" stroke-opacity=".5"/>
    <path opacity=".5" d="m127.695 354.432.007-.006.006-.006c5.912-5.456 14.982-4.986 19.96.896l.013.015.015.015c2.711 2.711 4.068 6.787 3.617 10.393l-.004.031v.031c0 3.594-1.8 7.229-4.546 9.978-5.912 5.449-14.977 4.977-19.952-.902l-.013-.016-.015-.015c-2.711-2.711-4.068-6.787-3.618-10.393l.004-.031v-.031c0-3.63 1.359-7.244 4.526-9.959Z" stroke="#E0E0E0" stroke-opacity=".5"/>
</svg>
