<svg width="837" height="852" fill="none" xmlns="http://www.w3.org/2000/svg">
    <g opacity=".8">
        <path d="m57.553 498 .006.008.008.007c6.21 6.209 9.315 15.532 8.282 23.802-1.043 8.341-4.165 16.643-10.374 22.859-13.506 11.412-34.244 11.389-46.677-2.07C2.581 535.349.5 527.053.5 518.72c0-8.254 4.13-16.551 10.37-22.796C24.378 484.509 45.12 484.535 57.553 498Z" stroke="#E0E0E0"/>
        <path d="m209.766 152.927 312.067 136.577V291.283c0 7.312 1.03 14.645 4.115 21.984l-101.892 94.527L322.185 502.3c-8.28-5.095-16.569-7.185-24.856-7.244l-110.317-320.4c4.149-2.107 9.265-5.234 12.401-9.398 4.099-4.099 7.24-7.242 10.353-12.331Z" stroke="#8B00FF"/>
        <path d="M78.644 564.038c7.133-6.278 11.274-14.528 14.376-23.724l157.217 14.672c2.119 8.332 5.311 15.682 11.629 22 6.294 6.293 13.614 10.507 20.924 13.667l3.151 126.031v.003l1.047 54.434c-.724.359-1.487.722-2.266 1.094-1.379.657-2.811 1.339-4.175 2.062-2.083 1.102-4.087 2.335-5.668 3.806L78.644 564.038Z" stroke="#E0E0E0"/>
        <path opacity=".5" d="m153.63 182.261.06.015H156.554l111.41 323.676-.001.001-.006.006-.007.007-.006.006-.006.006-.006.006-.006.006-.007.007-.006.006-.006.006-.006.006-.006.006-.006.006-.007.007-.006.006-.006.006-.006.006-.006.006-.006.006-.007.007-.006.006-.006.006-.006.006-.006.006-.006.006-.007.007-.006.006-.006.006-.006.006-.006.006-.006.006-.007.007-.006.006-.006.006-.006.006-.006.006-.006.006-.007.007-.006.006-.006.006-.006.006-.006.006-.006.006-.007.007-.006.006-.006.006-.006.006-.006.006-.006.006-.007.007-.006.006-.006.006-.006.006-.006.006-.007.006-.006.007-.006.006-.006.006-.006.006-.006.006-.007.007-.006.006-.006.006-.006.006-.006.006-.006.006-.007.007-.006.006-.006.006-.006.006-.006.006-.006.006-.007.007-.006.006-.006.006-.006.006-.006.006-.006.006-.007.007-.006.006-.006.006-.006.006-.006.006-.006.006-.007.007-.006.006-.006.006-.006.006-.006.006-.006.006-.007.007-.006.006-.006.006-.006.006-.006.006-.006.006-.007.007-.006.006-.006.006-.006.006-.006.006-.007.006-.006.007-.006.006-.006.006-.006.006-.006.006-.007.006-.006.007-.006.006-.006.006-.006.006-.006.006-.007.006-.006.007-.006.006-.006.006-.006.006-.006.006-.007.007-.006.006-.006.006-.006.006-.006.006-.006.006-.007.007-.006.006-.006.006-.006.006-.006.006-.006.006-.007.007-.006.006-.006.006-.006.006-.006.006-.006.006-.007.007-.006.006-.006.006-.006.006-.006.006-.006.006-.007.007-.006.006-.006.006-.006.006-.006.006-.007.006-.006.007-.006.006-.006.006-.006.006-.006.006-.007.006-.006.007-.006.006-.006.006-.006.006-.006.006-.007.006-.006.007-.006.006-.006.006-.006.006-.006.006-.007.006-.006.007-.006.006-.006.006-.006.006-.006.006-.007.007-.006.006-.006.006-.006.006-.006.006-.006.006-.007.007-.006.006-.006.006-.006.006-.006.006-.006.006-.007.007-.006.006-.006.006-.006.006-.006.006-.007.006-.006.007-.006.006-.006.006-.006.006-.006.006-.007.006-.006.007-.006.006-.006.006-.006.006-.006.006-.007.006-.006.007-.006.006-.006.006-.006.006-.006.006-.007.006-.006.007-.006.006-.006.006-.006.006-.006.006-.007.006-.006.007-.006.006-.006.006-.006.006-.006.006-.007.006-.006.007-.006.006-.006.006-.006.006-.006.006-.007.006-.006.007-.006.006-.006.006-.006.006-.006.006-.007.006-.006.007-.006.006-.006.006-.006.006-.007.006-.006.007-.006.006-.006.006-.006.006-.006.006-.007.006-.006.007-.006.006-.006.006-.006.006-.006.006-.007.006-.006.007-.006.006-.006.006-.006.006-.006.006-.007.006-.006.007-.006.006-.006.006-.006.006-.006.006-.007.006-.006.007-.006.006-.006.006-.006.006-.006.006-.007.006-.006.007-.006.006-.006.006-.006.006-.006.006-.007.006-.006.007-.006.006-.006.006-.006.006-.007.006-.006.006-.006.007-.006.006-.006.006-.006.006-.007.006-.006.006-.006.007-.006.006-.006.006-.006.006-.007.006-.006.007-.006.006-.006.006-.006.006-.006.006-.007.006-.006.007-.006.006-.006.006-.006.006-.006.006-.007.006-.006.007-.006.006-.006.006-.006.006-.006.006-.007.006-.006.007-.006.006-.006.006-.006.006-.006.006-.007.006-.006.007-.006.006-.006.006-.006.006-.006.006-.007.006-.006.007-.006.006-.006.006-.006.006-.007.006-.006.006-.006.007-.006.006-.006.006-.006.006-.007.006-.006.006-.006.007-.006.006-.006.006-.006.006-.007.006-.006.006-.006.007-.006.006-.006.006-.006.006-.007.006-.006.007-.006.006-.006.006-.006.006-.006.006-.007.006-.006.007-.006.006-.006.006-.006.006-.006.006-.007.006-.006.007-.006.006-.006.006-.006.006-.006.006-.007.006-.006.007-.006.006-.006.006-.006.006-.007.006-.006.006-.006.007-.006.006-.006.006-.006.006-.007.006-.006.006-.006.007-.006.006-.006.006-.006.006-.007.006-.006.006-.006.007-.006.006-.006.006-.006.006-.007.006-.006.006-.006.007-.006.006-.006.006-.006.006-.007.006-.006.006-.006.007-.006.006-.006.006-.006.006-.007.006-.006.006-.006.007-.006.006-.006.006-.006.006-.007.006-.006.007-.006.006-.006.006-.006.006-.006.006-.007.006-.006.007-.006.006-.006.006-.006.006-.007.006-.006.006-.006.007-.006.006-.006.006-.006.006-.007.006-.006.006-.006.007-.006.006-.006.006-.006.006-.007.006-.006.006-.006.007-.006.006-.006.006-.006.006-.007.006-.006.006-.006.007-.006.006-.006.006-.006.006-.007.006-.006.006-.006.007-.006.006-.006.006-.006.006-.007.006-.006.006-.006.007-.006.006-.006.006-.006.006-.007.006-.006.006-.006.007-.006.006-.006.006-.007.006-.006.006-.006.007-.006.006-.006.006-.006.006-.007.006-.006.006-.006.007-.006.006-.006.006-.006.006-.007.006-.006.006-.006.007-.006.006-.006.006-.006.006-.007.006-.006.006-.005.006c-4.515 3.62-7.509 8.766-10.213 13.416-.441.757-.874 1.501-1.304 2.224L96.26 509.834c-2.164-12.565-7.452-23.063-15.851-32.511l-.01-.011-.01-.01c-8.349-8.348-17.747-14.658-29.204-17.889l90.262-279.148c1.984.462 3.962.709 5.91.953l.014.001c2.111.264 4.187.524 6.259 1.042Z" stroke="#E0E0E0"/>
        <path d="m667.431 693.911-321.476-144.96c.975-8.277-.077-16.566-4.139-24.852l204.809-187.978c7.271 4.079 15.53 6.145 23.798 6.202L689.156 674.31c-4.12 2.123-8.229 5.204-12.294 8.253l-.024.017c-4.142 3.106-7.275 7.206-9.407 11.331ZM514.588 76.813l.002.003c9.455 10.504 21.001 16.857 34.624 19.046v4.848l3.153 146.07c-5.181 3.108-10.391 6.249-15.603 10.418l-.021.017-.02.02-1.58 1.579-1.339 1.34-107.102-46.195-.002-.001-207.157-90.421V120.677c0-4.031 0-8.127-.949-12.233l279.163-64.01c3.187 11.48 8.454 22.956 16.831 32.38Z" stroke="#E0E0E0"/>
        <path opacity=".5" d="M604.433 81.385 792.256 284.92c-6.071 5.173-10.18 11.332-13.279 18.456l-161.464-19.918c-2.114-8.342-5.301-16.734-11.632-23.064-6.294-6.293-13.614-10.508-20.924-13.668l-4.204-150.239V94.727c8.211-3.105 16.432-7.227 23.68-13.342Z" stroke="#E0E0E0"/>
        <path d="M602.368 329.689h.207l.147-.146c4.138-4.137 8.308-9.317 10.495-14.552l159.254 19.905c.125 14.733 6.479 29.411 16.974 40.956 7.328 8.372 17.735 14.671 28.183 17.9l-83.91 274.766c-3.184-1.933-7.254-2.885-11.297-2.885H718.561L599.786 331.426c.45-.448.879-.861 1.303-1.179.497-.373.916-.558 1.279-.558Z" stroke="#E0E0E0"/>
        <path opacity=".5" d="m345.798 783.743-.008-.009c-7.363-8.413-16.793-12.664-26.213-14.814l-4.194-178.243c6.232-2.128 11.45-5.281 16.653-9.442l.022-.018.019-.019 1.58-1.58 1.335-1.335 323.743 146.085V728.284c0 4.031 0 8.126.948 12.23l-299.27 66.146c-5.178-9.316-9.376-16.63-14.615-22.916v-.001ZM189.06 119.59l-.004.031v.031c0 8.258-4.133 16.558-10.377 22.804-13.492 12.445-34.219 11.39-45.608-2.068l-.013-.016-.015-.014c-6.21-6.209-9.316-15.533-8.282-23.803l.004-.031v-.031c0-8.257 4.132-16.557 10.377-22.803 12.419-11.375 33.159-10.363 45.623 2.084 6.243 7.289 9.326 15.571 8.295 23.816Z" stroke="#E0E0E0"/>
        <path d="m583.087 58.201-.007.006-.007.007c-13.491 12.452-34.224 11.398-45.615-2.062l-.013-.016-.015-.015c-6.21-6.208-9.316-15.532-8.282-23.802l.004-.03v-.032c0-8.258 4.133-16.557 10.377-22.804 13.492-12.445 34.219-11.39 45.608 2.068l.013.016.015.015c6.21 6.209 9.316 15.532 8.282 23.802l-.004.03v.032c0 8.294-3.107 16.573-10.356 22.785Z" stroke="#E0E0E0"/>
        <path opacity=".5" d="m812.302 354.122-.007-.008-.008-.008c-6.21-6.209-9.316-15.532-8.282-23.802l.004-.031v-.031c0-8.258 4.133-16.557 10.377-22.804 13.492-12.445 34.219-11.39 45.608 2.068l.013.016.015.015c6.21 6.209 9.316 15.532 8.282 23.802l-.004.031v.031c0 8.254-4.129 16.551-10.369 22.797-13.498 11.404-34.241 10.346-45.629-2.076Z" stroke="#E0E0E0"/>
        <path d="m743.101 707.521.013.016.015.015c6.21 6.209 9.316 15.532 8.282 23.802l-.004.031v.031c0 8.258-4.133 16.558-10.377 22.804-13.492 12.445-34.219 11.39-45.608-2.068l-.002-.002c-6.222-7.259-8.304-15.557-8.304-23.893 0-8.258 4.133-16.557 10.377-22.804 13.492-12.445 34.219-11.39 45.608 2.068Z" stroke="#E0E0E0"/>
        <path opacity=".5" d="m285.713 793.92.007-.006.007-.006c13.491-12.453 34.224-11.399 45.615 2.061l.014.016.014.015c6.21 6.208 9.316 15.532 8.282 23.802l-.003.031v.031c0 8.258-4.133 16.557-10.378 22.804-13.492 12.445-34.219 11.39-45.608-2.068l-.013-.016-.015-.015c-6.21-6.209-9.316-15.532-8.282-23.802l.004-.031v-.031c0-8.294 3.107-16.573 10.356-22.785Z" stroke="#E0E0E0"/>
    </g>
</svg>
