<svg width="23" height="22" fill="none" xmlns="http://www.w3.org/2000/svg">
    <path d="m2.634 14.176.015-.014.015-.014c.248-.249.356-.562.39-.836.043-.348-.08-.72-.333-.977-.498-.531-1.295-.51-1.797-.085l-.016.014-.014.014a1.292 1.292 0 0 0-.394.898c0 .285.074.609.318.894l.006.007.006.007c.498.539 1.3.518 1.804.092ZM13.764 7.785v-.327l-.299-.13-7.344-3.215-.403-.177-.226.378a.962.962 0 0 1-.172.2l-.025.025-.02.027c-.001 0-.009.009-.03.023a.734.734 0 0 1-.092.054l-.392.196.143.414L7.5 12.795l.116.337h.357c.108 0 .213.025.328.097l.325.203.28-.26 2.399-2.226 2.399-2.225.258-.24-.139-.324a.795.795 0 0 1-.059-.322V7.785Z" stroke="#fff"/>
    <path d="m3.223 13.173-.396-.037-.125.376c-.062.185-.123.284-.197.348l-.393.336.35.381 4.624 5.045.352.384.361-.36a1.762 1.762 0 0 1 .09-.047l.014-.007a3.69 3.69 0 0 0 .071-.034l.283-.141-.006-.316-.025-1.286v-.003l-.074-2.967-.008-.32-.295-.127a1.052 1.052 0 0 1-.338-.216l-.354.354.354-.354c-.061-.061-.104-.139-.14-.287l-.086-.343-.353-.033-3.71-.346Z" stroke="#fff"/>
    <path opacity=".5" d="m5.157 5.1-.116-.337h-.377c-.054-.01-.1-.016-.133-.02h-.007a.81.81 0 0 1-.09-.014l-.452-.114-.144.445-2.127 6.577-.16.499.504.138c.166.045.312.135.46.28.133.154.21.313.242.506l.063.38.384.036 3.709.346.313.03.162-.27a5.51 5.51 0 0 0 .041-.07l.018-.03a1.6 1.6 0 0 1 .046-.075.292.292 0 0 1 .05-.063l.022-.017.02-.02.001-.001.001-.001.001-.001.001-.001.001-.001.001-.001.001-.001.001-.001.001-.001.001-.001.001-.001.001-.001.001-.001.001-.001.001-.001.001-.001.001-.001.001-.001.001-.001.001-.001.001-.001.001-.001.001-.001.001-.001.001-.001.001-.001.001-.001.001-.001v-.001h.001l.001-.001.001-.001.001-.001.001-.001.001-.001.001-.001.001-.001.001-.001.001-.001v-.001h.001l.001-.001.001-.001.001-.001.001-.001.001-.001.001-.001.001-.001.001-.001.001-.001.001-.001v-.001h.001l.001-.001.001-.001.001-.001.001-.001.001-.001.001-.001.001-.001.001-.001.001-.001v-.001h.001l.001-.001.001-.001.001-.001.001-.001.001-.001.001-.001.001-.001.001-.001.001-.001.001-.001.001-.001.001-.001.001-.001.001-.001.221-.221-.102-.295L5.158 5.1Z" stroke="#fff"/>
    <path d="m8.614 13.831-.045.366.336.152 7.567 3.412.438.198.214-.43a.276.276 0 0 1 .076-.096 1.66 1.66 0 0 1 .22-.15l.397-.198-.15-.418-2.794-7.814-.118-.331h-.353a.649.649 0 0 1-.32-.083l-.318-.18-.268.246-4.822 4.426-.278.255.169.337c.05.1.063.198.05.308ZM14.408 3.236v-.43l-.424-.065a.845.845 0 0 1-.52-.284 1.402 1.402 0 0 1-.286-.565l-.126-.463-.468.108-6.577 1.508-.497.114.124.495a.78.78 0 0 1 .01.175V4.232l.3.13 4.87 2.127h.003l2.522 1.089.311.134.24-.24.037-.037.017-.016c.087-.067.178-.123.295-.193l.25-.15-.007-.29-.074-3.431v-.118Z" stroke="#fff"/>
    <path opacity=".5" d="m19.94 8.07.404-.336-.357-.387L15.56 2.55l-.327-.354-.366.314c-.114.097-.254.17-.419.233l-.325.121v.41l.1 3.536.009.32.293.126c.138.059.25.127.338.215.052.052.098.142.14.312l.084.333.34.042 3.809.47.373.046.148-.345a.647.647 0 0 1 .182-.258Z" stroke="#fff"/>
    <path d="m17.393 16.805.119.333H17.963a.1.1 0 0 1 .01 0l.544.363.197-.643 1.978-6.479.147-.48-.482-.144a.967.967 0 0 1-.435-.271l-.006-.007a.96.96 0 0 1-.266-.628v-.442l-.438-.054-3.758-.47-.383-.048-.143.358a.51.51 0 0 1-.085.122.615.615 0 0 0-.036.026c-.043.032-.079.069-.088.078l-.002.002-.224.223.106.298 2.794 7.863Z" stroke="#fff"/>
    <path opacity=".5" d="m7.993 19.073.009.391.382.085a.624.624 0 0 1 .347.184c.087.105.164.237.289.461l.18.326.365-.08 7.047-1.558.502-.111-.125-.499a.78.78 0 0 1-.01-.175V17.674l-.294-.133-7.616-3.437-.315-.142-.244.244-.053.053a.73.73 0 0 1-.222.123l-.35.117.009.37.099 4.203ZM5.543 4.716l.008-.007.007-.007a1.3 1.3 0 0 0 .393-.866c.035-.36-.108-.681-.318-.926l-.012-.014-.014-.014c-.47-.47-1.268-.533-1.78-.064l-.007.007-.008.008a1.3 1.3 0 0 0-.393.866c-.033.336.089.69.329.938.467.535 1.28.554 1.795.079Z" stroke="#fff"/>
    <path d="m13.321.84-.007.007-.007.007a1.3 1.3 0 0 0-.394.867c-.032.335.09.69.33.938.464.532 1.273.554 1.788.085a1.2 1.2 0 0 0 .415-.888 1.208 1.208 0 0 0-.33-.937c-.467-.534-1.28-.554-1.795-.078Z" stroke="#fff"/>
    <path opacity=".5" d="m19.775 7.838-.007.007-.007.007a1.3 1.3 0 0 0-.394.867c-.032.339.092.696.336.945.465.498 1.26.519 1.773.086l.016-.014.014-.014a1.3 1.3 0 0 0 .394-.867c.032-.335-.09-.69-.33-.938-.466-.535-1.28-.554-1.795-.079Z" stroke="#fff"/>
    <path d="m17.03 17.185-.007.007-.007.007a1.292 1.292 0 0 0-.393.898c0 .285.073.608.317.893.465.548 1.288.572 1.807.092l.008-.006.007-.008c.212-.212.384-.518.393-.866.032-.336-.089-.69-.329-.938-.467-.535-1.28-.554-1.795-.079Z" stroke="#fff"/>
    <path opacity=".5" d="m9.079 21.16.007-.007.007-.007a1.3 1.3 0 0 0 .394-.867c.032-.335-.09-.69-.33-.938-.465-.532-1.273-.554-1.788-.085a1.2 1.2 0 0 0-.415.888c-.032.335.09.688.33.937.467.535 1.28.554 1.795.079Z" stroke="#fff"/>
</svg>
