<svg width="20" height="21" fill="none" xmlns="http://www.w3.org/2000/svg">
    <path fill-rule="evenodd" clip-rule="evenodd" d="M6.167 5.25a.5.5 0 0 1 .5-.5H17.5a.5.5 0 1 1 0 1H6.666a.5.5 0 0 1-.5-.5ZM6.167 10.25a.5.5 0 0 1 .5-.5H17.5a.5.5 0 1 1 0 1H6.666a.5.5 0 0 1-.5-.5ZM6.167 15.25a.5.5 0 0 1 .5-.5H17.5a.5.5 0 1 1 0 1H6.666a.5.5 0 0 1-.5-.5ZM2 5.25a.5.5 0 0 1 .5-.5h.008a.5.5 0 1 1 0 1H2.5a.5.5 0 0 1-.5-.5ZM2 10.25a.5.5 0 0 1 .5-.5h.008a.5.5 0 1 1 0 1H2.5a.5.5 0 0 1-.5-.5ZM2 15.25a.5.5 0 0 1 .5-.5h.008a.5.5 0 0 1 0 1H2.5a.5.5 0 0 1-.5-.5Z" fill="#fff"/>
</svg>
