<svg width="17" height="17" fill="none" xmlns="http://www.w3.org/2000/svg">
    <path d="M16 12.23v2.258a1.501 1.501 0 0 1-1.026 1.433c-.199.067-.41.092-.619.073a14.944 14.944 0 0 1-6.508-2.31A14.693 14.693 0 0 1 3.32 9.166 14.877 14.877 0 0 1 1.006 2.64 1.503 1.503 0 0 1 1.9 1.128 1.51 1.51 0 0 1 2.507 1H4.77a1.51 1.51 0 0 1 1.508 1.295c.095.722.273 1.432.528 2.115a1.503 1.503 0 0 1-.34 1.588l-.957.956a12.056 12.056 0 0 0 4.525 4.516l.958-.956a1.51 1.51 0 0 1 1.591-.338 9.701 9.701 0 0 0 2.12.526 1.509 1.509 0 0 1 1.296 1.528Z" stroke="#8B00FF" stroke-linecap="round" stroke-linejoin="round"/>
</svg>
