<svg width="16" height="15" fill="none" xmlns="http://www.w3.org/2000/svg">
    <path d="m7.461.987-1.785 3.62-3.995.582a.875.875 0 0 0-.484 1.493l2.89 2.816-.683 3.978a.874.874 0 0 0 1.268.921l3.574-1.878 3.573 1.879c.634.333 1.392-.203 1.269-.922l-.684-3.978 2.89-2.816a.875.875 0 0 0-.484-1.493l-3.994-.582L9.03.987a.876.876 0 0 0-1.569 0Z" fill="#FFF500"/>
    <path d="m7.461.987-1.785 3.62-3.995.582a.875.875 0 0 0-.484 1.493l2.89 2.816-.683 3.978a.874.874 0 0 0 1.268.921l3.574-1.878 3.573 1.879c.634.333 1.392-.203 1.269-.922l-.684-3.978 2.89-2.816a.875.875 0 0 0-.484-1.493l-3.994-.582L9.03.987a.876.876 0 0 0-1.569 0Z" fill="#FFF500"/>
    <path d="m7.461.987-1.785 3.62-3.995.582a.875.875 0 0 0-.484 1.493l2.89 2.816-.683 3.978a.874.874 0 0 0 1.268.921l3.574-1.878 3.573 1.879c.634.333 1.392-.203 1.269-.922l-.684-3.978 2.89-2.816a.875.875 0 0 0-.484-1.493l-3.994-.582L9.03.987a.876.876 0 0 0-1.569 0Z" fill="#FFF500"/>
</svg>
