<svg width="399" height="79" fill="none" xmlns="http://www.w3.org/2000/svg">
    <g clip-path="url(#a)">
        <path d="M111.965 46.54h-4.945L98.514 9.484h4.648l5.935 26.105.791 4.498h.198l.791-4.498 6.825-26.105h4.847l6.626 26.203.792 4.4h.198l.791-4.4 6.132-26.203h4.253l-8.704 37.056h-4.945l-6.726-26.595-.989-4.497h-.297l-.989 4.497-6.726 26.595ZM147.078 46.54V9.484h21.167v4.106h-16.32v11.635h14.243v3.716h-14.243v13.492h17.605v4.107h-22.452ZM192.379 27.083c2.967.684 5.143 1.955 6.429 3.618 1.285 1.662 1.978 3.617 1.978 5.768 0 1.76-.495 3.422-1.385 4.986-.89 1.565-2.176 2.836-3.956 3.716-1.682.977-4.649 1.369-8.803 1.369h-11.276V9.484h9.99c4.55 0 7.616.293 9.1.978 1.582.684 2.769 1.564 3.56 2.835.792 1.271 1.187 2.64 1.187 4.204 0 1.662-.494 3.422-1.483 5.084-.891 1.662-2.77 3.13-5.341 4.498Zm-11.969-1.467h4.649c2.374 0 4.253-.293 5.44-.977 1.187-.685 2.176-1.565 2.869-2.738.692-1.173 1.088-2.444 1.088-3.618 0-1.368-.594-2.542-1.682-3.52-1.088-.977-3.165-1.466-6.033-1.466h-6.331v12.32Zm0 17.208h6.924c3.264 0 5.44-.586 6.726-1.76 1.187-1.173 1.78-2.64 1.78-4.302a5.883 5.883 0 0 0-1.187-3.617c-.791-1.076-1.879-2.053-3.461-2.738-1.484-.684-3.858-1.075-7.122-1.075h-3.66v13.492ZM205.336 33.438v-3.715h15.034v3.715h-15.034ZM225.711 46.54V9.484h21.167v4.106h-16.32v11.635H244.8v3.716h-14.242v13.492h17.605v4.107h-22.452ZM256.274 46.54h-4.847l11.968-18.773-11.077-18.283h5.341l8.506 13.981 9.001-13.981h4.846l-11.473 17.892 11.572 19.164h-5.341l-9.001-14.862-9.495 14.862ZM289.211 46.54h-4.847V9.484h10.386c3.956 0 6.824.391 8.407 1.173 1.681.782 2.868 1.956 3.66 3.52a11.688 11.688 0 0 1 1.285 5.377c0 3.423-1.187 6.356-3.56 8.702-2.374 2.347-5.935 3.52-10.683 3.52h-4.648V46.54Zm0-18.284h3.264c4.352 0 7.121-.782 8.506-2.444 1.385-1.662 2.077-3.618 2.077-5.867 0-1.955-.593-3.617-1.681-4.79-1.088-1.174-3.264-1.858-6.528-1.858h-5.638v14.96ZM313.147 46.54V9.484h21.166v4.106h-16.32v11.635h14.342v3.716h-14.243v13.492h17.606v4.107h-22.551ZM346.578 46.54h-4.846V9.484h11.572c2.868 0 4.945.391 6.429 1.173a8.322 8.322 0 0 1 3.363 3.52c.791 1.564 1.286 3.226 1.286 4.986 0 1.467-.297 2.836-.89 4.204a12.797 12.797 0 0 1-2.374 3.618c-.989 1.076-2.572 2.053-4.748 2.835.791.49 1.385.88 1.78 1.272.396.39.891 1.075 1.484 1.955.594.88 1.088 1.76 1.484 2.542l5.934 10.95h-5.638l-5.143-9.777c-1.286-2.346-2.868-4.4-4.945-6.16h-4.946V46.54h.198Zm0-19.555h4.748c1.978 0 3.56-.293 4.55-.88 1.088-.587 1.879-1.466 2.472-2.64.594-1.173.89-2.444.89-3.813 0-1.173-.197-2.249-.692-3.129-.494-.88-1.187-1.662-2.176-2.346-.89-.587-2.572-.978-4.748-.978h-5.143v13.786h.099ZM381.592 46.54V13.2h-12.759V9.483H399v3.715h-12.561v33.34h-4.847Z" fill="#000"/>
        <path d="M5.44 46.148c.593.587.89 1.467.791 2.25-.099.781-.395 1.564-.989 2.15-1.286 1.076-3.264 1.076-4.45-.195C.197 49.668 0 48.886 0 48.103c0-.781.396-1.563.99-2.15 1.285-1.076 3.263-1.076 4.45.195ZM49.059 26.79v.195c0 .684.099 1.369.396 2.053l-9.594 8.8-9.595 8.8a4.413 4.413 0 0 0-2.374-.685l-10.385-29.82c.396-.196.89-.49 1.187-.88.396-.392.692-.685.989-1.174l29.376 12.71ZM8.704 50.06l14.836 1.368c.198.782.495 1.467 1.088 2.053.594.587 1.286.978 1.979 1.271l.296 11.733.1 5.084c-.396.196-.891.391-1.188.685L7.32 52.308c.693-.587 1.088-1.369 1.385-2.249Z" fill="#8B00FF"/>
        <path opacity=".5" d="M14.44 16.817h.298L25.221 46.93l-.297.293c-.494.391-.791.978-1.088 1.467L9.001 47.32c-.198-1.172-.693-2.15-1.484-3.03-.791-.782-1.681-1.369-2.77-1.662l8.507-26.008c.396.098.791.098 1.187.196Z" fill="#8B00FF"/>
        <path d="M32.442 50.94a3.96 3.96 0 0 0-.395-2.347l19.287-17.501a4.637 4.637 0 0 0 2.275.586l11.177 30.896c-.396.196-.792.49-1.187.782a3.063 3.063 0 0 0-.89 1.076L32.442 50.939ZM48.367 7.04c.89.977 1.978 1.564 3.264 1.76v.488l.296 13.59c-.494.294-.989.587-1.483.978l-.297.294-10.089-4.302-19.485-8.409v-.293c0-.391 0-.782-.099-1.173l26.31-5.964c.297 1.075.791 2.15 1.583 3.03Z" fill="#8B00FF"/>
        <path opacity=".5" d="M74.479 26.398c-.594.49-.99 1.076-1.286 1.76L57.96 26.301c-.198-.782-.495-1.565-1.088-2.151-.594-.587-1.286-.978-1.978-1.271l-.396-13.982v-.195c.791-.294 1.583-.685 2.275-1.271l17.705 18.967Z" fill="#8B00FF"/>
        <path d="M67.852 61.792h-.396L56.28 30.701c.1-.098.198-.196.297-.196.396-.391.791-.88.99-1.369l15.033 1.858c0 1.369.594 2.737 1.583 3.813.692.782 1.681 1.369 2.67 1.662L68.94 62.085c-.297-.195-.693-.293-1.088-.293Z" fill="#8B00FF"/>
        <path opacity=".5" d="M32.442 72.743c-.692-.783-1.582-1.174-2.473-1.37l-.395-16.62c.593-.196 1.088-.49 1.582-.88l.297-.294 30.464 13.59v.392c0 .39 0 .782.1 1.173l-28.19 6.16c-.495-.88-.89-1.565-1.385-2.151ZM17.804 11.048c0 .782-.396 1.565-.99 2.151-1.285 1.174-3.263 1.076-4.351-.195-.594-.587-.89-1.467-.792-2.25 0-.781.396-1.563.99-2.15 1.186-1.076 3.165-.978 4.351.196.594.684.89 1.466.792 2.248Z" fill="#8B00FF"/>
        <path d="M54.796 5.377c-1.286 1.174-3.264 1.076-4.352-.195-.594-.587-.89-1.467-.791-2.249 0-.782.395-1.564.989-2.15 1.285-1.174 3.264-1.076 4.352.195.593.586.89 1.466.79 2.248a2.76 2.76 0 0 1-.988 2.151Z" fill="#8B00FF"/>
        <path opacity=".5" d="M76.259 32.852c-.593-.587-.89-1.467-.791-2.25 0-.782.395-1.564.989-2.15 1.286-1.174 3.264-1.076 4.352.195.593.587.89 1.467.791 2.249 0 .782-.395 1.564-.989 2.151-1.286 1.076-3.264.978-4.352-.195Z" fill="#8B00FF"/>
        <path d="M64.489 67.56c0-.782.395-1.564.989-2.15 1.286-1.174 3.264-1.076 4.352.195.593.587.89 1.467.791 2.249 0 .782-.395 1.564-.989 2.151-1.286 1.173-3.264 1.076-4.352-.196-.593-.684-.791-1.466-.791-2.248Z" fill="#8B00FF"/>
        <path opacity=".5" d="M26.804 73.623c1.286-1.174 3.264-1.076 4.352.195.594.587.89 1.467.792 2.249 0 .782-.396 1.564-.99 2.15-1.285 1.174-3.263 1.076-4.351-.195-.594-.586-.89-1.466-.792-2.249 0-.782.297-1.564.99-2.15Z" fill="#8B00FF"/>
        <path d="M114.834 67.854c.494.489.791 1.076.791 2.053 0 1.271-.495 2.249-1.385 2.738-.989.489-2.275.782-3.956.782h-3.957V61.205h3.462c1.781 0 3.066.196 3.957.685.89.489 1.384 1.27 1.384 2.346 0 .685-.197 1.271-.692 1.76-.396.391-.989.782-1.583.88.792.196 1.385.49 1.979.978Zm-5.638-4.595v2.835h1.088c1.187 0 1.879-.489 1.879-1.466 0-.49-.198-.88-.494-1.076-.297-.196-.891-.293-1.583-.293h-.89Zm2.769 7.724c.396-.196.594-.685.594-1.271 0-1.174-.693-1.663-2.176-1.663h-1.286v3.325h1.088c.791-.098 1.385-.196 1.78-.391ZM125.021 73.427l-.593-2.64h-3.561l-.593 2.64h-3.067l3.759-12.222h3.561l3.758 12.222h-3.264Zm-3.758-4.79h2.571l-1.285-5.378-1.286 5.377ZM144.408 61.205v12.222H130.56V61.205h2.869v9.973h2.769v-9.973h2.77v9.973h2.769v-9.973h2.671ZM160.332 62.477c.89 1.075 1.286 2.64 1.286 4.693 0 2.15-.495 3.715-1.385 4.888-.89 1.076-2.176 1.662-3.759 1.662-.791 0-1.483-.097-2.077-.39a3.513 3.513 0 0 1-1.582-1.076l1.286-1.565a6.62 6.62 0 0 0 1.088.685c.296.098.692.195 1.187.195 1.483 0 2.274-1.075 2.373-3.324h-4.154v-2.053h4.154c-.099-2.053-.89-3.129-2.176-3.129-.395 0-.791.098-1.187.196-.296.097-.692.39-1.088.684l-1.384-1.662a8.075 8.075 0 0 1 1.681-1.075c.594-.196 1.286-.392 2.176-.392 1.484.098 2.671.587 3.561 1.663ZM174.476 61.205l-3.066 5.573 3.363 6.649h-3.165l-2.671-5.28h-1.286v5.28h-2.967V61.205h2.967v4.791h1.385l2.572-4.79h2.868ZM184.07 61.206c.594.195 1.187.586 1.682.977l-1.385 1.662c-.396-.293-.692-.489-1.088-.586-.396-.098-.692-.196-1.187-.196-.791 0-1.484.391-1.978 1.076-.495.684-.693 1.76-.693 3.226 0 1.467.198 2.444.693 3.129.494.684 1.187 1.075 1.978 1.075.495 0 .89-.097 1.187-.293.396-.195.791-.391 1.187-.684l1.286 1.662c-.495.489-.989.88-1.682 1.173-.692.293-1.385.391-2.176.391-1.187 0-2.176-.293-2.967-.782-.791-.489-1.484-1.271-1.978-2.151-.495-.978-.693-2.151-.693-3.52 0-1.369.198-2.444.693-3.422a5.275 5.275 0 0 1 1.978-2.15c.89-.49 1.78-.783 2.868-.783.989-.098 1.682 0 2.275.196ZM198.115 61.205v12.222h-2.967v-9.973h-3.66v9.973h-2.967V61.205h9.594ZM209.49 61.205l-.297 2.054h-4.352v2.933h3.759v2.053h-3.759v3.129h4.649v2.053h-7.616V61.205h7.616ZM220.469 62.183c.89.685 1.384 1.662 1.384 2.933 0 1.37-.395 2.445-1.285 3.13-.891.684-2.077 1.075-3.561 1.075h-1.385v4.106h-2.967V61.205h3.956c1.682 0 2.968.294 3.858.978Zm-2.176 4.595c.395-.293.494-.88.494-1.564 0-1.27-.692-1.955-2.176-1.955h-.989v4.008h1.088c.693 0 1.187-.195 1.583-.489ZM232.734 61.205l-.297 2.25h-2.968v9.972h-2.967v-9.973h-3.165v-2.249h9.397ZM249.548 67.854c.495.489.791 1.076.791 2.053 0 1.271-.494 2.249-1.384 2.738-.989.489-2.275.782-3.957.782h-3.956V61.205h3.462c1.78 0 3.066.196 3.956.685.89.489 1.385 1.27 1.385 2.346 0 .685-.198 1.271-.693 1.76-.395.391-.989.782-1.582.88.791.196 1.484.49 1.978.978Zm-5.638-4.595v2.835h1.088c1.187 0 1.88-.489 1.88-1.466 0-.49-.198-.88-.495-1.076-.297-.196-.89-.293-1.583-.293h-.89Zm2.869 7.724c.395-.196.593-.685.593-1.271 0-1.174-.692-1.663-2.176-1.663h-1.286v3.325h1.088c.792-.098 1.385-.196 1.781-.391ZM266.165 61.206c.593.195 1.187.586 1.681.977l-1.384 1.662c-.396-.293-.693-.489-1.088-.586-.396-.098-.693-.196-1.187-.196-.792 0-1.484.391-1.979 1.076-.494.684-.692 1.76-.692 3.226 0 1.467.198 2.444.692 3.129.495.684 1.187 1.075 1.979 1.075.494 0 .89-.097 1.187-.293.395-.195.791-.391 1.186-.684l1.286 1.662c-.494.489-.989.88-1.681 1.173-.693.293-1.385.391-2.176.391-1.187 0-2.176-.293-2.967-.782-.792-.489-1.484-1.271-1.979-2.151-.494-.978-.692-2.151-.692-3.52 0-1.369.198-2.444.692-3.422a5.277 5.277 0 0 1 1.979-2.15c.89-.49 1.78-.783 2.868-.783.989-.098 1.681 0 2.275.196ZM282.485 71.178c-.989.88-2.473 1.369-4.253 1.467v1.466h-2.869v-1.466c-1.78-.098-3.264-.587-4.253-1.467-.989-.88-1.483-2.15-1.483-3.91 0-1.76.494-3.13 1.582-4.01.989-.88 2.473-1.368 4.253-1.466v-1.369h2.869v1.37c1.78.097 3.264.586 4.253 1.466.989.88 1.483 2.15 1.483 3.91 0 1.858-.593 3.13-1.582 4.01Zm-9.199-1.27c.495.586 1.187.88 2.275.977V63.65c-1.088.098-1.78.39-2.275.977-.494.587-.692 1.467-.692 2.64 0 1.174.198 2.054.692 2.64Zm7.122 0c.494-.587.692-1.467.692-2.64 0-1.174-.198-2.054-.692-2.543-.495-.586-1.187-.88-2.275-.977v7.235c.989-.196 1.78-.49 2.275-1.076ZM294.552 61.205l-.297 2.054h-4.352v2.933h3.759v2.053h-3.759v3.129h4.649v2.053h-7.616V61.205h7.616ZM305.531 62.183c.89.685 1.384 1.662 1.384 2.933 0 1.37-.395 2.445-1.285 3.13-.891.684-2.077 1.075-3.561 1.075h-1.385v4.106h-2.967V61.205h3.956c1.682 0 2.968.294 3.858.978Zm-2.176 4.595c.395-.293.494-.88.494-1.564 0-1.27-.692-1.955-2.176-1.955h-.989v4.008h1.088c.693 0 1.187-.195 1.583-.489ZM317.499 61.205l-.297 2.054h-4.352v2.933h3.759v2.053h-3.759v3.129h4.649v2.053h-7.616V61.205h7.616ZM329.269 61.205v12.222h-2.967V61.205h2.967ZM341.435 61.205l-.297 2.25h-3.066v9.972h-2.967v-9.973h-3.166v-2.249h9.496ZM359.14 73.427h-2.869v-4.595c0-1.662.099-3.325.396-4.791l-3.561 9.386h-3.462V61.205h2.869V65.9c0 .977 0 1.76-.099 2.444a66.698 66.698 0 0 0-.297 2.249l3.66-9.289h3.461v12.124h-.098ZM376.251 62.183c.89.685 1.385 1.662 1.385 2.933 0 1.37-.396 2.445-1.286 3.13-.89.684-2.077 1.075-3.561 1.075h-1.286v4.106h-2.967V61.205h3.956c1.583 0 2.869.294 3.759.978Zm-2.176 4.595c.396-.293.494-.88.494-1.564 0-1.27-.692-1.955-2.176-1.955h-.989v4.008h1.088c.693 0 1.286-.195 1.583-.489ZM384.658 68.734h-1.187v4.693h-2.967V61.205h4.055c1.682 0 2.968.294 3.759.88.89.587 1.286 1.565 1.286 2.836 0 .782-.198 1.466-.594 1.955-.395.49-.989.978-1.78 1.37l3.165 5.181h-3.264l-2.473-4.693Zm-1.088-1.956h1.187c.692 0 1.187-.195 1.484-.488.296-.294.494-.783.494-1.37 0-.586-.198-.977-.494-1.27-.396-.294-.89-.391-1.583-.391h-1.088v3.52Z" fill="#8B00FF"/>
    </g>
    <defs>
        <clipPath id="a">
            <path fill="#fff" d="M0 0h399v79H0z"/>
        </clipPath>
    </defs>
</svg>
