<svg width="596" height="585" fill="none" xmlns="http://www.w3.org/2000/svg">
    <path d="m39.357 341.495.007.007.007.007c4.224 4.225 6.338 10.571 5.635 16.194-.712 5.695-2.841 11.35-7.065 15.582-9.205 7.774-23.327 7.75-31.79-1.409C1.92 366.935.5 361.286.5 355.599c0-5.608 2.806-11.258 7.061-15.519 9.208-7.776 23.334-7.751 31.796 1.415Z" stroke="#E0E0E0"/>
    <path d="m143.929 104.919 213.811 93.575V199.611c0 4.997.699 10.014 2.792 15.038l-69.802 64.756-69.78 64.735c-5.633-3.442-11.275-4.87-16.916-4.927l-75.58-219.512c2.826-1.445 6.288-3.58 8.431-6.42 2.777-2.776 4.924-4.925 7.044-8.362Z" fill="#8B00FF" stroke="#8B00FF"/>
    <path d="M54.162 386.691c4.817-4.291 7.635-9.894 9.745-16.114l107.592 10.04c1.458 5.687 3.656 10.721 7.99 15.054 4.308 4.308 9.313 7.199 14.307 9.367l2.158 86.337v.003l.717 37.232c-.466.229-.956.463-1.457.702-.949.453-1.938.924-2.876 1.42-1.382.732-2.723 1.552-3.804 2.528L54.162 386.691Z" stroke="#E0E0E0"/>
    <path opacity=".5" d="m105.329 124.992.059.015H107.26L183.601 346.8l-.862.862-1.064 1.064c-3.118 2.503-5.186 6.06-7.039 9.246-.284.488-.563.967-.839 1.432L66.154 349.359c-1.502-8.596-5.136-15.786-10.889-22.257l-.01-.011-.01-.01c-5.702-5.701-12.122-10.027-19.94-12.265l61.811-191.16c1.321.298 2.637.462 3.924.623l.014.002c1.449.181 2.864.358 4.275.711Z" stroke="#E0E0E0"/>
    <path d="m457.684 475.548-220.243-99.312c.645-5.63-.076-11.272-2.815-16.912l140.297-128.768c4.955 2.757 10.567 4.161 16.188 4.218l81.35 227.459c-2.797 1.459-5.582 3.548-8.326 5.605l-.023.018c-2.818 2.113-4.959 4.891-6.428 7.692Z" fill="#8B00FF" stroke="#E0E0E0"/>
    <path d="m352.811 52.623.002.002c6.477 7.197 14.384 11.565 23.706 13.092v3.194l2.16 100.091c-3.526 2.116-7.082 4.264-10.64 7.11l-.021.017-.02.02-1.927 1.927-73.356-31.64-.002-.001L150.73 84.461V82.594c0-2.71 0-5.481-.62-8.263l191.164-43.833c2.194 7.841 5.806 15.68 11.537 22.125Z" stroke="#E0E0E0"/>
    <path opacity=".5" d="m414.534 55.87 128.605 139.364c-4.086 3.519-6.871 7.692-8.978 12.501l-110.517-13.633c-1.452-5.696-3.646-11.441-7.992-15.787-4.308-4.308-9.313-7.199-14.308-9.367l-2.88-102.943v-1.092c5.565-2.112 11.14-4.912 16.07-9.042Z" stroke="#8B00FF"/>
    <path d="M413.132 226.109h.207l.146-.146c2.815-2.815 5.663-6.34 7.186-9.921l108.969 13.62c.124 10.102 4.493 20.149 11.681 28.055 5.012 5.726 12.11 10.04 19.25 12.276l-57.445 188.106c-2.187-1.274-4.934-1.898-7.657-1.898H492.933l-81.391-229.017c.282-.278.547-.529.806-.723.333-.25.586-.352.784-.352Z" stroke="#E0E0E0"/>
    <path opacity=".5" d="m237.285 537.264-.008-.01c-5.047-5.767-11.5-8.694-17.942-10.182l-2.871-122.011c4.247-1.466 7.811-3.626 11.36-6.464l.021-.017.02-.02 1.922-1.922 221.847 100.105V499.336c0 2.709 0 5.479.619 8.26l-204.985 45.307c-3.525-6.339-6.398-11.338-9.983-15.639ZM129.51 81.838l-.004.03v.032c0 5.611-2.809 11.264-7.069 15.526-9.19 8.476-23.301 7.751-31.05-1.406l-.014-.016-.015-.015c-4.225-4.224-6.339-10.57-5.635-16.194l.004-.03v-.032c0-5.611 2.809-11.264 7.068-15.526 8.449-7.736 22.573-7.055 31.066 1.423 4.258 4.973 6.349 10.609 5.649 16.208Z" stroke="#E0E0E0"/>
    <path d="m399.806 39.634-.007.006-.007.007c-9.191 8.482-23.307 7.76-31.059-1.4l-.013-.016-.015-.015c-4.225-4.224-6.338-10.57-5.635-16.194l.004-.03v-.032c0-5.611 2.809-11.265 7.069-15.527 9.191-8.475 23.301-7.75 31.051 1.407l.013.016.015.014c4.225 4.224 6.339 10.57 5.636 16.194l-.004.031v.032c0 5.648-2.115 11.28-7.048 15.507Z" stroke="#E0E0E0"/>
    <path d="m557.23 242.604-.008-.008-.007-.008c-4.225-4.224-6.339-10.57-5.636-16.194l.004-.031v-.031c0-5.611 2.81-11.265 7.069-15.527 9.191-8.475 23.302-7.751 31.051 1.407l.014.016.015.014c4.224 4.225 6.338 10.571 5.635 16.195l-.004.03v.032c0 5.608-2.806 11.258-7.061 15.519-9.197 7.766-23.323 7.038-31.072-1.414Z" fill="#8B00FF" stroke="#E0E0E0"/>
    <path d="m509.533 485.188.013.016.015.015c4.225 4.224 6.338 10.57 5.635 16.194l-.004.031v.031c0 5.612-2.809 11.265-7.069 15.527-9.191 8.475-23.301 7.751-31.051-1.407l-.002-.002c-4.237-4.943-5.658-10.595-5.658-16.284 0-5.612 2.81-11.265 7.069-15.527 9.191-8.476 23.302-7.751 31.052 1.406Z" stroke="#E0E0E0"/>
    <path opacity=".5" d="m196.057 544.463.007-.006.007-.006c9.191-8.483 23.307-7.761 31.059 1.4l.013.015.015.015c4.225 4.224 6.338 10.57 5.635 16.194l-.004.031v.031c0 5.612-2.809 11.265-7.069 15.527-9.191 8.476-23.301 7.751-31.051-1.407l-.013-.015-.015-.015c-4.225-4.224-6.338-10.57-5.635-16.194l.003-.031v-.031c0-5.648 2.115-11.28 7.048-15.508Z" stroke="#E0E0E0"/>
</svg>
