<svg width="787" height="771" fill="none" xmlns="http://www.w3.org/2000/svg">
    <path d="m52.06 450.593.007.007.007.008c5.61 5.609 8.417 14.034 7.483 21.505-.943 7.542-3.765 15.045-9.375 20.662C37.975 503.09 19.233 503.066 8 490.905 2.381 484.347.5 476.851.5 469.316c0-7.456 3.73-14.953 9.371-20.6 12.21-10.316 30.956-10.291 42.19 1.877Z" stroke="#E0E0E0"/>
    <path d="M472.802 261.539v1.906c0 6.672.953 13.344 3.813 20.015l-92.463 85.78-92.464 85.779c-7.625-4.766-15.251-6.672-22.877-6.672L168.722 157.651c3.813-1.906 8.579-4.766 11.438-8.578 3.813-3.812 6.673-6.672 9.533-11.437l283.109 123.903Z" fill="#000" fill-opacity=".05"/>
    <path d="m189.893 138.269 282.409 123.597V263.445c0 6.613.93 13.247 3.716 19.887l-92.206 85.541-92.184 85.52c-7.481-4.596-14.972-6.487-22.46-6.545l-99.831-289.947c3.749-1.907 8.365-4.735 11.202-8.499 3.7-3.7 6.541-6.542 9.354-11.133Z" stroke="#000" stroke-opacity=".05"/>
    <path d="M71.254 510.34c6.434-5.678 10.176-13.13 12.978-21.427l142.238 13.273c1.92 7.534 4.811 14.185 10.531 19.904 5.694 5.694 12.315 9.509 18.926 12.369l2.852 114.05v.003l.947 49.241c-.646.32-1.327.644-2.022.976-1.249.595-2.547 1.214-3.783 1.868-1.871.99-3.675 2.099-5.105 3.42L71.254 510.34Z" stroke="#E0E0E0"/>
    <path opacity=".5" d="m139.05 164.808.06.015H141.675l100.824 292.923-1.209 1.209-.005.005-.006.006-.005.005-.006.006-.006.006-.005.005-.006.006-.005.005-.012.012-.011.011-.022.022-.089.089-.045.045-.006.006-.005.005-.011.011-.023.023-.022.022-.006.006-.005.005-.011.011-.023.023-.011.011-.006.006-.005.005-.089.089-.045.045-.011.011-.011.012-.012.011-.005.005-.006.006-.022.022-.011.011-.012.012-.011.011-.011.011-.011.011-.006.006-.005.005-.006.006-.005.005-.006.006-.006.006-.005.005-.006.006-.005.005-.006.006-.045.045-.011.011-.005.005-.006.006-.005.005-.006.006-.011.011-.006.006-.005.005-.012.012-.011.011-.005.005-.006.006-.022.022-.023.023-.011.011-.005.005-.006.006-.011.011-.006.006-.005.005-.006.006-.005.005-.012.012-.005.005-.006.006-.011.011-.022.022-.023.023-.089.089-.338.338c-4.093 3.283-6.808 7.949-9.255 12.157-.393.676-.78 1.341-1.164 1.985L87.173 461.229c-1.965-11.367-6.754-20.867-14.354-29.416l-.01-.011-.01-.011c-7.55-7.548-16.048-13.259-26.408-16.191l81.675-252.589c1.784.413 3.562.635 5.31.854l.014.001c1.911.239 3.788.474 5.66.942Z" stroke="#E0E0E0"/>
    <path d="M604.119 627.832 313.2 496.651c.875-7.478-.077-14.968-3.739-22.455L494.797 304.09c6.572 3.68 14.032 5.546 21.501 5.603l107.449 300.436c-3.721 1.922-7.431 4.704-11.097 7.453l-.023.018c-3.743 2.806-6.576 6.507-8.508 10.232Z" fill="#000" fill-opacity=".05" stroke="#E0E0E0"/>
    <path d="m465.756 69.345.002.002c8.556 9.506 19.004 15.26 31.328 17.25v4.348l2.854 132.191c-4.682 2.809-9.392 5.65-14.105 9.42l-.022.017-.019.02-1.43 1.43-1.19 1.189-96.916-41.801-.002-.001-187.484-81.835V109.015c0-3.632 0-7.328-.85-11.034l252.601-57.92c2.887 10.382 7.654 20.76 15.233 29.284Z" stroke="#E0E0E0"/>
    <path opacity=".5" d="M717.06 257.682c-5.471 4.674-9.181 10.234-11.98 16.659L558.994 256.32c-1.914-7.543-4.801-15.136-10.533-20.867-5.695-5.694-12.316-9.509-18.927-12.37l-3.804-135.96v-1.561c7.412-2.805 14.834-6.529 21.382-12.044L717.06 257.681Z" stroke="#000" stroke-opacity=".05"/>
    <path d="M545.248 298.258h.207l.146-.147c3.738-3.738 7.51-8.418 9.496-13.153l144.076 18.007c.124 13.335 5.879 26.615 15.376 37.062 6.629 7.573 16.037 13.273 25.486 16.202l-75.92 248.607c-2.884-1.733-6.554-2.586-10.199-2.586H650.456L542.965 299.794c.4-.397.779-.761 1.153-1.041.448-.336.816-.495 1.13-.495Z" stroke="#E0E0E0"/>
    <path opacity=".5" d="m313.044 709.178-.008-.009c-6.664-7.615-15.196-11.467-23.717-13.416l-3.795-161.27c5.633-1.928 10.352-4.781 15.056-8.543l.021-.018.02-.019 1.43-1.43.089-.089.006-.006.005-.005.006-.006.006-.006.022-.022.011-.011.006-.006.005-.005.023-.023.011-.011.011-.011.011-.011.006-.006.005-.005.006-.006.005-.005.012-.012.011-.011.011-.011.089-.089.09-.09.044-.044.045-.045.179-.179.022-.022.022-.022.012-.012.005-.005.006-.006.005-.005.006-.006.011-.011.022-.022.012-.012.011-.011.044-.044.012-.012.011-.011.022-.022.022-.022.006-.006.006-.006.005-.005.006-.006.011-.011.006-.005.005-.006.011-.011.011-.011.045-.045.09-.089.023-.024 292.986 132.206V659.011c0 3.631 0 7.326.848 11.031l-270.809 59.856c-4.68-8.417-8.478-15.033-13.217-20.72ZM171.085 108.028l-.004.031v.031c0 7.459-3.733 14.96-9.378 20.608-12.194 11.247-30.924 10.291-41.214-1.869l-.014-.015-.014-.015c-5.611-5.61-8.418-14.035-7.484-21.506l.004-.031v-.031c0-7.459 3.733-14.96 9.378-20.607 11.221-10.276 29.965-9.364 41.229 1.885 5.644 6.59 8.428 14.073 7.497 21.519Z" stroke="#E0E0E0"/>
    <path d="m527.764 52.43-.007.007-.007.006c-12.193 11.254-30.928 10.3-41.221-1.862l-.013-.016-.015-.015c-5.611-5.61-8.417-14.034-7.483-21.505l.003-.031v-.031c0-7.46 3.734-14.96 9.379-20.608 12.194-11.247 30.924-10.291 41.214 1.869l.014.015.014.015c5.611 5.61 8.418 14.035 7.484 21.506l-.004.03v.032c0 7.495-2.808 14.975-9.358 20.589Z" stroke="#E0E0E0"/>
    <path d="m735.309 320.294-.008-.008-.007-.008c-5.611-5.61-8.417-14.035-7.483-21.506l.003-.031v-.031c0-7.459 3.734-14.96 9.379-20.607 12.194-11.247 30.924-10.292 41.214 1.868l.014.016.014.015c5.611 5.61 8.418 14.034 7.484 21.505l-.004.031v.031c0 7.456-3.73 14.954-9.371 20.6-12.2 10.307-30.946 9.348-41.235-1.875Z" fill="#000" fill-opacity=".05" stroke="#E0E0E0"/>
    <path d="m672.599 640.244.013.016.015.015c5.61 5.609 8.417 14.034 7.483 21.505l-.004.031v.031c0 7.46-3.733 14.96-9.379 20.608-12.193 11.247-30.923 10.291-41.214-1.869l-.002-.002c-5.623-6.56-7.505-14.059-7.505-21.596 0-7.459 3.733-14.96 9.379-20.607 12.193-11.247 30.923-10.292 41.214 1.868Z" fill="#000" fill-opacity=".05" stroke="#DDD"/>
    <path opacity=".5" d="m258.651 718.455.007-.006.006-.006c12.194-11.254 30.929-10.301 41.222 1.862l.013.015.015.015c5.611 5.61 8.417 14.035 7.483 21.506l-.004.031v.031c0 7.459-3.733 14.96-9.378 20.608-12.194 11.246-30.924 10.291-41.214-1.869l-.014-.016-.015-.015c-5.61-5.609-8.417-14.034-7.483-21.505l.004-.031v-.031c0-7.496 2.808-14.976 9.358-20.589Z" stroke="#E0E0E0"/>
</svg>
