<svg width="19" height="19" viewBox="0 0 19 19" fill="none" xmlns="http://www.w3.org/2000/svg">
<path d="M7.39725 10.3052C7.7431 10.7676 8.18435 11.1502 8.69107 11.427C9.19778 11.7039 9.75811 11.8685 10.334 11.9097C10.91 11.951 11.488 11.8679 12.029 11.6661C12.57 11.4643 13.0613 11.1485 13.4695 10.7401L15.8855 8.3241C16.619 7.56465 17.0249 6.5475 17.0157 5.49171C17.0066 4.43592 16.5831 3.42598 15.8365 2.67939C15.0899 1.93281 14.08 1.50933 13.0242 1.50015C11.9684 1.49098 10.9512 1.89685 10.1918 2.63034L8.80659 4.00747" stroke="#A8A8A8" stroke-width="2" stroke-linecap="round" stroke-linejoin="round"/>
<path d="M10.6186 8.69487C10.2728 8.2325 9.83152 7.84992 9.32481 7.57308C8.81809 7.29624 8.25777 7.13161 7.68183 7.09037C7.1059 7.04912 6.52783 7.13222 5.98684 7.33402C5.44584 7.53583 4.95458 7.85162 4.54636 8.25999L2.13034 10.676C1.39685 11.4355 0.990978 12.4526 1.00015 13.5084C1.00933 14.5642 1.43281 15.5741 2.17939 16.3207C2.92598 17.0673 3.93592 17.4908 4.99171 17.5C6.0475 17.5091 7.06465 17.1033 7.8241 16.3698L9.20123 14.9926" stroke="#A8A8A8" stroke-width="2" stroke-linecap="round" stroke-linejoin="round"/>
</svg>
