<?xml version="1.0" encoding="utf-8"?><svg viewBox="0 0 23 23" xmlns="http://www.w3.org/2000/svg" xmlns:xlink="http://www.w3.org/1999/xlink"><style>:root>svg{display:none}:root>svg:target{display:block}</style><svg viewBox="0 0 10 5" id="icon-arrow" xmlns="http://www.w3.org/2000/svg"><path fill-rule="evenodd" clip-rule="evenodd" d="M.546.146a.5.5 0 01.708 0L4.9 3.793 8.546.146a.5.5 0 01.708.708l-4 4a.5.5 0 01-.708 0l-4-4a.5.5 0 010-.708z"/></svg><svg viewBox="0 0 16 16" id="icon-check" xmlns="http://www.w3.org/2000/svg"><rect width="16" height="16" rx="4"/><path d="M12.727 5l-6 6L4 8.273"/></svg><svg viewBox="0 0 22 22" id="icon-phone" xmlns="http://www.w3.org/2000/svg"><g clip-path="url(#ca)"><path d="M21 15.974v3.01a2.004 2.004 0 01-1.367 1.91c-.266.09-.547.123-.826.098a19.927 19.927 0 01-8.678-3.081 19.59 19.59 0 01-6.034-6.022 19.836 19.836 0 01-3.087-8.701 2.004 2.004 0 011.19-2.017c.256-.112.532-.17.811-.17h3.017a2.014 2.014 0 012.011 1.725c.128.964.364 1.91.704 2.82a2.003 2.003 0 01-.452 2.118L7.012 8.939a16.074 16.074 0 006.033 6.021l1.277-1.274a2.012 2.012 0 012.122-.452c.912.34 1.86.575 2.826.703A2.013 2.013 0 0121 15.974z"/></g><defs><clipPath id="ca"><path d="M0 0h22v22H0z"/></clipPath></defs></svg><svg viewBox="0 0 22 22" id="icon-post" xmlns="http://www.w3.org/2000/svg"><g clip-path="url(#da)" stroke-linecap="round" stroke-linejoin="round"><path d="M21 1L10 12M21 1l-7 20-4-9-9-4 20-7z"/></g><defs><clipPath id="da"><path d="M0 0h22v22H0z"/></clipPath></defs></svg><svg viewBox="0 0 16 15" id="icon-rate" xmlns="http://www.w3.org/2000/svg"><path d="M7.461.987l-1.785 3.62-3.995.582a.875.875 0 00-.484 1.493l2.89 2.816-.683 3.978a.874.874 0 001.268.921l3.574-1.878 3.573 1.879c.634.333 1.392-.203 1.269-.922l-.684-3.978 2.89-2.816a.875.875 0 00-.484-1.493l-3.994-.582L9.03.987a.876.876 0 00-1.569 0z"/><path d="M7.461.987l-1.785 3.62-3.995.582a.875.875 0 00-.484 1.493l2.89 2.816-.683 3.978a.874.874 0 001.268.921l3.574-1.878 3.573 1.879c.634.333 1.392-.203 1.269-.922l-.684-3.978 2.89-2.816a.875.875 0 00-.484-1.493l-3.994-.582L9.03.987a.876.876 0 00-1.569 0z"/><path d="M7.461.987l-1.785 3.62-3.995.582a.875.875 0 00-.484 1.493l2.89 2.816-.683 3.978a.874.874 0 001.268.921l3.574-1.878 3.573 1.879c.634.333 1.392-.203 1.269-.922l-.684-3.978 2.89-2.816a.875.875 0 00-.484-1.493l-3.994-.582L9.03.987a.876.876 0 00-1.569 0z"/></svg><svg viewBox="0 0 23 23" id="icon-slider-arr" xmlns="http://www.w3.org/2000/svg"><path d="M6.5 21.5l11-10-11-10"/></svg><svg viewBox="0 0 19 19" id="icon-upload" xmlns="http://www.w3.org/2000/svg"><path d="M7.397 10.305a4.026 4.026 0 006.072.435l2.417-2.416a4.027 4.027 0 00-5.694-5.694L8.807 4.007"/><path d="M10.619 8.695a4.026 4.026 0 00-6.073-.435L2.13 10.676a4.027 4.027 0 005.694 5.694l1.377-1.377"/></svg></svg>