<?xml version="1.0" encoding="utf-8"?><svg viewBox="0 0 22 22" xmlns="http://www.w3.org/2000/svg" xmlns:xlink="http://www.w3.org/1999/xlink"><style>:root>svg{display:none}:root>svg:target{display:block}</style><svg viewBox="0 0 10 5" id="icon-arrow" xmlns="http://www.w3.org/2000/svg"><path fill-rule="evenodd" clip-rule="evenodd" d="M.546.146a.5.5 0 01.708 0L4.9 3.793 8.546.146a.5.5 0 01.708.708l-4 4a.5.5 0 01-.708 0l-4-4a.5.5 0 010-.708z"/></svg><svg viewBox="0 0 22 22" id="icon-phone" xmlns="http://www.w3.org/2000/svg"><g clip-path="url(#ba)"><path d="M21 15.974v3.01a2.004 2.004 0 01-1.367 1.91c-.266.09-.547.123-.826.098a19.927 19.927 0 01-8.678-3.081 19.59 19.59 0 01-6.034-6.022 19.836 19.836 0 01-3.087-8.701 2.004 2.004 0 011.19-2.017c.256-.112.532-.17.811-.17h3.017a2.014 2.014 0 012.011 1.725c.128.964.364 1.91.704 2.82a2.003 2.003 0 01-.452 2.118L7.012 8.939a16.074 16.074 0 006.033 6.021l1.277-1.274a2.012 2.012 0 012.122-.452c.912.34 1.86.575 2.826.703A2.013 2.013 0 0121 15.974z"/></g><defs><clipPath id="ba"><path d="M0 0h22v22H0z"/></clipPath></defs></svg><svg viewBox="0 0 22 22" id="icon-post" xmlns="http://www.w3.org/2000/svg"><g clip-path="url(#ca)" stroke-linecap="round" stroke-linejoin="round"><path d="M21 1L10 12M21 1l-7 20-4-9-9-4 20-7z"/></g><defs><clipPath id="ca"><path d="M0 0h22v22H0z"/></clipPath></defs></svg></svg>